<svg version="1.1" id="space_background" xmlns="http://www.w3.org/2000/svg" xmlns:xlink="http://www.w3.org/1999/xlink" x="0" y="0" viewBox="0 0 900 400" style="enable-background:new 0 0 900 400" xml:space="preserve"><style>.st0,.st85{clip-path:url(#SVGID_2_);fill:#1a0066}.st85{fill:#4757b5}.st175,.st176,.st187,.st194,.st207{fill-rule:evenodd;clip-rule:evenodd;fill:#77bdff}.st176,.st187,.st194,.st207{fill:#fff}.st187,.st194,.st207{fill:#c2ffff}.st194,.st207{fill:#1f0a70}.st207{fill:#a0ffed}</style><g id="bg"><defs><path id="SVGID_1_" d="M0 0h900v400H0z"/></defs><clipPath id="SVGID_2_"><use xlink:href="#SVGID_1_" style="overflow:visible"/></clipPath><path class="st0" d="M0 0h900v400H0z"/><path class="st0" d="M901 314v63l-11 30v-6H7v6l-11-30h3V252h-3c6-20 15-40 27-58 23-37 57-71 99-99C205 39 321 5 449 5s243 34 326 90c42 28 76 62 99 99 12 18 21 38 27 58v62z"/><path d="M901 314v32h5a215 215 0 0 1-18 60v-5H9v5c-5-9-8-19-11-29h1V252h-1c6-20 15-39 26-58 24-37 57-70 99-98C206 40 321 6 449 6s242 34 325 90c42 28 75 61 99 98a240 240 0 0 1 33 89h-5v31z" style="clip-path:url(#SVGID_2_);fill:#1b0167"/><path d="M907 314a212 212 0 0 1-21 92v-5H11v5a230 230 0 0 1-19-60h7v-63h-7a214 214 0 0 1 34-88c23-37 57-70 98-98C207 41 322 7 449 7c253 0 458 138 458 307z" style="clip-path:url(#SVGID_2_);fill:#1b0268"/><path d="M905 314a211 211 0 0 1-20 92v-5H12v5a227 227 0 0 1-18-60h5v-63h-5a214 214 0 0 1 34-88c23-36 56-69 98-97C208 42 322 8 449 8c252 0 456 137 456 306z" style="clip-path:url(#SVGID_2_);fill:#1c0469"/><path d="M903 314a210 210 0 0 1-20 91v-4H14v4a227 227 0 0 1-20-91C-6 146 197 9 449 9c251 0 454 137 454 305z" style="clip-path:url(#SVGID_2_);fill:#1c056a"/><path d="M902 314a209 209 0 0 1-21 91v-4H16v4a226 226 0 0 1-21-91C-5 147 198 10 449 10c250 1 453 137 453 304z" style="clip-path:url(#SVGID_2_);fill:#1d066b"/><path d="M900 314a209 209 0 0 1-20 91v-4H17v3a223 223 0 0 1-20-90C-3 147 199 12 449 12s451 135 451 302z" style="clip-path:url(#SVGID_2_);fill:#1e076d"/><path d="M898 314a208 208 0 0 1-20 90v-3H19v3a225 225 0 0 1-20-90C-1 148 200 13 449 13c248 0 449 135 449 301z" style="clip-path:url(#SVGID_2_);fill:#1e086e"/><path d="M896 314a207 207 0 0 1-20 90v-3H21v3a223 223 0 0 1-20-90C1 149 201 14 449 14s447 135 447 300z" style="clip-path:url(#SVGID_2_);fill:#1f0a6f"/><path d="M895 314a206 206 0 0 1-20 89v-2H22v2a223 223 0 0 1-20-89C2 149 202 15 449 15c246 0 446 134 446 299z" style="clip-path:url(#SVGID_2_);fill:#200b70"/><path d="M893 314a205 205 0 0 1-20 89v-2H24v2a221 221 0 0 1-20-89C4 150 203 16 449 16c245 0 444 134 444 298z" style="clip-path:url(#SVGID_2_);fill:#200c71"/><path d="M891 314a205 205 0 0 1-20 89v-2H26v2a220 220 0 0 1-20-89C6 150 204 18 449 18c244 0 442 133 442 296z" style="clip-path:url(#SVGID_2_);fill:#210d72"/><path d="M889 314a204 204 0 0 1-20 88v-1H28v1a221 221 0 0 1-20-88C8 151 205 19 449 19s440 132 440 295z" style="clip-path:url(#SVGID_2_);fill:#210e73"/><path d="M888 314a203 203 0 0 1-20 88v-1H29v1a219 219 0 0 1-20-88C9 152 206 20 449 20c242 0 439 132 439 294z" style="clip-path:url(#SVGID_2_);fill:#220f74"/><path d="M886 314a202 202 0 0 1-20 88v-1H31v1a217 217 0 0 1-20-88C11 152 207 21 449 21c241 0 437 131 437 293z" style="clip-path:url(#SVGID_2_);fill:#231175"/><path d="M884 314a201 201 0 0 1-20 87H33a217 217 0 0 1-20-87C13 153 208 22 448 22c241 0 436 131 436 292z" style="clip-path:url(#SVGID_2_);fill:#231276"/><path d="M882 314a200 200 0 0 1-23 94v-7H38v7a224 224 0 0 1-23-94C15 154 209 23 449 24c239 0 433 130 433 290z" style="clip-path:url(#SVGID_2_);fill:#241377"/><path d="M880 314a199 199 0 0 1-22 93v-6H39v6a248 248 0 0 1-14-34c-5-19-8-39-8-59C17 154 210 25 449 25s431 129 431 289z" style="clip-path:url(#SVGID_2_);fill:#241478"/><path d="M879 314a199 199 0 0 1-23 93v-6H41v6a220 220 0 0 1-23-93C18 155 211 26 449 26c237 0 430 129 430 288z" style="clip-path:url(#SVGID_2_);fill:#251579"/><path d="M877 314a198 198 0 0 1-23 93v-6H43v6a230 230 0 0 1-14-35c-6-18-9-38-9-58C20 156 212 27 449 27c236 0 428 129 428 287z" style="clip-path:url(#SVGID_2_);fill:#26167a"/><path d="M875 314a197 197 0 0 1-22 92v-5H44v5a228 228 0 0 1-14-34c-5-19-8-38-8-58C22 156 213 28 449 28c235 0 426 128 426 286z" style="clip-path:url(#SVGID_2_);fill:#26177b"/><path d="M873 314a196 196 0 0 1-22 92v-5H46v5a226 226 0 0 1-14-34c-5-19-8-38-8-58C24 157 214 29 449 29s424 128 424 285z" style="clip-path:url(#SVGID_2_);fill:#27197c"/><path d="M872 314a195 195 0 0 1-23 92v-5H48v4a224 224 0 0 1-14-33c-6-19-9-38-9-58C25 158 215 31 449 31c233 0 423 127 423 283z" style="clip-path:url(#SVGID_2_);fill:#271a7d"/><path d="M870 314a195 195 0 0 1-22 91v-4H49v4a250 250 0 0 1-13-34c-6-18-9-37-9-57C27 158 216 32 449 32s421 126 421 282z" style="clip-path:url(#SVGID_2_);fill:#281b7e"/><path d="M868 314a194 194 0 0 1-22 91v-4H51v4a209 209 0 0 1-22-91C29 159 217 33 449 33c231 0 419 126 419 281z" style="clip-path:url(#SVGID_2_);fill:#281c7f"/><path d="M866 314a193 193 0 0 1-22 90v-3H53v3a232 232 0 0 1-14-33c-5-18-8-37-8-57C31 160 218 34 449 34c230 0 417 126 417 280z" style="clip-path:url(#SVGID_2_);fill:#291d80"/><path d="M865 314a192 192 0 0 1-22 90v-3H54v3a230 230 0 0 1-13-33c-6-19-9-37-9-57C32 160 219 35 449 35c229 0 416 125 416 279z" style="clip-path:url(#SVGID_2_);fill:#2a1e81"/><path d="M863 314a191 191 0 0 1-22 90v-3H56v3a215 215 0 0 1-13-34c-6-18-9-36-9-56C34 161 220 37 449 37s414 124 414 277z" style="clip-path:url(#SVGID_2_);fill:#2a1f82"/><path d="M861 314a191 191 0 0 1-22 89v-2H58v2a240 240 0 0 1-14-33c-5-18-8-36-8-56C36 162 221 38 449 38c227 0 412 124 412 276z" style="clip-path:url(#SVGID_2_);fill:#2b2184"/><path d="M859 314a190 190 0 0 1-21 89v-2H59v2a201 201 0 0 1-21-89C38 162 222 39 449 39s410 123 410 275z" style="clip-path:url(#SVGID_2_);fill:#2b2285"/><path d="M858 314a189 189 0 0 1-22 88v-1H61v1a199 199 0 0 1-22-88C39 163 223 40 449 40s409 123 409 274z" style="clip-path:url(#SVGID_2_);fill:#2c2386"/><path d="M856 314a188 188 0 0 1-22 88v-1H63v1a208 208 0 0 1-22-88C41 164 224 41 449 41c224 0 407 123 407 273z" style="clip-path:url(#SVGID_2_);fill:#2d2487"/><path d="M854 314a187 187 0 0 1-25 94v-7H68v7a217 217 0 0 1-17-39c-5-17-8-36-8-55C43 164 225 42 449 42s405 122 405 272z" style="clip-path:url(#SVGID_2_);fill:#2d2588"/><path d="M852 314a186 186 0 0 1-24 94v-7H69v7a221 221 0 0 1-16-39c-5-18-8-36-8-55C45 165 226 44 449 44c222 0 403 121 403 270z" style="clip-path:url(#SVGID_2_);fill:#2e2689"/><path d="M850 314a185 185 0 0 1-24 93v-6H71v6a219 219 0 0 1-16-38c-6-18-8-36-8-55C47 166 227 45 449 45s401 121 401 269z" style="clip-path:url(#SVGID_2_);fill:#2e278a"/><path d="M849 314a185 185 0 0 1-25 93v-6H73v6a217 217 0 0 1-17-38c-5-18-8-36-8-55C48 166 227 46 449 46c221 0 400 120 400 268z" style="clip-path:url(#SVGID_2_);fill:#2f288b"/><path d="M847 314a184 184 0 0 1-24 92v-5H74v5a212 212 0 0 1-16-38c-5-17-8-35-8-54C50 167 228 47 449 47c220 0 398 120 398 267z" style="clip-path:url(#SVGID_2_);fill:#2f298c"/><path d="M845 314a183 183 0 0 1-24 92v-5H76v5a223 223 0 0 1-16-38c-5-17-8-35-8-54C52 167 229 48 449 48c219 0 396 120 396 266z" style="clip-path:url(#SVGID_2_);fill:#302a8c"/><path d="M843 314a182 182 0 0 1-24 92v-5H78v5a212 212 0 0 1-16-38c-6-17-8-35-8-54C54 168 230 50 449 50c218 0 394 118 394 264z" style="clip-path:url(#SVGID_2_);fill:#302b8d"/><path d="M842 314a181 181 0 0 1-24 91v-4H79v4a210 210 0 0 1-16-37c-5-18-8-35-8-54C55 169 231 51 449 51c217 0 393 118 393 263z" style="clip-path:url(#SVGID_2_);fill:#312d8e"/><path d="M840 314a181 181 0 0 1-24 91v-4H81v4a208 208 0 0 1-16-38c-5-17-8-34-8-53C57 169 232 52 449 52c216 0 391 117 391 262z" style="clip-path:url(#SVGID_2_);fill:#322e8f"/><path d="M838 314a180 180 0 0 1-24 90v-3H83v3a206 206 0 0 1-16-37c-5-17-8-35-8-53C59 170 233 53 449 53c215 0 389 117 389 261z" style="clip-path:url(#SVGID_2_);fill:#322f90"/><path d="M836 314a179 179 0 0 1-23 90v-3H84v3a207 207 0 0 1-15-37c-6-17-8-35-8-53C61 171 234 54 449 54c214 0 387 117 387 260z" style="clip-path:url(#SVGID_2_);fill:#333091"/><path d="M835 314a178 178 0 0 1-24 89v-2H86v2a212 212 0 0 1-16-36c-5-17-8-35-8-53C62 171 235 55 449 55c213 0 386 116 386 259z" style="clip-path:url(#SVGID_2_);fill:#333192"/><path d="M833 314a177 177 0 0 1-24 89v-2H87v2a200 200 0 0 1-15-37c-5-16-8-34-8-52C64 172 236 57 449 57c212 0 384 115 384 257z" style="clip-path:url(#SVGID_2_);fill:#343293"/><path d="M831 314a177 177 0 0 1-23 89v-2H89v2a201 201 0 0 1-15-37c-5-17-8-34-8-52C66 173 237 58 449 58c211 0 382 115 382 256z" style="clip-path:url(#SVGID_2_);fill:#343394"/><path d="M829 314a176 176 0 0 1-23 88v-1H91v1a203 203 0 0 1-16-36c-5-17-7-34-7-52C68 173 238 59 449 59c210 0 380 114 380 255z" style="clip-path:url(#SVGID_2_);fill:#353495"/><path d="M828 314a175 175 0 0 1-23 88v-1H92v1a201 201 0 0 1-15-36c-5-17-8-34-8-52C69 174 239 60 449 60c209 0 379 114 379 254z" style="clip-path:url(#SVGID_2_);fill:#353596"/><path d="M826 314a174 174 0 0 1-23 87H94a202 202 0 0 1-15-36c-5-16-8-33-8-51C71 175 240 61 449 61s377 114 377 253z" style="clip-path:url(#SVGID_2_);fill:#363697"/><path d="M824 314a173 173 0 0 1-23 87H96a200 200 0 0 1-15-36c-5-16-8-33-8-51C73 175 241 63 449 63c207 0 375 112 375 251z" style="clip-path:url(#SVGID_2_);fill:#363798"/><path d="M822 314a172 172 0 0 1-26 92v-5H101v5a182 182 0 0 1-26-92C75 176 242 64 449 64s373 112 373 250z" style="clip-path:url(#SVGID_2_);fill:#373899"/><path d="M820 314a172 172 0 0 1-25 92v-5H102v5a202 202 0 0 1-18-41c-5-17-7-33-7-51C77 177 243 65 449 65c205 0 371 112 371 249z" style="clip-path:url(#SVGID_2_);fill:#38399a"/><path d="M819 314a171 171 0 0 1-26 92v-5H104v4a200 200 0 0 1-18-41c-5-16-8-32-8-50C78 177 244 66 449 66s370 111 370 248z" style="clip-path:url(#SVGID_2_);fill:#383a9b"/><path d="M817 314a170 170 0 0 1-26 91v-4H106v4a198 198 0 0 1-18-41c-5-16-8-32-8-50C80 178 245 67 449 67c203 0 368 111 368 247z" style="clip-path:url(#SVGID_2_);fill:#393b9c"/><path d="M815 314a169 169 0 0 1-25 91v-4H107v4a184 184 0 0 1-25-91C82 179 246 68 449 69s366 110 366 245z" style="clip-path:url(#SVGID_2_);fill:#393c9d"/><path d="M813 314a168 168 0 0 1-25 90v-3H109v3a195 195 0 0 1-18-40c-5-16-7-33-7-50C84 179 247 70 449 70c201 0 364 109 364 244z" style="clip-path:url(#SVGID_2_);fill:#3a3d9d"/><path d="M812 314a168 168 0 0 1-26 90v-3H111v3a219 219 0 0 1-18-40c-5-16-8-33-8-50C85 180 248 71 449 71s363 109 363 243z" style="clip-path:url(#SVGID_2_);fill:#3a3e9e"/><path d="M810 314a167 167 0 0 1-25 89v-2H112v2a202 202 0 0 1-18-40c-4-16-7-32-7-49C87 181 249 72 449 72c199 0 361 109 361 242z" style="clip-path:url(#SVGID_2_);fill:#3b3f9f"/><path d="M808 314a166 166 0 0 1-25 89v-2H114v2a215 215 0 0 1-18-40c-5-16-7-32-7-49C89 181 250 73 449 73s359 108 359 241z" style="clip-path:url(#SVGID_2_);fill:#3b40a0"/><path d="M806 314c0 34-10 65-28 94v-7H119v7c-18-29-28-60-28-94C91 182 251 74 448 74c198 0 358 108 358 240z" style="clip-path:url(#SVGID_2_);fill:#3c41a1"/><path d="M805 314c0 33-10 65-28 93v-6H120v6c-18-28-28-60-28-93C92 183 252 76 449 76c196 0 356 107 356 238z" style="clip-path:url(#SVGID_2_);fill:#3c42a2"/><path d="M803 314c0 33-10 65-28 93v-6H122v6c-18-28-28-60-28-93C94 183 253 77 449 77c195 0 354 106 354 237z" style="clip-path:url(#SVGID_2_);fill:#3d43a3"/><path d="M801 314c0 33-10 64-28 92v-5H124v5c-18-28-28-59-28-92C96 184 254 78 449 78c194 0 352 106 352 236z" style="clip-path:url(#SVGID_2_);fill:#3d44a4"/><path d="M799 314c0 33-10 64-27 92v-5H125v5c-17-28-27-59-27-92C98 184 255 79 449 79c193 0 350 106 350 235z" style="clip-path:url(#SVGID_2_);fill:#3e45a5"/><path d="M798 314c0 33-10 64-28 92v-5H127v5c-18-28-28-59-28-92C99 185 256 80 449 80c192 0 349 105 349 234z" style="clip-path:url(#SVGID_2_);fill:#3e46a5"/><path d="M796 314c0 33-10 63-28 91v-4H129v4c-18-28-28-58-28-91 0-128 156-232 348-232 191 0 347 104 347 232z" style="clip-path:url(#SVGID_2_);fill:#3f47a6"/><path d="M794 314c0 32-10 63-27 91v-4H130v4c-17-28-27-59-27-91 0-128 155-231 346-231 190 0 345 103 345 231z" style="clip-path:url(#SVGID_2_);fill:#3f48a7"/><path d="M792 314c0 32-9 63-27 90v-3H132v3c-18-27-27-58-27-90 0-127 154-230 343-230s344 103 344 230z" style="clip-path:url(#SVGID_2_);fill:#4049a8"/><path d="M790 314c0 32-9 62-26 90v-3H133v3c-17-28-26-58-26-90 0-126 153-229 342-229 188 0 341 103 341 229z" style="clip-path:url(#SVGID_2_);fill:#4049a9"/><path d="M789 314c0 32-10 62-27 89v-2H135v2c-17-27-27-57-27-89 0-126 153-228 341-228 187 0 340 102 340 228z" style="clip-path:url(#SVGID_2_);fill:#404aa9"/><path d="M787 314c0 32-10 62-27 89v-2H137v2c-17-27-27-57-27-89 0-125 152-227 339-227 186 0 338 102 338 227z" style="clip-path:url(#SVGID_2_);fill:#414baa"/><path d="M785 314c0 32-9 61-26 88v-1H138v1c-17-27-26-56-26-88 0-124 151-225 337-225 185 0 336 101 336 225z" style="clip-path:url(#SVGID_2_);fill:#414cab"/><path d="M783 314c0 31-9 61-26 88v-1H140v1c-17-27-26-57-26-88 0-124 150-224 335-224 184 0 334 100 334 224z" style="clip-path:url(#SVGID_2_);fill:#424dac"/><path d="M782 314c0 31-10 61-27 87H142c-17-26-27-56-27-87 0-123 150-223 334-223s333 100 333 223z" style="clip-path:url(#SVGID_2_);fill:#424ead"/><path d="M780 314a161 161 0 0 1-29 92v-5H146v5l-3-5c-17-27-26-56-26-87 0-122 148-222 332-222 183 0 331 100 331 222z" style="clip-path:url(#SVGID_2_);fill:#434fad"/><path d="M778 314a160 160 0 0 1-29 91v-4H148v4l-3-5c-17-26-26-55-26-86 0-122 147-221 330-221 182 0 329 99 329 221z" style="clip-path:url(#SVGID_2_);fill:#434fae"/><path d="M776 314a159 159 0 0 1-29 91v-4H150v4l-4-5c-16-26-25-55-25-86 0-121 146-219 328-219 181 0 327 98 327 219z" style="clip-path:url(#SVGID_2_);fill:#4450af"/><path d="M775 314a158 158 0 0 1-29 90v-3H151v3a170 170 0 0 1-29-90c0-120 146-218 326-218 181 0 327 98 327 218z" style="clip-path:url(#SVGID_2_);fill:#4451b0"/><path d="M773 314a158 158 0 0 1-29 90v-3H153v3l-3-5c-17-26-26-55-26-85 0-120 145-217 325-217s324 97 324 217z" style="clip-path:url(#SVGID_2_);fill:#4452b0"/><path d="M771 314a157 157 0 0 1-28 89v-2H154v2l-3-4c-16-26-25-55-25-85 0-119 144-216 323-216 178 0 322 97 322 216z" style="clip-path:url(#SVGID_2_);fill:#4553b1"/><path d="M769 314a156 156 0 0 1-31 94v-7H159v7l-6-10c-16-26-25-54-25-84 0-118 143-215 321-215 177 0 320 97 320 215z" style="clip-path:url(#SVGID_2_);fill:#4553b2"/><path d="M767 314a155 155 0 0 1-31 93v-6H161v6l-6-9c-17-26-26-54-26-84 0-118 143-214 319-214 177 0 320 96 319 214z" style="clip-path:url(#SVGID_2_);fill:#4554b2"/><path d="M766 314a154 154 0 0 1-32 93v-6H163v6l-7-10c-16-25-25-53-25-83 0-117 142-212 318-212 175 0 317 95 317 212z" style="clip-path:url(#SVGID_2_);fill:#4655b3"/><path d="M764 314a153 153 0 0 1-31 92v-5H164v5l-6-9c-16-26-25-53-25-83 0-116 141-211 315-211 175 0 316 95 316 211z" style="clip-path:url(#SVGID_2_);fill:#4655b4"/><path d="M762 314a152 152 0 0 1-31 92v-5H166v5l-7-10c-15-25-24-53-24-82 0-116 140-210 313-210 174 0 314 94 314 210z" style="clip-path:url(#SVGID_2_);fill:#4656b4"/><path class="st85" d="M760 314a152 152 0 0 1-30 91v-4H167v4l-6-9c-16-25-24-53-24-82 0-115 139-209 311-209 173 0 312 94 312 209z"/><path class="st85" d="M759 314a151 151 0 0 1-31 91v-4H169v4l-6-10c-16-24-25-52-25-81 0-114 139-208 311-208 171 0 310 94 310 208z"/><path class="st85" d="M757 314a150 150 0 0 1-31 90v-3H170v3l-6-9c-15-25-24-52-24-81 0-114 138-206 308-206s309 92 309 206z"/><path d="M753 314a148 148 0 0 1-30 89v-2H174v2l-7-9c-15-24-24-51-24-80 1-113 137-204 305-204s305 91 305 204z" style="clip-path:url(#SVGID_2_);fill:#4658b5"/><path d="M750 314a147 147 0 0 1-30 88v-1H177v1l-6-9c-16-24-24-51-24-79 0-111 135-202 302-202s301 91 301 202z" style="clip-path:url(#SVGID_2_);fill:#4659b6"/><path d="M747 314a145 145 0 0 1-30 87H180l-6-9c-15-24-24-50-24-78 0-110 134-200 299-200s298 90 298 200z" style="clip-path:url(#SVGID_2_);fill:#455ab6"/><path d="M743 314a143 143 0 0 1-32 90v-3H186v3a216 216 0 0 1-9-13c-15-23-23-49-23-77 0-109 132-197 294-197s295 88 295 197z" style="clip-path:url(#SVGID_2_);fill:#445bb7"/><path d="M740 314a142 142 0 0 1-35 94v-7H192v7l-12-18c-15-23-23-49-23-76 0-107 131-195 291-195 161 0 292 88 292 195z" style="clip-path:url(#SVGID_2_);fill:#435cb7"/><path d="M736 314a140 140 0 0 1-34 92v-5H195v5l-12-16c-14-24-22-49-22-76 0-106 129-193 287-193 159 0 288 87 288 193z" style="clip-path:url(#SVGID_2_);fill:#435db8"/><path d="M733 314a138 138 0 0 1-34 91v-4H198v4l-12-16c-14-23-22-48-22-75 0-105 127-190 284-190 158 0 285 85 285 190z" style="clip-path:url(#SVGID_2_);fill:#425eb8"/><path d="M729 314a137 137 0 0 1-33 90v-3H201v3l-11-16c-15-23-23-48-23-74 0-104 126-188 281-188 156 0 281 84 281 188z" style="clip-path:url(#SVGID_2_);fill:#415fb8"/><path d="M726 314a135 135 0 0 1-33 89v-2H204v2l-11-16c-14-22-22-47-22-73 0-102 124-186 277-186 154 0 278 84 278 186z" style="clip-path:url(#SVGID_2_);fill:#405fb9"/><path d="M723 314a133 133 0 0 1-33 88v-1H207v1l-11-16c-14-22-22-46-22-72 0-101 123-183 275-183 151 0 274 82 274 183z" style="clip-path:url(#SVGID_2_);fill:#4060b9"/><path d="M719 314a132 132 0 0 1-32 87H214v4a162 162 0 0 1-15-20c-14-22-21-45-21-71 0-100 121-181 271-181 149 0 270 81 270 181z" style="clip-path:url(#SVGID_2_);fill:#3f61ba"/><path d="M716 314a130 130 0 0 1-32 86l-7 7v-6H220v6a180 180 0 0 1-18-23c-13-21-21-45-21-70 0-99 120-179 267-179 148 0 268 80 268 179z" style="clip-path:url(#SVGID_2_);fill:#3e62ba"/><path d="M712 314a128 128 0 0 1-31 85l-7 7v-5H223v5a175 175 0 0 1-18-23c-13-21-20-44-20-69 0-97 118-177 264-177 145 0 263 80 263 177z" style="clip-path:url(#SVGID_2_);fill:#3d63bb"/><path d="M709 314a127 127 0 0 1-32 84l-6 7v-4H226v4a164 164 0 0 1-17-23c-14-20-21-43-21-68 0-96 117-174 260-174 144 0 261 78 261 174z" style="clip-path:url(#SVGID_2_);fill:#3c64bb"/><path d="M706 314a125 125 0 0 1-32 83l-6 7v-3H229v3a173 173 0 0 1-17-22c-13-21-21-44-21-68 0-95 116-172 257-172s258 77 258 172z" style="clip-path:url(#SVGID_2_);fill:#3c65bc"/><path d="M702 314a123 123 0 0 1-31 82l-6 7v-2H232v2a176 176 0 0 1-17-22c-13-21-20-43-20-67 0-94 113-170 253-170s254 77 254 170z" style="clip-path:url(#SVGID_2_);fill:#3b66bc"/><path d="M699 314a122 122 0 0 1-31 80c-1 3-3 5-6 7H235a164 164 0 0 1-17-21c-13-20-20-42-20-66 0-92 112-167 250-167 139 0 251 75 251 167z" style="clip-path:url(#SVGID_2_);fill:#3a67bc"/><path d="M695 314c0 23-7 45-19 65-6 10-14 19-23 28v-6H244v6c-9-9-17-18-23-28-12-20-19-42-19-65 0-91 110-165 246-165s247 74 247 165z" style="clip-path:url(#SVGID_2_);fill:#3968bd"/><path d="M692 314c0 23-7 44-19 64-6 10-14 19-23 28v-5H247v5c-9-9-17-18-23-28-12-20-19-41-19-64 0-90 109-163 243-163 135 0 244 73 244 163z" style="clip-path:url(#SVGID_2_);fill:#3969bd"/><path d="M688 314c0 23-6 44-18 63-7 10-14 19-23 27v-3H250v3c-9-8-16-17-23-27-12-19-18-40-18-63 0-88 107-160 239-160s240 72 240 160z" style="clip-path:url(#SVGID_2_);fill:#386abe"/><path d="M685 314c0 22-7 43-19 62-6 10-13 19-21 27v-2H252v2c-8-8-15-17-21-27-12-19-19-40-19-62 0-87 106-158 236-158 131 0 237 71 237 158z" style="clip-path:url(#SVGID_2_);fill:#376bbe"/><path d="M682 314c0 22-7 43-19 61-6 10-13 19-21 27v-1H255v1c-8-9-15-17-21-27-12-18-19-39-19-61 0-86 105-156 234-156 128 0 233 70 233 156z" style="clip-path:url(#SVGID_2_);fill:#366cbf"/><path d="M678 314c0 22-6 42-18 60a149 149 0 0 1-28 33v-6H264v6a176 176 0 0 1-27-33c-12-18-18-38-18-60 0-85 103-154 229-154 127 0 230 69 230 154z" style="clip-path:url(#SVGID_2_);fill:#356dbf"/><path d="M675 314c0 21-7 41-18 59a147 147 0 0 1-27 32v-4H267v4a179 179 0 0 1-27-32c-11-18-18-38-18-59 0-83 102-151 226-151 125 0 227 68 227 151z" style="clip-path:url(#SVGID_2_);fill:#356ec0"/><path d="M671 314c0 21-6 41-17 59a145 145 0 0 1-27 31v-3H270v3a165 165 0 0 1-27-31c-11-18-17-38-17-59 0-82 99-149 222-149 124 0 223 67 223 149z" style="clip-path:url(#SVGID_2_);fill:#346fc0"/><path d="M668 314c0 21-6 40-17 58a143 143 0 0 1-27 30v-1H273v1a168 168 0 0 1-27-30c-11-18-17-37-17-58 0-81 98-147 219-147 122 0 220 66 220 147z" style="clip-path:url(#SVGID_2_);fill:#3370c1"/><path d="M664 314c0 20-6 39-17 57a140 140 0 0 1-32 36v-6H282v6a170 170 0 0 1-32-36c-11-18-17-37-17-57 0-80 96-144 215-144 120 0 216 64 216 144z" style="clip-path:url(#SVGID_2_);fill:#3271c1"/><path d="M661 314c0 20-6 39-17 56a138 138 0 0 1-32 35v-4H285v4a166 166 0 0 1-32-35c-11-17-17-36-17-56 0-78 95-142 212-142 118 0 213 64 213 142z" style="clip-path:url(#SVGID_2_);fill:#3172c1"/><path d="M658 314c0 20-6 38-17 55a136 136 0 0 1-31 35v-3H287v3a161 161 0 0 1-31-35c-11-17-17-35-17-55 0-77 94-140 210-140 115 0 209 63 209 140z" style="clip-path:url(#SVGID_2_);fill:#3173c2"/><path d="M654 314c0 19-6 38-16 54a134 134 0 0 1-31 34v-1H290v1a162 162 0 0 1-31-34c-10-16-16-35-16-54 0-76 92-137 205-137s206 61 206 137z" style="clip-path:url(#SVGID_2_);fill:#3074c2"/><path d="M651 314c0 19-6 37-16 53a132 132 0 0 1-37 39v-5H299v5a178 178 0 0 1-18-16c-7-7-14-15-19-23a98 98 0 0 1-16-53c0-74 91-135 202-135 112 0 203 61 203 135z" style="clip-path:url(#SVGID_2_);fill:#2f75c3"/><path d="M647 314c0 19-5 36-15 52a129 129 0 0 1-36 38v-3H301v3a170 170 0 0 1-17-15c-7-7-14-15-19-23a97 97 0 0 1-15-52c0-73 89-133 198-133 110 0 199 60 199 133z" style="clip-path:url(#SVGID_2_);fill:#2e76c3"/><path d="M644 314c0 37-22 69-57 93v-6H310v6c-35-24-57-56-57-93 0-72 88-131 195-131 108 0 196 59 196 131z" style="clip-path:url(#SVGID_2_);fill:#2d77c4"/><path d="M640 314c0 36-21 68-56 91v-4H313v4c-35-23-56-55-56-91 0-71 86-128 191-128 106 0 192 57 192 128z" style="clip-path:url(#SVGID_2_);fill:#2d78c4"/><path d="M637 314c0 35-21 67-55 90v-3H315v3c-34-23-55-55-55-90 0-69 84-126 189-126 104 0 188 57 188 126z" style="clip-path:url(#SVGID_2_);fill:#2c79c5"/><path d="M634 314c0 35-21 66-55 88v-1H318v1c-34-22-55-53-55-88 0-68 83-124 185-124 103 0 186 56 186 124z" style="clip-path:url(#SVGID_2_);fill:#2b7ac5"/><path d="M630 314c0 34-20 65-53 87l-6 4v-4H326v4l-6-4c-33-22-53-53-53-87 0-67 81-121 181-121s182 54 182 121z" style="clip-path:url(#SVGID_2_);fill:#2a7bc6"/><path d="M627 314c0 33-20 63-53 85l-12 8v-6H335v6l-13-8c-32-22-52-52-52-85 0-66 80-119 178-119 99 0 179 53 179 119z" style="clip-path:url(#SVGID_2_);fill:#297cc6"/><path d="M623 314c0 33-19 62-51 83l-12 8v-4H337v4l-12-8c-32-21-51-50-51-83 0-64 78-117 174-117s175 53 175 117z" style="clip-path:url(#SVGID_2_);fill:#297dc7"/><path d="M620 314c0 32-19 61-50 82l-13 7v-2H339v2l-12-7c-31-21-50-50-50-82 0-63 77-114 171-114 95 0 172 51 172 114z" style="clip-path:url(#SVGID_2_);fill:#287ec7"/><path d="M616 314c0 32-18 60-49 80l-25 14v-7H355v7l-25-14c-31-20-49-48-49-80 0-62 75-112 167-112s168 50 168 112z" style="clip-path:url(#SVGID_2_);fill:#277fc7"/><path d="M613 314c0 31-18 58-48 78l-25 14v-5H357v5l-25-14c-30-20-48-47-48-78 0-60 74-110 165-110 90 0 164 50 164 110z" style="clip-path:url(#SVGID_2_);fill:#2681c8"/><path d="M610 314c0 30-18 57-48 77l-23 13v-3H358v3l-23-13c-30-20-48-47-48-77 0-59 73-108 161-108 89 0 162 49 162 108z" style="clip-path:url(#SVGID_2_);fill:#2582c8"/><path d="M606 314c0 30-18 56-46 75l-23 13v-1H360v1l-23-13c-29-19-46-45-46-75 0-58 70-105 157-105 88 0 158 47 158 105z" style="clip-path:url(#SVGID_2_);fill:#2583c9"/><path d="M603 314c0 29-18 55-45 74a159 159 0 0 1-36 17v-4H375v4a178 178 0 0 1-36-17c-27-19-45-45-45-74 0-57 69-103 154-103 86 0 155 46 155 103z" style="clip-path:url(#SVGID_2_);fill:#2484c9"/><path d="M599 314c0 28-17 54-44 72-14 9-30 17-48 22v-7H390v7c-18-5-34-13-48-22-27-18-44-44-44-72 0-55 67-101 150-101 84 0 151 46 151 101z" style="clip-path:url(#SVGID_2_);fill:#2385ca"/><path d="M596 314c0 28-17 52-43 70-14 9-30 17-47 22v-5H391v5c-18-5-33-13-47-22-26-18-43-42-43-70 0-54 66-98 147-98 82 0 148 44 148 98z" style="clip-path:url(#SVGID_2_);fill:#2286ca"/><path d="M592 314c0 27-16 51-42 69-13 8-28 16-45 20v-2H392v2c-17-5-32-12-45-20-26-18-42-42-42-69 0-53 64-96 143-96 80 0 144 43 144 96z" style="clip-path:url(#SVGID_2_);fill:#2187cb"/><path d="M589 314c0 26-16 50-41 67-13 9-28 16-45 20H394c-17-4-32-11-45-20-25-17-41-41-41-67 0-52 63-94 140-94 78 0 141 42 141 94z" style="clip-path:url(#SVGID_2_);fill:#2188cb"/><ellipse cx="448.5" cy="314.4" rx="137.1" ry="91.9" style="clip-path:url(#SVGID_2_);fill:#2089cc"/><ellipse cx="448.5" cy="314.4" rx="133.7" ry="89.7" style="clip-path:url(#SVGID_2_);fill:#1f8acc"/><ellipse cx="448.5" cy="314.4" rx="130.2" ry="87.3" style="clip-path:url(#SVGID_2_);fill:#1e8bcd"/><ellipse cx="448.5" cy="314.4" rx="126.8" ry="85" style="clip-path:url(#SVGID_2_);fill:#1d8ccd"/><ellipse cx="448.5" cy="314.4" rx="123.4" ry="82.8" style="clip-path:url(#SVGID_2_);fill:#1d8dcd"/><ellipse cx="448.5" cy="314.4" rx="119.9" ry="80.5" style="clip-path:url(#SVGID_2_);fill:#1c8ece"/><ellipse cx="448.5" cy="314.4" rx="116.5" ry="78.2" style="clip-path:url(#SVGID_2_);fill:#1b8fce"/><ellipse cx="448.5" cy="314.4" rx="113.1" ry="75.8" style="clip-path:url(#SVGID_2_);fill:#1a90cf"/><ellipse cx="448.5" cy="314.4" rx="109.7" ry="73.5" style="clip-path:url(#SVGID_2_);fill:#1991cf"/><ellipse cx="448.5" cy="314.4" rx="106.2" ry="71.3" style="clip-path:url(#SVGID_2_);fill:#1992d0"/><ellipse cx="448.5" cy="314.4" rx="102.8" ry="69" style="clip-path:url(#SVGID_2_);fill:#1893d0"/><ellipse cx="448.5" cy="314.4" rx="99.4" ry="66.7" style="clip-path:url(#SVGID_2_);fill:#1794d1"/><ellipse cx="448.5" cy="314.4" rx="96" ry="64.4" style="clip-path:url(#SVGID_2_);fill:#1695d1"/><ellipse cx="448.5" cy="314.4" rx="92.5" ry="62.1" style="clip-path:url(#SVGID_2_);fill:#1596d2"/><ellipse cx="448.5" cy="314.4" rx="89.1" ry="59.8" style="clip-path:url(#SVGID_2_);fill:#1497d2"/><ellipse cx="448.5" cy="314.4" rx="85.7" ry="57.5" style="clip-path:url(#SVGID_2_);fill:#1498d3"/><ellipse cx="448.5" cy="314.4" rx="82.2" ry="55.2" style="clip-path:url(#SVGID_2_);fill:#1399d3"/><ellipse cx="448.5" cy="314.4" rx="78.8" ry="52.9" style="clip-path:url(#SVGID_2_);fill:#129ad4"/><ellipse cx="448.5" cy="314.4" rx="75.4" ry="50.6" style="clip-path:url(#SVGID_2_);fill:#119bd4"/><ellipse cx="448.5" cy="314.4" rx="72" ry="48.3" style="clip-path:url(#SVGID_2_);fill:#109cd5"/><ellipse cx="448.5" cy="314.4" rx="68.5" ry="46" style="clip-path:url(#SVGID_2_);fill:#109dd5"/><ellipse cx="448.5" cy="314.4" rx="65.1" ry="43.7" style="clip-path:url(#SVGID_2_);fill:#0f9ed5"/><ellipse cx="448.5" cy="314.4" rx="61.7" ry="41.4" style="clip-path:url(#SVGID_2_);fill:#0e9fd6"/><ellipse cx="448.5" cy="314.4" rx="58.3" ry="39.1" style="clip-path:url(#SVGID_2_);fill:#0da0d6"/><ellipse cx="448.5" cy="314.4" rx="54.8" ry="36.8" style="clip-path:url(#SVGID_2_);fill:#0ca1d7"/><ellipse cx="448.5" cy="314.4" rx="51.4" ry="34.5" style="clip-path:url(#SVGID_2_);fill:#0ba2d7"/><ellipse cx="448.5" cy="314.4" rx="48" ry="32.2" style="clip-path:url(#SVGID_2_);fill:#0ba3d8"/><ellipse cx="448.5" cy="314.4" rx="44.5" ry="29.9" style="clip-path:url(#SVGID_2_);fill:#0aa5d8"/><ellipse cx="448.5" cy="314.4" rx="41.1" ry="27.6" style="clip-path:url(#SVGID_2_);fill:#09a6d9"/><ellipse cx="448.5" cy="314.4" rx="37.7" ry="25.3" style="clip-path:url(#SVGID_2_);fill:#08a7d9"/><ellipse cx="448.5" cy="314.4" rx="34.3" ry="23" style="clip-path:url(#SVGID_2_);fill:#07a8da"/><ellipse cx="448.5" cy="314.4" rx="30.8" ry="20.7" style="clip-path:url(#SVGID_2_);fill:#07a9da"/><ellipse cx="448.5" cy="314.4" rx="27.4" ry="18.4" style="clip-path:url(#SVGID_2_);fill:#06aadb"/><ellipse cx="448.5" cy="314.4" rx="24" ry="16.1" style="clip-path:url(#SVGID_2_);fill:#05abdb"/><ellipse cx="448.5" cy="314.4" rx="20.6" ry="13.8" style="clip-path:url(#SVGID_2_);fill:#04acdc"/><ellipse cx="448.5" cy="314.4" rx="17.1" ry="11.5" style="clip-path:url(#SVGID_2_);fill:#03addc"/><ellipse cx="448.5" cy="314.4" rx="13.7" ry="9.2" style="clip-path:url(#SVGID_2_);fill:#02aedd"/><path d="M459 314c0 4-5 7-11 7-5 0-10-3-10-7 0-3 5-6 10-6s11 3 11 6z" style="clip-path:url(#SVGID_2_);fill:#02afdd"/><ellipse cx="448.5" cy="314.4" rx="6.8" ry="4.6" style="clip-path:url(#SVGID_2_);fill:#01b0de"/><path d="M452 314c0 2-2 3-4 3-1 0-3-1-3-3l3-2 4 2z" style="clip-path:url(#SVGID_2_);fill:#00b1de"/><g><path class="st175" d="M233 112a1 1 0 1 1-3 0 1 1 0 0 1 3 0z"/><circle class="st175" cx="195.3" cy="24.6" r="1.4"/><path class="st175" d="M185 37a1 1 0 1 1-3 0 1 1 0 0 1 3 0zM130 86a1 1 0 1 1-2 0 1 1 0 0 1 2 0zM68 34a1 1 0 1 1-3 0 1 1 0 0 1 3 0zM73 78a1 1 0 1 1-2 0 1 1 0 0 1 2 0zM231 86a1 1 0 1 1-2 0 1 1 0 0 1 2 0zM129 61a1 1 0 1 1-3 0 1 1 0 0 1 3 0z"/><circle class="st175" cx="250.1" cy="118.2" r="1"/><circle class="st175" cx="113.3" cy="85.9" r="1"/><circle class="st175" cx="209.7" cy="103.4" r="1"/><circle class="st175" cx="258.8" cy="47" r="1"/><circle class="st175" cx="259.5" cy="89.1" r="1"/><path class="st175" d="M203 92h-1v-1l1 1z"/><circle class="st175" cx="153.6" cy="81" r=".7"/><path class="st175" d="M89 102v1l-1-1 1-1v1zM89 86h-1l1-1v1zM103 43h-2l1-1 1 1zM234 107zM208 103h-1 1zM208 114v-1 1zM214 111h-1 1zM202 113h-1 1zM65 129h-1 1zM239 77l-1-1 1 1z"/><circle class="st175" cx="215.6" cy="103.6" r=".2"/><path class="st175" d="M155 156zM160 104h-1 1zM107 101h-1v-1l1 1z"/><circle class="st175" cx="186.4" cy="100.3" r=".2"/><circle class="st175" cx="153.6" cy="102.4" r=".2"/><path class="st175" d="M74 104h-1v-1l1 1z"/><circle class="st175" cx="64.8" cy="102.9" r=".2"/><path class="st175" d="M212 107v1-1zM168 108v-1 1zM106 108v1-1zM214 100h-1 1z"/><circle class="st175" cx="192.1" cy="99.4" r=".5"/><circle class="st175" cx="103.3" cy="79.6" r=".5"/><path class="st175" d="M202 43h-1 1z"/><circle class="st175" cx="183.5" cy="12.9" r=".5"/><path class="st175" d="M177 115h-1 1zM101 79h-1 1z"/><circle class="st175" cx="93.2" cy="51.9" r=".5"/><circle class="st175" cx="75.3" cy="52.4" r=".5"/><path class="st175" d="M134 26h-1 1z"/><circle class="st175" cx="172.6" cy="13.8" r=".5"/><circle class="st175" cx="87.3" cy="83.1" r=".5"/><path class="st175" d="M75 51h-1 1zM101 51h-1 1zM142 32h-1 1zM186 77h-1 1z"/><circle class="st175" cx="108.2" cy="44.9" r=".5"/><path class="st175" d="M64 36h-1 1z"/><circle class="st175" cx="177.6" cy="55.7" r=".5"/><circle class="st175" cx="107.2" cy="20.7" r=".5"/><path class="st175" d="M210 75h-1 1zM547 97h1v1h-1v-1z"/><circle class="st175" cx="260.5" cy="41.6" r="1.4"/><circle class="st175" cx="301.1" cy="57.5" r="1.4"/><path class="st175" d="M309 20h1v1h-1v-1zM552 110h1v1h-1v-1z"/><circle class="st175" cx="282.4" cy="34.4" r="1"/><path class="st175" d="M551 118v1-1zM544 99c1 0 1 0 0 0z"/><circle class="st175" cx="553.7" cy="111.8" r=".3"/><path class="st175" d="M558 107zM554 106h1-1zM288 58h1v1h-1v-1zM550 108h1-1z"/><circle class="st175" cx="561.2" cy="121.5" r=".1"/><circle class="st175" cx="263.4" cy="16" r=".2"/><path class="st175" d="M553 108h1-1zM550 110v1-1z"/><circle class="st175" cx="558.5" cy="119.5" r=".3"/><circle class="st175" cx="244.4" cy="16.5" r=".5"/><circle class="st175" cx="551.8" cy="131.3" r=".3"/><circle class="st175" cx="307.3" cy="79.8" r=".5"/><path class="st175" d="M580 112h1v1h-1v-1z"/><circle class="st175" cx="620.5" cy="96.2" r=".8"/><path class="st175" d="M596 100h2v1h-2v-1z"/><circle class="st175" cx="569.9" cy="124.4" r=".8"/><path class="st175" d="M572 132h1v2h-1v-2zM575 102v1c-1 0 0 0 0 0v-1zM607 87h1v1h-1v-1zM602 92h1-1c-1-1 0 0 0 0z"/><circle class="st175" cx="585.5" cy="125.6" r=".6"/><path class="st175" d="M558 110h1v1h-1v-1z"/><circle class="st175" cx="583.7" cy="133.4" r=".4"/><circle class="st175" cx="587.1" cy="141.8" r=".4"/><circle class="st175" cx="570.7" cy="130.8" r=".4"/><circle class="st175" cx="545.8" cy="146.6" r=".4"/><circle class="st175" cx="576.9" cy="114" r=".3"/><path class="st175" d="M586 127h1-1zM572 130h1v1h-1v-1z"/><circle class="st175" cx="603.3" cy="124.4" r=".3"/><path class="st175" d="M611 122h1v1h-1v-1zM591 122c-1 0-1 0 0 0zM292 45h1c0 1 0 0 0 0h-1zM627 88zM587 121c0-1 0-1 0 0zM562 125h1-1c-1 0 0 0 0 0z"/><circle class="st175" cx="238.1" cy="41.6" r=".5"/><path class="st175" d="M583 123zM561 127h1v1h-1v-1zM565 125z"/><circle class="st175" cx="306.6" cy="42.7" r=".2"/><path class="st175" d="M594 136v1-1zM594 146z"/><circle class="st175" cx="253.5" cy="99.1" r=".2"/><path class="st175" d="M589 146zM589 144v1-1z"/><circle class="st175" cx="571.6" cy="132" r=".1"/><path class="st175" d="M586 123zM571 130z"/><circle class="st175" cx="582.4" cy="125.4" r=".3"/><path class="st175" d="M565 130h1-1zM569 130h1c1 0 0 0 0 0h-1z"/><circle class="st175" cx="249.1" cy="54" r=".5"/><circle class="st175" cx="257.2" cy="38.8" r="1"/><path class="st175" d="M266 33h1-1z"/><circle class="st175" cx="259.9" cy="30.6" r=".5"/><circle class="st175" cx="253.3" cy="34.5" r=".2"/><circle class="st175" cx="258.5" cy="34.3" r=".2"/><circle class="st175" cx="252" cy="38.6" r=".5"/><circle class="st175" cx="591.2" cy="134.5" r=".3"/><path class="st175" d="M624 109v1-1zM617 135z"/><circle class="st175" cx="579.5" cy="144.3" r=".3"/><circle class="st175" cx="627.6" cy="107" r=".3"/><circle class="st175" cx="282" cy="94.3" r="1"/><circle class="st175" cx="283.4" cy="64" r="1"/><circle class="st175" cx="113.3" cy="96.3" r="1"/><path class="st175" d="M278 107h1v1h-1v-1z"/><circle class="st175" cx="283.6" cy="96.4" r=".5"/><path class="st175" d="M291 88v1-1z"/><circle class="st175" cx="299.7" cy="60.4" r=".5"/><circle class="st175" cx="284.8" cy="86.1" r=".5"/><circle class="st175" cx="278.1" cy="90" r=".2"/><circle class="st175" cx="269.1" cy="109.2" r=".2"/><path class="st175" d="M296 113h1-1zM283 90c0-1 0-1 0 0 1 0 1 0 0 0zM276 94h1-1c-1-1 0 0 0 0z"/><circle class="st175" cx="244.9" cy="93.7" r=".5"/><path class="st175" d="M291 109h1v1h-1v-1z"/><circle class="st175" cx="584.5" cy="146.3" r=".3"/><path class="st175" d="M588 159h1-1zM573 137h1v1h-1v-1z"/></g><g><path class="st176" d="M208 169a2 2 0 1 1-3 0 2 2 0 0 1 3 0zM168 72a2 2 0 1 1-3 0 2 2 0 0 1 3 0zM155 86a2 2 0 1 1-3 0 2 2 0 0 1 3 0zM94 140a2 2 0 1 1-3 0 2 2 0 0 1 3 0zM25 82a2 2 0 1 1-3 0 2 2 0 0 1 3 0zM31 131a2 2 0 1 1-3 0 2 2 0 0 1 3 0zM206 140a2 2 0 1 1-3 0 2 2 0 0 1 3 0zM93 112a2 2 0 1 1-4 0 2 2 0 0 1 4 0zM228 176l-1 1-1-1 1-2 1 2zM76 140l-1 1-1-1 1-1 1 1zM183 159l-1 1-1-1 1-1 1 1zM238 97l-1 1-2-1 2-2 1 2z"/><circle class="st176" cx="237.3" cy="143.2" r="1.1"/><circle class="st176" cx="174.1" cy="146.1" r=".8"/><circle class="st176" cx="119.9" cy="134.2" r=".8"/><path class="st176" d="m49 158-1 1-1-1 1-1 1 1zM49 139l-1 1-1-1 1-1 1 1zM64 92l-1 1-1-1 1-1 1 1z"/><circle class="st176" cx="209" cy="163" r=".5"/><path class="st176" d="M180 159h-1v-1l1 1zM180 171h-1l1-1v1zM187 168h-1v-1l1 1zM173 170h-1l1-1v1zM21 187v1l-1-1h1zM214 130h-1l1-1v1z"/><circle class="st176" cx="188.6" cy="159.3" r=".3"/><path class="st176" d="M74 195v1-1z"/><circle class="st176" cx="126.5" cy="159.6" r=".3"/><circle class="st176" cx="67.6" cy="155.9" r=".3"/><circle class="st176" cx="156.3" cy="155.6" r=".3"/><circle class="st176" cx="119.9" cy="158" r=".3"/><circle class="st176" cx="30.9" cy="159.4" r=".3"/><path class="st176" d="M22 159h-1v-1l1 1z"/><circle class="st176" cx="184.7" cy="163.5" r=".3"/><path class="st176" d="M136 164h-1 1z"/><circle class="st176" cx="67.3" cy="164.6" r=".3"/><circle class="st176" cx="186.4" cy="155.1" r=".5"/><path class="st176" d="M163 155h-1l1-1v1zM65 133h-1v-1l1 1zM173 93h-1l1-1v1zM154 59h-1v-1l1 1z"/><circle class="st176" cx="145.4" cy="172.1" r=".5"/><path class="st176" d="m62 132-1 1v-1h1zM53 102v1l-1-1 1-1v1zM34 103h-1v-1l1 1zM98 73v1l-1-1h1z"/><circle class="st176" cx="140.9" cy="59.8" r=".5"/><path class="st176" d="M47 137h-1v-1l1 1z"/><circle class="st176" cx="32.5" cy="101" r=".5"/><path class="st176" d="M61 101h-1l1-1v1z"/><circle class="st176" cx="106.9" cy="80.1" r=".5"/><circle class="st176" cx="155.8" cy="130.1" r=".5"/><circle class="st176" cx="69.6" cy="94.2" r=".5"/><circle class="st176" cx="19.9" cy="84.4" r=".5"/><circle class="st176" cx="146.5" cy="106.2" r=".5"/><circle class="st176" cx="68.4" cy="67.4" r=".5"/><path class="st176" d="m183 127-1 1v-1h1z"/><circle class="st176" cx="303.1" cy="86.2" r="1.6"/><circle class="st176" cx="238.4" cy="90.5" r="1.6"/><path class="st176" d="M282 107h3v2h-3v-2zM292 66a1 1 0 1 1 2 2 1 1 0 0 1-2-2zM312 110a1 1 0 1 1 2 1 1 1 0 0 1-2-1zM262 82a1 1 0 1 1 2 1 1 1 0 0 1-2-1z"/><circle class="st176" cx="309.5" cy="125.1" r=".8"/><path class="st176" d="M296 88h1v1h-1v-1zM314 112h1v1h-1v-1z"/><circle class="st176" cx="322.9" cy="103.8" r=".5"/><path class="st176" d="M316 101v1-1zM269 109h1c0 1 0 0 0 0h-1z"/><circle class="st176" cx="308.6" cy="105.6" r=".3"/><path class="st176" d="M329 131z"/><circle class="st176" cx="241.7" cy="62.2" r=".3"/><path class="st176" d="M314 105h1v1h-1v-1z"/><circle class="st176" cx="307.2" cy="110.1" r=".5"/><circle class="st176" cx="323.6" cy="127.3" r=".5"/><circle class="st176" cx="220.6" cy="62.7" r=".5"/><path class="st176" d="M311 149v1-1zM290 133h1-1z"/><circle class="st176" cx="364.9" cy="114.6" r="1.6"/><circle class="st176" cx="440.8" cy="83.2" r="1.6"/><circle class="st176" cx="396.4" cy="92.1" r="1.6"/><circle class="st176" cx="345.2" cy="136.5" r="1.6"/><circle class="st176" cx="350" cy="152.7" r="1.6"/><path class="st176" d="M354 95a1 1 0 1 1 2 1 1 1 0 0 1-2-1zM415 66a1 1 0 1 1 2 2 1 1 0 0 1-2-2zM406 75a1 1 0 1 1 2 1 1 1 0 0 1-2-1zM374 138a1 1 0 1 1 1 2 1 1 0 0 1-1-2zM324 110a1 1 0 1 1 1 2 1 1 0 0 1-1-2z"/><circle class="st176" cx="371.3" cy="153.5" r=".8"/><circle class="st176" cx="377.7" cy="169.3" r=".8"/><path class="st176" d="M346 148h1v1h-1v-1zM299 178h1v1h-1v-1zM358 117h1c0 1 0 0 0 0h-1z"/><circle class="st176" cx="376.4" cy="141.1" r=".5"/><path class="st176" d="M350 147h1v1h-1v-1z"/><circle class="st176" cx="408.3" cy="136.5" r=".5"/><path class="st176" d="M424 132v1-1z"/><circle class="st176" cx="384.6" cy="132.2" r=".5"/><path class="st176" d="M274 94v1c-1 1 0 0 0 0v-1zM453 68c0-1 0-1 0 0z"/><circle class="st176" cx="377.7" cy="129.6" r=".5"/><path class="st176" d="M331 137h1v1h-1v-1z"/><circle class="st176" cx="213.7" cy="90.5" r=".5"/><path class="st176" d="M370 134h1-1z"/><circle class="st176" cx="329.4" cy="142.4" r=".3"/><circle class="st176" cx="336.5" cy="137.6" r=".3"/><circle class="st176" cx="289.6" cy="91.8" r=".3"/><circle class="st176" cx="390.6" cy="159.4" r=".3"/><circle class="st176" cx="390.8" cy="177.6" r=".3"/><path class="st176" d="M231 154c0 1 0 1 0 0zM381 178zM380 174h1v1h-1v-1z"/><circle class="st176" cx="348.4" cy="150.9" r=".3"/><circle class="st176" cx="376.1" cy="133.7" r=".3"/><path class="st176" d="M347 147c-1 0-1 0 0 0zM369 138v1-1z"/><circle class="st176" cx="337.2" cy="146.8" r=".5"/><path class="st176" d="M344 147v1-1zM225 104h1v1h-1v-1zM234 87a1 1 0 1 1 2 1 1 1 0 0 1-2-1z"/><circle class="st176" cx="244.7" cy="80.9" r=".5"/><circle class="st176" cx="237.8" cy="78.4" r=".5"/><path class="st176" d="M230 83h1-1z"/><circle class="st176" cx="236.2" cy="82.4" r=".3"/><circle class="st176" cx="229" cy="87.2" r=".5"/><path class="st176" d="M385 155h1v1h-1v-1zM447 108v1-1z"/><circle class="st176" cx="434" cy="156.2" r=".5"/><path class="st176" d="M363 174h1v1h-1v-1zM454 103v1c-1 0 0 0 0 0v-1zM262 148a1 1 0 1 1 1 2 1 1 0 0 1-1-2z"/><circle class="st176" cx="263.8" cy="115.4" r="1.1"/><path class="st176" d="M74 150a1 1 0 1 1 2 2 1 1 0 0 1-2-2z"/><circle class="st176" cx="258.9" cy="163.7" r=".8"/><circle class="st176" cx="264" cy="151.3" r=".5"/><circle class="st176" cx="272.3" cy="142.4" r=".5"/><circle class="st176" cx="281.9" cy="111.5" r=".5"/><circle class="st176" cx="265.3" cy="139.9" r=".5"/><circle class="st176" cx="257.9" cy="144.2" r=".3"/><circle class="st176" cx="248" cy="165.5" r=".3"/><path class="st176" d="M278 169v1-1z"/><circle class="st176" cx="263.7" cy="143.9" r=".3"/><circle class="st176" cx="256.5" cy="148.7" r=".5"/><circle class="st176" cx="221.1" cy="148.4" r=".5"/><circle cx="273" cy="165.9" r=".5" style="fill-rule:evenodd;clip-rule:evenodd;fill:none"/><circle class="st176" cx="372.8" cy="177.8" r=".5"/><circle class="st176" cx="380.1" cy="201.3" r=".5"/><circle class="st176" cx="352.1" cy="161.3" r=".5"/><path class="st176" d="M467 122a2 2 0 1 1-3 0 2 2 0 0 1 3 0zM465 92a2 2 0 1 1-3 0 2 2 0 0 1 3 0zM487 128l-1 1-1-1 1-1 1 1z"/><circle class="st176" cx="441.2" cy="111.6" r="1.1"/><circle class="st176" cx="495.6" cy="49.1" r="1.1"/><path class="st176" d="m498 96-2 1-1-1 1-1 2 1zM434 99h-2l1-1 1 1zM469 116h-1v-1l1 1z"/><circle class="st176" cx="438.3" cy="111.1" r=".5"/><circle class="st176" cx="438.8" cy="123.3" r=".5"/><circle class="st176" cx="445.5" cy="120.1" r=".5"/><path class="st176" d="M432 122v1l-1-1h1z"/><circle class="st176" cx="472.7" cy="82.1" r=".5"/><circle class="st176" cx="447.7" cy="111.8" r=".3"/><path class="st176" d="M444 116z"/><circle class="st176" cx="445.5" cy="107.7" r=".5"/><circle class="st176" cx="431.6" cy="45.1" r=".5"/><path class="st176" d="M442 80h-1v-1l1 1z"/><circle class="st176" cx="562.2" cy="38.8" r="1.6"/><circle class="st176" cx="497.5" cy="43.1" r="1.6"/><circle class="st176" cx="542.5" cy="60.7" r="1.6"/><path class="st176" d="M551 19a1 1 0 1 1 2 1 1 1 0 0 1-2-1zM571 62a1 1 0 1 1 2 2 1 1 0 0 1-2-2zM521 34a1 1 0 1 1 2 2 1 1 0 0 1-2-2zM568 77h1v1h-1v-1zM555 41h1-1z"/><circle class="st176" cx="573.7" cy="65.3" r=".5"/><circle class="st176" cx="582" cy="56.3" r=".5"/><circle class="st176" cx="575" cy="53.8" r=".5"/><circle class="st176" cx="528.9" cy="61.5" r=".5"/><circle class="st176" cx="567.6" cy="58.1" r=".3"/><circle class="st176" cx="587.9" cy="83.6" r=".3"/><path class="st176" d="M501 15c0-1 0-1 0 0-1 0-1 0 0 0z"/><circle class="st176" cx="573.4" cy="57.9" r=".3"/><circle class="st176" cx="566.2" cy="62.6" r=".5"/><path class="st176" d="M582 79h1v1h-1v-1z"/><circle class="st176" cx="479.7" cy="15.2" r=".5"/><circle class="st176" cx="570.2" cy="102" r=".5"/><circle class="st176" cx="549.4" cy="85.5" r=".5"/><circle class="st176" cx="623.9" cy="67.2" r="1.6"/><circle class="st176" cx="699.9" cy="35.8" r="1.6"/><circle class="st176" cx="655.5" cy="44.6" r="1.6"/><path class="st176" d="M603 88h2v2h-2v-2z"/><circle class="st176" cx="609" cy="105.3" r="1.6"/><path class="st176" d="M613 47a1 1 0 1 1 2 2 1 1 0 0 1-2-2zM674 19a1 1 0 1 1 2 1 1 1 0 0 1-2-1zM666 27a1 1 0 1 1 1 2 1 1 0 0 1-1-2zM633 90a1 1 0 1 1 0 2v-2zM583 63a1 1 0 1 1 1 1 1 1 0 0 1-1-1z"/><circle class="st176" cx="630.3" cy="106.1" r=".8"/><path class="st176" d="M636 121h1v1h-1v-1zM605 101h1v1h-1v-1zM558 130h1v1h-1v-1zM617 69h1v1h-1v-1zM635 93h1v1h-1v-1zM609 100h1v1h-1v-1z"/><circle class="st176" cx="667.4" cy="89.1" r=".5"/><circle class="st176" cx="683.2" cy="85.2" r=".5"/><circle class="st176" cx="643.7" cy="84.7" r=".5"/><circle class="st176" cx="533.1" cy="46.7" r=".5"/><circle class="st176" cx="712" cy="20.5" r=".5"/><path class="st176" d="M636 82h1v1h-1v-1z"/><circle class="st176" cx="590.6" cy="89.8" r=".5"/><circle class="st176" cx="472.7" cy="43.1" r=".5"/><circle class="st176" cx="629.4" cy="86.5" r=".3"/><path class="st176" d="M588 95h1-1zM595 90h1-1zM548 44h1v1h-1v-1zM649 112h1-1c-1 0 0 0 0 0zM650 130z"/><circle class="st176" cx="489.8" cy="106.8" r=".3"/><path class="st176" d="M640 130v1-1zM640 127c-1 0-1 0 0 0zM607 103h1v1h-1v-1zM635 86c0 1 0 1 0 0z"/><circle class="st176" cx="605.8" cy="99.6" r=".3"/><path class="st176" d="M628 91c0-1 0-1 0 0 1 0 1 0 0 0 0 1 0 1 0 0z"/><circle class="st176" cx="596.3" cy="99.3" r=".5"/><circle class="st176" cx="603.2" cy="99.9" r=".5"/><circle class="st176" cx="484.8" cy="56.9" r=".5"/><path class="st176" d="M493 39a1 1 0 1 1 2 2 1 1 0 0 1-2-2z"/><circle class="st176" cx="503.8" cy="33.4" r=".5"/><path class="st176" d="M497 31c0-1 0-1 0 0-1 0-1 0 0 0z"/><circle class="st176" cx="489.5" cy="35.2" r=".3"/><path class="st176" d="M495 35c1 0 1 0 0 0zM488 39v1-1zM644 108h1v1h-1v-1z"/><circle class="st176" cx="706" cy="61" r=".5"/><path class="st176" d="M693 108v1-1z"/><circle class="st176" cx="622.4" cy="126.7" r=".5"/><circle class="st176" cx="713.2" cy="56.3" r=".5"/><path class="st176" d="M521 101a1 1 0 1 1 1 1 1 1 0 0 1-1-1zM522 67a1 1 0 1 1 2 2 1 1 0 0 1-2-2zM517 116h2v1h-2v-1z"/><circle class="st176" cx="523.1" cy="103.9" r=".5"/><path class="st176" d="M531 95h1-1zM541 64c0-1 0-1 0 0 1 0 1 0 0 0 0 1 0 1 0 0-1 0-1 0 0 0z"/><circle class="st176" cx="524.4" cy="92.4" r=".5"/><path class="st176" d="M517 97c0-1 0-1 0 0z"/><circle class="st176" cx="507.1" cy="118.1" r=".3"/><circle class="st176" cx="537.3" cy="122.2" r=".3"/><circle class="st176" cx="522.8" cy="96.5" r=".3"/><circle class="st176" cx="515.6" cy="101.2" r=".5"/><path class="st176" d="M480 101h1-1z"/><circle class="st176" cx="532.1" cy="118.4" r=".5"/><path class="st176" d="M632 130v1-1zM639 153h1v1h-1v-1z"/><circle class="st176" cx="611.1" cy="113.9" r=".5"/></g><g><path class="st175" d="M402 262a1 1 0 1 1-3 0 1 1 0 0 1 3 0zM366 175a1 1 0 1 1-1-2l1 2z"/><circle class="st175" cx="352.9" cy="187.4" r="1.4"/><path class="st175" d="M300 236a1 1 0 1 1-3 0 1 1 0 0 1 3 0zM237 183a1 1 0 1 1-3 0 1 1 0 0 1 3 0zM243 228a1 1 0 1 1-3 0 1 1 0 0 1 3 0zM401 236a1 1 0 1 1-3 0 1 1 0 0 1 3 0zM298 211a1 1 0 1 1-1-1l1 1z"/><circle class="st175" cx="419.4" cy="268.2" r="1"/><circle class="st175" cx="282.7" cy="235.8" r="1"/><circle class="st175" cx="379" cy="253.3" r="1"/><circle class="st175" cx="428.1" cy="196.9" r="1"/><circle class="st175" cx="428.8" cy="239" r="1"/><path class="st175" d="M373 242h-2l1-1 1 1zM324 231l-1 1-1-1 1-1 1 1zM259 252l-1 1-1-1 1-1 1 1zM259 235l-1 1-1-1h2zM272 193h-1v-1l1 1z"/><circle class="st175" cx="403.3" cy="256.9" r=".5"/><path class="st175" d="M377 253h-1 1zM377 264h-1 1zM383 261h-1 1zM371 263h-1 1zM234 279v-1 1zM408 227h-1 1zM385 254v-1 1zM324 306z"/><circle class="st175" cx="328.8" cy="253.8" r=".2"/><path class="st175" d="M276 250v1-1c0-1 0 0 0 0zM356 250zM323 252v1-1zM243 254h-1l1-1v1zM234 253zM382 257l-1 1v-1h1zM337 258v-1 1z"/><circle class="st175" cx="275.6" cy="258.3" r=".2"/><circle class="st175" cx="382.9" cy="249.8" r=".5"/><path class="st175" d="M362 249h-1 1zM273 229h-1 1zM371 193h-1 1zM353 163v-1 1zM346 265zM271 229h-1 1zM263 202h-1 1z"/><circle class="st175" cx="244.6" cy="202.3" r=".5"/><path class="st175" d="M303 176h-1 1zM342 164h-1 1zM257 233zM245 201h-1 1zM270 201h-1 1zM312 182h-1 1zM356 227h-1 1zM278 195h-1 1zM233 186h-1 1z"/><circle class="st175" cx="346.9" cy="205.6" r=".5"/><circle class="st175" cx="276.5" cy="170.6" r=".5"/><path class="st175" d="M380 224h-1 1zM716 247h2v1h-2v-1z"/><circle class="st175" cx="429.8" cy="191.5" r="1.4"/><circle class="st175" cx="470.4" cy="207.4" r="1.4"/><circle class="st175" cx="479" cy="170.3" r="1"/><path class="st175" d="M722 260h1v1h-1v-1zM451 184h1v1h-1v-1zM720 268h1v1h-1v-1zM713 249h1-1zM723 262c0-1 0-1 0 0zM727 257h1-1zM724 255v1-1z"/><circle class="st175" cx="458.1" cy="208.1" r=".5"/><path class="st175" d="M720 258zM730 271h1v1h-1v-1z"/><circle class="st175" cx="432.8" cy="165.9" r=".2"/><path class="st175" d="M723 258zM719 260v1-1z"/><circle class="st175" cx="727.8" cy="269.4" r=".3"/><circle class="st175" cx="413.8" cy="166.4" r=".5"/><path class="st175" d="M721 281z"/><circle class="st175" cx="476.6" cy="229.8" r=".5"/><circle class="st175" cx="749.6" cy="262.7" r=".8"/><circle class="st175" cx="789.9" cy="246.1" r=".8"/><circle class="st175" cx="766.3" cy="250.8" r=".8"/><circle class="st175" cx="739.2" cy="274.3" r=".8"/><circle class="st175" cx="741.8" cy="282.9" r=".8"/><path class="st175" d="M744 252h1v1h-1v-1zM776 237h1v1h-1v-1z"/><circle class="st175" cx="772.1" cy="242" r=".6"/><path class="st175" d="M754 275h1v1h-1v-1zM728 260h1v1h-1v-1z"/><circle class="st175" cx="753" cy="283.3" r=".4"/><circle class="st175" cx="756.4" cy="291.7" r=".4"/><circle class="st175" cx="740" cy="280.8" r=".4"/><circle class="st175" cx="715.1" cy="296.5" r=".4"/><path class="st175" d="M746 264c1 0 1 0 0 0zM756 277c0-1 0-1 0 0-1 0-1 0 0 0zM742 280v1-1zM772 274h1v1h-1v-1zM781 272c0 1 0 1 0 0zM760 272z"/><circle class="st175" cx="461.9" cy="194.8" r=".5"/><path class="st175" d="M796 238c1 0 1 0 0 0z"/><circle class="st175" cx="756.4" cy="270.7" r=".3"/><path class="st175" d="M732 275c0-1 0-1 0 0z"/><circle class="st175" cx="407.5" cy="191.5" r=".5"/><path class="st175" d="M752 273h1-1zM731 277v1-1z"/><circle class="st175" cx="734.6" cy="274.9" r=".1"/><circle class="st175" cx="475.9" cy="192.6" r=".2"/><path class="st175" d="M763 286v1-1zM763 296c1 0 1 0 0 0z"/><circle class="st175" cx="422.8" cy="249" r=".2"/><path class="st175" d="M758 296zM758 294v1-1z"/><circle class="st175" cx="740.9" cy="281.9" r=".1"/><path class="st175" d="M755 273h1-1zM740 280zM752 275v1-1zM735 280c0-1 0-1 0 0zM738 280h1-1z"/><circle class="st175" cx="418.4" cy="203.9" r=".5"/><circle class="st175" cx="426.6" cy="188.7" r="1"/><circle class="st175" cx="435.5" cy="182.8" r=".5"/><circle class="st175" cx="429.3" cy="180.5" r=".5"/><path class="st175" d="M422 184h1v1h-1v-1z"/><circle class="st175" cx="427.8" cy="184.2" r=".2"/><path class="st175" d="M421 188h1v1h-1v-1zM760 284h1v1h-1v-1zM793 259v1-1z"/><circle class="st175" cx="786.2" cy="284.7" r=".3"/><path class="st175" d="M749 294c0 1 0 1 0 0zM797 257zM451 243h1v2h-1v-2z"/><circle class="st175" cx="452.7" cy="213.9" r="1"/><circle class="st175" cx="282.7" cy="246.2" r="1"/><path class="st175" d="M448 257h1v1h-1v-1zM453 246v1-1z"/><circle class="st175" cx="460.3" cy="238.3" r=".5"/><path class="st175" d="M469 210v1-1z"/><circle class="st175" cx="454.1" cy="236" r=".5"/><circle class="st175" cx="447.4" cy="239.9" r=".2"/><path class="st175" d="M438 259h1-1zM466 263c-1 0-1 0 0 0z"/><circle class="st175" cx="452.6" cy="239.7" r=".2"/><path class="st175" d="M446 244c0-1 0-1 0 0zM414 243h1v1h-1v-1zM461 259v1-1zM754 296c0 1 0 1 0 0zM758 308v1-1zM743 287v1-1z"/></g><g><path class="st176" d="M377 319a2 2 0 1 1-3 0 2 2 0 0 1 3 0zM337 222a2 2 0 1 1-3 0 2 2 0 0 1 3 0zM324 236a2 2 0 1 1-1-2l1 2zM263 290a2 2 0 1 1-3 0 2 2 0 0 1 3 0zM194 232a2 2 0 1 1-3 0 2 2 0 0 1 3 0zM200 280a2 2 0 1 1-3 0 2 2 0 0 1 3 0zM375 290a2 2 0 1 1-3 0 2 2 0 0 1 3 0zM262 262a2 2 0 1 1-3 0 2 2 0 0 1 3 0z"/><circle class="st176" cx="396.2" cy="325.5" r="1.1"/><path class="st176" d="m246 290-1 1-2-1 2-1 1 1z"/><circle class="st176" cx="351.5" cy="309" r="1.1"/><path class="st176" d="m407 246-1 2-1-2 1-1 1 1z"/><circle class="st176" cx="406.7" cy="293.1" r="1.1"/><path class="st176" d="m344 296-1 1v-2l1 1zM290 284l-1 1-1-1 1-1 1 1zM218 308h-2l1-1 1 1zM218 289l-1 1-1-1 1-1 1 1zM233 242l-1 1-1-1 1-1 1 1zM379 313h-1c-1 0 0 0 0 0v-1l1 1zM349 308v1l-1-1h1zM350 321h-1v-1l1 1zM356 318h-1l1-1v1z"/><circle class="st176" cx="341.9" cy="319.8" r=".5"/><path class="st176" d="m191 337-1 1v-1c0-1 0 0 0 0h1zM384 279l-1 1-1-1h2z"/><circle class="st176" cx="357.9" cy="309.2" r=".3"/><path class="st176" d="m244 345-1 1v-1h1zM296 309v1-1z"/><circle class="st176" cx="236.9" cy="305.8" r=".3"/><circle class="st176" cx="325.6" cy="305.6" r=".3"/><path class="st176" d="M290 308h-1 1zM200 309v1-1z"/><circle class="st176" cx="190.8" cy="308.4" r=".3"/><path class="st176" d="M354 313v1-1zM305 314v-1 1z"/><circle class="st176" cx="236.7" cy="314.5" r=".3"/><path class="st176" d="M356 305v1l-1-1h1zM332 305h-1l1-1v1zM234 283h-1v-1l1 1z"/><circle class="st176" cx="341.9" cy="242.5" r=".5"/><path class="st176" d="M323 209h-1v-1l1 1z"/><circle class="st176" cx="314.8" cy="322" r=".5"/><circle class="st176" cx="230.8" cy="282" r=".5"/><path class="st176" d="M223 252h-1v-1l1 1z"/><circle class="st176" cx="202.4" cy="252.4" r=".5"/><path class="st176" d="M267 223v1l-1-1h1z"/><circle class="st176" cx="310.3" cy="209.7" r=".5"/><path class="st176" d="M216 286v1l-1-1h1z"/><circle class="st176" cx="201.9" cy="250.9" r=".5"/><path class="st176" d="M231 251h-1v-1l1 1z"/><circle class="st176" cx="276.2" cy="230" r=".5"/><circle class="st176" cx="325.1" cy="280" r=".5"/><circle class="st176" cx="238.9" cy="244.1" r=".5"/><circle class="st176" cx="189.2" cy="234.4" r=".5"/><circle class="st176" cx="315.9" cy="256.1" r=".5"/><path class="st176" d="M238 217v1l-1-1h1zM352 277l-1 1v-2l1 1z"/><circle class="st176" cx="472.5" cy="236.2" r="1.6"/><circle class="st176" cx="407.8" cy="240.4" r="1.6"/><circle class="st176" cx="452.8" cy="258.1" r="1.6"/><path class="st176" d="M462 216a1 1 0 1 1 1 2 1 1 0 0 1-1-2zM482 259a1 1 0 1 1 1 2 1 1 0 0 1-1-2zM431 232a1 1 0 1 1 2 1 1 1 0 0 1-2-1zM478 274h1v2h-1v-2z"/><circle class="st176" cx="466.1" cy="238.4" r=".5"/><path class="st176" d="M484 262v1-1z"/><circle class="st176" cx="492.2" cy="253.7" r=".5"/><circle class="st176" cx="485.3" cy="251.2" r=".5"/><path class="st176" d="M439 258h1v1h-1v-1z"/><circle class="st176" cx="477.9" cy="255.5" r=".3"/><path class="st176" d="M498 281z"/><circle class="st176" cx="411" cy="212.1" r=".3"/><circle class="st176" cx="483.7" cy="255.3" r=".3"/><path class="st176" d="M476 260h1-1z"/><circle class="st176" cx="493" cy="277.2" r=".5"/><path class="st176" d="M390 212v1-1z"/><circle class="st176" cx="480.4" cy="299.4" r=".5"/><circle class="st176" cx="459.7" cy="282.9" r=".5"/><circle class="st176" cx="534.2" cy="264.5" r="1.6"/><circle class="st176" cx="610.1" cy="233.1" r="1.6"/><circle class="st176" cx="565.7" cy="242" r="1.6"/><path class="st176" d="M513 285h3v3h-3v-3z"/><circle class="st176" cx="519.3" cy="302.6" r="1.6"/><path class="st176" d="M523 245a1 1 0 1 1 2 1 1 1 0 0 1-2-1zM585 216a1 1 0 1 1 1 2 1 1 0 0 1-1-2zM576 225a1 1 0 1 1 1 1 1 1 0 0 1-1-1z"/><circle class="st176" cx="544" cy="288.6" r="1.1"/><path class="st176" d="M493 260a1 1 0 1 1 2 2 1 1 0 0 1-2-2z"/><circle class="st176" cx="540.6" cy="303.4" r=".8"/><circle class="st176" cx="547" cy="319.3" r=".8"/><path class="st176" d="M515 298h2v1h-2v-1z"/><circle class="st176" cx="469.1" cy="328.3" r=".8"/><circle class="st176" cx="527.8" cy="266.8" r=".5"/><path class="st176" d="M545 291h1-1z"/><circle class="st176" cx="519.8" cy="297.8" r=".5"/><path class="st176" d="M577 286h1v1h-1v-1zM593 282h1v1h-1v-1z"/><circle class="st176" cx="554" cy="282.1" r=".5"/><circle class="st176" cx="443.4" cy="244.1" r=".5"/><path class="st176" d="M622 217h1v1h-1v-1zM547 279v1-1z"/><circle class="st176" cx="500.9" cy="287.2" r=".5"/><path class="st176" d="M383 240v1c-1 0 0 0 0 0v-1z"/><circle class="st176" cx="539.6" cy="283.9" r=".3"/><circle class="st176" cx="498.7" cy="292.3" r=".3"/><circle class="st176" cx="505.8" cy="287.5" r=".3"/><path class="st176" d="M459 242c0-1 0-1 0 0zM560 309c0 1 0 1 0 0zM560 327v1-1zM400 304z"/><circle class="st176" cx="550.3" cy="327.8" r=".3"/><path class="st176" d="M550 324v1-1zM518 301c-1 0-1 0 0 0zM545 283h1v1h-1v-1z"/><circle class="st176" cx="516" cy="297" r=".3"/><path class="st176" d="M538 288h1v1h-1v-1z"/><circle class="st176" cx="506.6" cy="296.7" r=".5"/><circle class="st176" cx="513.5" cy="297.2" r=".5"/><path class="st176" d="M395 254v1-1zM403 237a1 1 0 1 1 2 1 1 1 0 0 1-2-1zM414 230v1-1z"/><circle class="st176" cx="407.2" cy="228.3" r=".5"/><circle class="st176" cx="399.8" cy="232.6" r=".3"/><path class="st176" d="M405 232h1v1h-1v-1zM398 237h1-1zM554 305h1v1h-1v-1zM616 258h1v1h-1v-1zM603 306h1-1zM532 324h1-1zM623 253h1v1h-1v-1zM431 298a1 1 0 1 1 1 2 1 1 0 0 1-1-2zM432 265a1 1 0 1 1 2 1 1 1 0 0 1-2-1zM244 300a1 1 0 1 1 1 2 1 1 0 0 1-1-2zM428 313h1v1h-1v-1zM433 301h1v1h-1v-1z"/><circle class="st176" cx="441.6" cy="292.3" r=".5"/><path class="st176" d="M451 261h1v1h-1v-1zM434 289h1v1h-1v-1z"/><circle class="st176" cx="427.3" cy="294.1" r=".3"/><path class="st176" d="M417 315h1v1h-1v-1z"/><circle class="st176" cx="447.5" cy="319.5" r=".3"/><path class="st176" d="M433 294zM426 298v1-1z"/><circle class="st176" cx="390.5" cy="298.3" r=".5"/><circle class="st176" cx="442.3" cy="315.8" r=".5"/><path class="st176" d="M542 327h1v1h-1v-1z"/><circle class="st176" cx="549.5" cy="351.2" r=".5"/><path class="st176" d="M521 311h1v1h-1v-1zM636 272a2 2 0 1 1-3 0 2 2 0 0 1 3 0zM635 242a2 2 0 1 1-4 0 2 2 0 0 1 4 0zM656 278l-1 1-1-1 1-1 1 1zM612 262l-1 1-2-1 2-2 1 2zM666 199l-1 1-1-1 1-1 1 1zM667 246l-1 1-1-1 1-1 1 1zM603 249h-1l1-1v1zM638 265l-1 1v-1c0-1 0 0 0 0h1z"/><circle class="st176" cx="607.6" cy="261" r=".5"/><path class="st176" d="m609 273-1 1v-1h1zM615 270v1l-1-1h1zM601 272v1l-1-1h1zM643 232l-1 1v-2l1 1zM617 262z"/><circle class="st176" cx="613.1" cy="266" r=".3"/><path class="st176" d="M615 258h-1l1-1v1zM601 195v1l-1-1h1z"/><circle class="st176" cx="610.5" cy="229.5" r=".5"/><circle class="st176" cx="731.5" cy="188.7" r="1.6"/><circle class="st176" cx="666.8" cy="193" r="1.6"/><path class="st176" d="M711 210h2v2h-2v-2zM721 169a1 1 0 1 1 1 1 1 1 0 0 1-1-1zM741 212a1 1 0 1 1 1 2 1 1 0 0 1-1-2zM690 184a1 1 0 1 1 2 2 1 1 0 0 1-2-2zM737 227h1v1h-1v-1zM725 191h1-1z"/><circle class="st176" cx="743" cy="215.2" r=".5"/><path class="st176" d="M751 206h1v1h-1v-1z"/><circle class="st176" cx="744.4" cy="203.8" r=".5"/><path class="st176" d="M698 211h1v1h-1v-1zM737 208z"/><circle class="st176" cx="757.2" cy="233.5" r=".3"/><circle class="st176" cx="670.1" cy="164.6" r=".3"/><path class="st176" d="M743 208c-1 0-1 0 0 0z"/><circle class="st176" cx="735.6" cy="212.6" r=".5"/><circle class="st176" cx="752" cy="229.8" r=".5"/><circle class="st176" cx="649" cy="165.2" r=".5"/><circle class="st176" cx="739.5" cy="251.9" r=".5"/><circle class="st176" cx="718.8" cy="235.4" r=".5"/><path class="st176" d="M792 216h2v2h-2v-2z"/><circle class="st176" cx="869.2" cy="185.7" r="1.6"/><path class="st176" d="M824 193h2v3h-2v-3zM772 238h3v2h-3v-2z"/><circle class="st176" cx="778.4" cy="255.2" r="1.6"/><path class="st176" d="M782 197a1 1 0 1 1 2 2 1 1 0 0 1-2-2zM844 169a1 1 0 1 1 1 1 1 1 0 0 1-1-1zM835 177a1 1 0 1 1 1 2 1 1 0 0 1-1-2zM802 240a1 1 0 1 1 2 2 1 1 0 0 1-2-2zM752 213a1 1 0 1 1 2 1 1 1 0 0 1-2-1z"/><circle class="st176" cx="799.6" cy="256" r=".8"/><circle class="st176" cx="806.1" cy="271.8" r=".8"/><circle class="st176" cx="775.1" cy="251.2" r=".8"/><circle class="st176" cx="728.2" cy="280.8" r=".8"/><path class="st176" d="M787 219v1-1z"/><circle class="st176" cx="804.8" cy="243.6" r=".5"/><circle class="st176" cx="778.8" cy="250.3" r=".5"/><path class="st176" d="M836 239h1-1zM852 235h1v1h-1v-1z"/><circle class="st176" cx="813" cy="234.6" r=".5"/><circle class="st176" cx="702.4" cy="196.6" r=".5"/><path class="st176" d="M881 170h1v1h-1v-1z"/><circle class="st176" cx="806.1" cy="232.1" r=".5"/><circle class="st176" cx="760" cy="239.8" r=".5"/><path class="st176" d="M642 193c0-1 0-1 0 0 1 0 1 0 0 0s-1 0 0 0z"/><circle class="st176" cx="798.7" cy="236.4" r=".3"/><circle class="st176" cx="757.8" cy="244.8" r=".3"/><path class="st176" d="M765 240z"/><circle class="st176" cx="718" cy="194.3" r=".3"/><circle class="st176" cx="819" cy="261.9" r=".3"/><circle class="st176" cx="819.2" cy="280.1" r=".3"/><circle class="st176" cx="659.1" cy="256.7" r=".3"/><circle class="st176" cx="809.3" cy="280.3" r=".3"/><circle class="st176" cx="809.1" cy="276.9" r=".3"/><circle class="st176" cx="776.8" cy="253.4" r=".3"/><circle class="st176" cx="804.5" cy="236.2" r=".3"/><path class="st176" d="M775 249v1-1z"/><circle class="st176" cx="797.3" cy="240.9" r=".5"/><circle class="st176" cx="765.6" cy="249.3" r=".5"/><circle class="st176" cx="772.5" cy="249.8" r=".5"/><circle class="st176" cx="654.2" cy="206.8" r=".5"/><path class="st176" d="M662 189a1 1 0 1 1 2 2 1 1 0 0 1-2-2z"/><circle class="st176" cx="673.1" cy="183.3" r=".5"/><circle class="st176" cx="666.2" cy="180.8" r=".5"/><path class="st176" d="M659 185z"/><circle class="st176" cx="664.6" cy="184.9" r=".3"/><path class="st176" d="M657 189h1v1h-1v-1z"/><circle class="st176" cx="813.8" cy="258.1" r=".5"/><circle class="st176" cx="875.3" cy="210.9" r=".5"/><path class="st176" d="M862 258h1v1h-1v-1zM791 276h1v1h-1v-1zM882 206h1v1h-1v-1zM690 251a1 1 0 1 1 2 1 1 1 0 0 1-2-1zM691 217a1 1 0 1 1 2 2 1 1 0 0 1-2-2z"/><circle class="st176" cx="687.3" cy="266.2" r=".8"/><path class="st176" d="M692 253h1v1h-1v-1z"/><circle class="st176" cx="700.6" cy="244.8" r=".5"/><circle class="st176" cx="710.3" cy="213.9" r=".5"/><path class="st176" d="M693 242h1v1h-1v-1zM686 246h1v1h-1v-1z"/><circle class="st176" cx="676.4" cy="268" r=".3"/><path class="st176" d="M706 272h1-1z"/><circle class="st176" cx="692.1" cy="246.4" r=".3"/><path class="st176" d="M685 251v1-1z"/><circle class="st176" cx="649.5" cy="250.8" r=".5"/><path class="st176" d="M701 268h1v1h-1v-1z"/><circle class="st176" cx="801.2" cy="280.3" r=".5"/><circle class="st176" cx="808.5" cy="303.7" r=".5"/><circle class="st176" cx="780.5" cy="263.8" r=".5"/></g></g><g id="plathigh" class="rellax" data-rellax-speed="2"><linearGradient id="SVGID_3_" gradientUnits="userSpaceOnUse" x1="669.5" y1="380.2" x2="669.5" y2="273.3"><stop offset="0" style="stop-color:#00aaba"/><stop offset="1" style="stop-color:#000e77"/></linearGradient><path d="M582 273a91 91 0 0 0 9 15l-2 3-77 3-73 7 6 7 4 4 2 10v6l3 10 104 22h66l135 13 141 7v-73l-128-18-190-16z" style="fill-rule:evenodd;clip-rule:evenodd;fill:url(#SVGID_3_)"/><linearGradient id="SVGID_4_" gradientUnits="userSpaceOnUse" x1="439.2" y1="297.4" x2="610.6" y2="297.4"><stop offset="0" style="stop-color:#6bebed"/><stop offset="1" style="stop-color:#3994dd"/></linearGradient><path d="M611 291s-7-3-11-3c-4-1-108 3-114 3l-14-1s-3-3-6-2l-5 1-2 4-4 2-3 2-5-3-5 3-3 4 10 1h48l23 3c1 0 12 3 16 2l44-6 23-5 8-5z" style="fill-rule:evenodd;clip-rule:evenodd;fill:url(#SVGID_4_)"/><radialGradient id="SVGID_5_" cx="717.1" cy="294" r="131" gradientUnits="userSpaceOnUse"><stop offset="0" style="stop-color:#4ccced"/><stop offset="1" style="stop-color:#39a5dd"/></radialGradient><path d="M900 265H716l-8 2-47 1h-29l-25 2-18 2c-4 1-8 0-7 1l12 3 20 4 25 4 8 3s-35 3-39 5l-9 2s-52 6-57 8l-8 4c1 2 20 3 24 3 4 1 23-4 27-2 3 1 7 2 8 4 2 2 8 0 13 2l90 3c4 1 8 5 13 6l191 1v-58z" style="fill-rule:evenodd;clip-rule:evenodd;fill:url(#SVGID_5_)"/><linearGradient id="SVGID_6_" gradientUnits="userSpaceOnUse" x1="669.5" y1="382.7" x2="669.5" y2="300.6"><stop offset="0" style="stop-color:#097098"/><stop offset="1" style="stop-color:#003194"/></linearGradient><path d="m876 323 4 54-48 1-63-5-8-26-6-24v43l-10 11-26-5-10-50-13-6-5 28-5 2 2 14-31 1-45 1-6-49-4-1 5 28-12-28-1 37-4-20h-9v-23l-23 3 2 17-18 2-10-2-13-22-21-1 6 13 2 7 4 19-18-4-11-26-1-6-3-4h-28l-10-1 6 7 4 4h10l6 4 5 7-10 3-4 2-5 1 2 7 16 8 119 26 140 12 152 1 20-3v-57h-24z" style="fill-rule:evenodd;clip-rule:evenodd;fill:url(#SVGID_6_)"/><linearGradient id="SVGID_7_" gradientUnits="userSpaceOnUse" x1="556.6" y1="366.4" x2="556.6" y2="328"><stop offset="0" style="stop-color:#00b4ba"/><stop offset="1" style="stop-color:#0031a2"/></linearGradient><path d="m523 328 6 31s16 6 23 7c6 1 14-3 14-3l12-1 8-6 4-27h-21l-46-1z" style="fill-rule:evenodd;clip-rule:evenodd;fill:url(#SVGID_7_)"/><linearGradient id="SVGID_8_" gradientUnits="userSpaceOnUse" x1="523.3" y1="327.1" x2="590" y2="327.1"><stop offset="0" style="stop-color:#4ccced"/><stop offset="1" style="stop-color:#39bddd"/></linearGradient><path d="M523 328s20-8 23-7h12s7 3 12 3l20 5-14 2 1 2h-18l-36-5z" style="fill-rule:evenodd;clip-rule:evenodd;fill:url(#SVGID_8_)"/><linearGradient id="SVGID_9_" gradientUnits="userSpaceOnUse" x1="450.6" y1="326.5" x2="463.7" y2="326.5"><stop offset="0" style="stop-color:#4ccced"/><stop offset="1" style="stop-color:#39bddd"/></linearGradient><path d="m451 325 8-1 5 1-4 1-4 2-5 1v-4z" style="fill-rule:evenodd;clip-rule:evenodd;fill:url(#SVGID_9_)"/><linearGradient id="SVGID_10_" gradientUnits="userSpaceOnUse" x1="643.4" y1="289.2" x2="814.3" y2="289.2"><stop offset="0" style="stop-color:#0059a2"/><stop offset="1" style="stop-color:#000e77"/></linearGradient><path style="fill-rule:evenodd;clip-rule:evenodd;fill:url(#SVGID_10_)" d="M643 285h74l33 4 64 4h-80l-35-1-48-5z"/><linearGradient id="SVGID_11_" gradientUnits="userSpaceOnUse" x1="523.3" y1="301.2" x2="814.3" y2="301.2"><stop offset="0" style="stop-color:#4ccced"/><stop offset="1" style="stop-color:#39bddd"/></linearGradient><path d="m530 308 28 1s9 0 23-3l14 6 11 1 2 2 88 1 33-5 17-3 68-15-78-2-13 2-28-1-48-5s-33 3-39 5l-46 7-39 6c0 1 0 2 7 3z" style="fill-rule:evenodd;clip-rule:evenodd;fill:url(#SVGID_11_)"/><path class="st187" d="m461 289 3 2 4-1 2-1-1-2-8 2zM454 296h3l3-2s-3-1-6 2zM447 294l-4 3 1 2h5l3-2z"/><linearGradient id="SVGID_12_" gradientUnits="userSpaceOnUse" x1="834.4" y1="295.1" x2="900" y2="295.1"><stop offset="0" style="stop-color:#0059a2"/><stop offset="1" style="stop-color:#000e77"/></linearGradient><path style="fill-rule:evenodd;clip-rule:evenodd;fill:url(#SVGID_12_)" d="m834 293 66-2v8z"/><linearGradient id="SVGID_13_" gradientUnits="userSpaceOnUse" x1="755.5" y1="323.6" x2="899.8" y2="323.6"><stop offset="0" style="stop-color:#4ccced"/><stop offset="1" style="stop-color:#39bddd"/></linearGradient><path style="fill-rule:evenodd;clip-rule:evenodd;fill:url(#SVGID_13_)" d="m755 323 23 3h11l23-1h12l16 1 6 4 15-1 12-1 5-5h22l-58-5-30 3h-29z"/><linearGradient id="SVGID_14_" gradientUnits="userSpaceOnUse" x1="523.9" y1="305.5" x2="523.9" y2="300.6"><stop offset="0" style="stop-color:#4ccced"/><stop offset="1" style="stop-color:#39bddd"/></linearGradient><path style="fill-rule:evenodd;clip-rule:evenodd;fill:url(#SVGID_14_)" d="m498 303 8-1 6-1 9 1 13 1 16-2-27 5-4-1-1 1z"/><linearGradient id="SVGID_15_" gradientUnits="userSpaceOnUse" x1="718.1" y1="328" x2="718.1" y2="307.1"><stop offset="0" style="stop-color:#0059a2"/><stop offset="1" style="stop-color:#000e77"/></linearGradient><path style="fill-rule:evenodd;clip-rule:evenodd;fill:url(#SVGID_15_)" d="m696 316 15-2 18-3 21-4-26 3-38 5 7 13z"/><linearGradient id="SVGID_16_" gradientUnits="userSpaceOnUse" x1="697.7" y1="267.9" x2="747.5" y2="267.9"><stop offset="0" style="stop-color:#4ccced"/><stop offset="1" style="stop-color:#39bddd"/></linearGradient><path style="fill-rule:evenodd;clip-rule:evenodd;fill:url(#SVGID_16_)" d="m716 265 29 3 3 3-13-1h-21l-16-2z"/></g><g id="platlower" class="rellax" data-rellax-speed="0"><linearGradient id="SVGID_17_" gradientUnits="userSpaceOnUse" x1="450" y1="400" x2="450" y2="203.6"><stop offset="0" style="stop-color:#1f005c"/><stop offset="1" style="stop-color:#000027"/></linearGradient><path d="M0 302s39-46 41-53l7-45s37 0 53 6c15 5 23 21 23 21s14 27 11 30l-11 5 22 49c3 7 56 27 56 27s47-13 51-21 2-9 2-9-4-9-4-13c0-3 70-2 70-2s44 11 49 18c4 8-6 11-6 11s62-3 77 0l17 8 96 7s8-23 17-25c11-3 86 26 86 26s38 34 49 37 43 5 55 3 48-9 62-6l77 24H0v-98z" style="fill-rule:evenodd;clip-rule:evenodd;fill:url(#SVGID_17_)"/><path class="st194" d="M48 204s11 23 19 35c8 11 18 15 18 15l16-3 14 10h20s-3-20-9-35l-5-6-20-15c-5-3-53-1-53-1zM146 315l-19-3s5 14 10 16l15 9v-3l15 5c8 3 26 5 26 5h15l-6-2-56-27zM371 317v1c-6 3-24 4-24 4l-18-2-21 2-41-10-16-12v-1c10-6 73-1 73-1 32 6 42 12 45 16l2 3zM364 326l-33 10 53-2c14 0 20-3 20-3l14-3 23-2s-38-5-77 0zM459 336l-18 2-40 4s52 10 71 12l14-4s27 5 61 7c35 3 77 0 77 0s-39-14-70-16c0 0-70-6-95-5zM571 316s-6 9-4 14 32 17 52 19c20 3 38-7 38-7s-60-27-86-26zM761 382s9 4 47 11 76 2 76 2-47-20-66-19c-20 0-57 6-57 6zM565 383s37-3 59 0c22 4 82 10 82 10s-145 4-187 0c0 0 25-8 46-10z"/></g><g id="rocks" class="rellax" data-rellax-speed="4"><linearGradient id="SVGID_24_" gradientUnits="userSpaceOnUse" x1="815.4" y1="208.1" x2="815.4" y2="-46.9" gradientTransform="matrix(.6672 .0222 -.0179 .5395 197 104)"><stop offset="0" style="stop-color:#4c51dd"/><stop offset="1" style="stop-color:#86f9ff"/></linearGradient><path d="m781 169-1 15v2c-3 12-9 23-9 23-2 3-14 7-14 7l-7 11c-4 4-14 5-14 5v2l-14-4-3-6-13-7-2-7-8-8a815 815 0 0 1-7-35l-1-4 1-8s35-7 41-7h31v-15l9-7a16 16 0 0 1 3 6l1 3 1 2-1-8 3-4c2-5 1-16 1-16l3-1V98h5l2 12 2 3-1 20 2 24c-4 8-10 12-10 12z" style="fill-rule:evenodd;clip-rule:evenodd;fill:url(#SVGID_24_)"/><linearGradient id="SVGID_25_" gradientUnits="userSpaceOnUse" x1="739.4" y1="59" x2="859.1" y2="59" gradientTransform="matrix(.6672 .0222 -.0179 .5395 197 104)"><stop offset="0" style="stop-color:#bdffff"/><stop offset="1" style="stop-color:#39d0dd"/></linearGradient><path d="m689 155 9 4 12-3 8-5 18-1 1 4 11-1 11-1 4-2 6-1-8-1h-31c-7-1-37 5-41 7z" style="fill-rule:evenodd;clip-rule:evenodd;fill:url(#SVGID_25_)"/><linearGradient id="SVGID_26_" gradientUnits="userSpaceOnUse" x1="760.1" y1="123" x2="876.3" y2="123" gradientTransform="matrix(.6672 .0222 -.0179 .5395 197 104)"><stop offset="0" style="stop-color:#4cffed"/><stop offset="1" style="stop-color:#39d0dd"/></linearGradient><path d="m706 186-5 4 18 2h14l21-2 22-3 3-1-3-2-13 1-21 4-12 1-24-4z" style="fill-rule:evenodd;clip-rule:evenodd;fill:url(#SVGID_26_)"/><path class="st207" d="m761 133 6 2 4-1 2-3-3-5-9 7zM774 129h7l6-2v-2h-10l-3 4zM778 109l4 4 5 2 2 1-5-3-2-4-1-1zM781 98l2 6 2 2 1-3v-5z"/><linearGradient id="SVGID_27_" gradientUnits="userSpaceOnUse" x1="854.3" y1="54.9" x2="875.8" y2="54.9" gradientTransform="matrix(.6672 .0222 -.0179 .5395 197 104)"><stop offset="0" style="stop-color:#84ffed"/><stop offset="1" style="stop-color:#39d0dd"/></linearGradient><path style="fill-rule:evenodd;clip-rule:evenodd;fill:url(#SVGID_27_)" d="m780 151-4 4-6 1h-5l6-3 3-2 1-2z"/><linearGradient id="SVGID_28_" gradientUnits="userSpaceOnUse" x1="893.7" y1="142.2" x2="794.3" y2="31.4" gradientTransform="matrix(.6672 .0222 -.0179 .5395 197 104)"><stop offset="0" style="stop-color:#2933b7"/><stop offset="1" style="stop-color:#1e7aba"/></linearGradient><path d="m781 169-1 15v2c-3 12-9 23-9 23-2 3-14 7-14 7l-7 11c-4 4-14 5-14 5v2l-14-4-3-6-13-7-2-7-8-8v-2l5 2 2-3v-8l3 13v9l3 3 8 4 7 5 5-3 1-24-2-4 3 2 2 17 2 10h9l6-6 6-6 8-7 5-8 5-9 5-1-3-2-11 1-8 1-16 3-11 1-16-3-1-4-3-5v-22l8-5 18-1 1 4v25l5 9 7-2 8-7 2-15v-12c3-3 4-2 4-2v3l2 21 2-6-1-12h4l6-1 3-3-4-2-4 4-2-5-1-6-1-8 4-1 2-3v1l1 3 1 14 5 2v7l5-3 1-2-2-10 3-11v-16h2l-1-2v-2l-2-2-1-4 1-3v-5l2 12 2 3-1 20 2 23c-4 9-10 13-10 13z" style="fill-rule:evenodd;clip-rule:evenodd;fill:url(#SVGID_28_)"/><linearGradient id="SVGID_29_" gradientUnits="userSpaceOnUse" x1="882.1" y1="-50.8" x2="882.1" y2="-106.4" gradientTransform="matrix(.6672 .0222 -.0179 .5395 197 104)"><stop offset="0" style="stop-color:#86f9ff"/><stop offset="1" style="stop-color:#7d8cdd"/></linearGradient><path d="m795 67-3 17-3 3-2 8c-1 2-4 0-4 0l-3-11-1-14s5-4 9-4h5l2 1z" style="fill-rule:evenodd;clip-rule:evenodd;fill:url(#SVGID_29_)"/><linearGradient id="SVGID_30_" gradientUnits="userSpaceOnUse" x1="882.9" y1="-50.8" x2="882.9" y2="-105.5" gradientTransform="matrix(.6672 .0222 -.0179 .5395 197 104)"><stop offset="0" style="stop-color:#3e1ec0"/><stop offset="1" style="stop-color:#4395ba"/></linearGradient><path d="m795 67-3 17-3 3-2 8c-1 2-4 0-4 0l-3-11 2 6 5-1v-3l2-14v11l2-3v-4l2-10 2 1z" style="fill-rule:evenodd;clip-rule:evenodd;fill:url(#SVGID_30_)"/><g><linearGradient id="SVGID_31_" gradientUnits="userSpaceOnUse" x1="905.1" y1="171.7" x2="903.1" y2="111.8" gradientTransform="matrix(.6672 .0222 -.0179 .5395 197 104)"><stop offset="0" style="stop-color:#4c51dd"/><stop offset="1" style="stop-color:#86f9ff"/></linearGradient><path d="m809 203-3 2-6 5s0 3-2 5l-4 1-1-4-6-2-1-1a80 80 0 0 1-2-20c4-7 17-5 17-5l3 5h4l2 1v1c1 3-1 12-1 12z" style="fill-rule:evenodd;clip-rule:evenodd;fill:url(#SVGID_31_)"/><path d="M810 191h-8l-1 1-17-3c4-7 17-5 17-5l3 5s5-1 6 2z" style="fill-rule:evenodd;clip-rule:evenodd;fill:#68f6ff"/><linearGradient id="SVGID_32_" gradientUnits="userSpaceOnUse" x1="905.8" y1="164.1" x2="905.8" y2="120.7" gradientTransform="matrix(.6672 .0222 -.0179 .5395 197 104)"><stop offset="0" style="stop-color:#3e1ec0"/><stop offset="1" style="stop-color:#4395ba"/></linearGradient><path d="m809 203-1-7-4 1-3 10-3 2h-2l-3 3-6-2-1-1h6l5-3 2-5 2-9v-2l7-1 2 1v1c1 3-1 12-1 12z" style="fill-rule:evenodd;clip-rule:evenodd;fill:url(#SVGID_32_)"/></g><g><linearGradient id="SVGID_33_" gradientUnits="userSpaceOnUse" x1="211.5" y1="309.8" x2="211.5" y2="236.2"><stop offset="0" style="stop-color:#86f9ff"/><stop offset="1" style="stop-color:#4c51dd"/></linearGradient><path d="M142 236s-3 14-2 18c0 3 7 11 7 11l9 22c2 7 9 16 9 16s44 7 57 7c12 0 18-6 18-6l18-31 10-5s14-25 15-31l-38 1-103-2z" style="fill-rule:evenodd;clip-rule:evenodd;fill:url(#SVGID_33_)"/><linearGradient id="SVGID_34_" gradientUnits="userSpaceOnUse" x1="142.3" y1="237.5" x2="283.3" y2="237.5"><stop offset="0" style="stop-color:#4ccced"/><stop offset="1" style="stop-color:#39d0dd"/></linearGradient><path d="m142 236 19-2 10-2 65 1s11-5 15-5c3 0 9 6 9 6l23 3s-10 4-18 3l7 3-4 2-37 2c-11 0-16-4-16-4l5-2-6-1-24 4-16-2-1-2s-18-1-31-4z" style="fill-rule:evenodd;clip-rule:evenodd;fill:url(#SVGID_34_)"/><linearGradient id="SVGID_35_" gradientUnits="userSpaceOnUse" x1="183.3" y1="312.8" x2="183.3" y2="238.6"><stop offset="0" style="stop-color:#239aba"/><stop offset="1" style="stop-color:#3e47be"/></linearGradient><path d="M169 240v10l-10 1-2 3-6 10-4 1 3 8 8 1 7 6 3 7 3-16c0-2 3-12 2-14v-8l1-7 16 3c2 0 2 6 2 6l5 12-5 17 2 14v10l8 9h7l5-30c1-1-1-5-1-5l2-18v-17l5-2-6-1-21 3c-3 1-19-2-19-2l9-2-14 1z" style="fill-rule:evenodd;clip-rule:evenodd;fill:url(#SVGID_35_)"/><linearGradient id="SVGID_36_" gradientUnits="userSpaceOnUse" x1="258.8" y1="306.5" x2="258.8" y2="236.9"><stop offset="0" style="stop-color:#239aba"/><stop offset="1" style="stop-color:#3e47be"/></linearGradient><path d="m249 247 12 2-2 5-5 13-7 6-7 3-6 4h5v5l-3 13v8h4l18-33s9-3 10-5c1-1 14-25 15-31l-18 3 7 3-9 3-14 1z" style="fill-rule:evenodd;clip-rule:evenodd;fill:url(#SVGID_36_)"/><linearGradient id="SVGID_37_" gradientUnits="userSpaceOnUse" x1="231.5" y1="231.8" x2="257" y2="231.8"><stop offset="0" style="stop-color:#4cffed"/><stop offset="1" style="stop-color:#39d0dd"/></linearGradient><path d="m236 233-5 2 5 1c2 1 11 0 13-1l8-2v-2l-6-4-15 6z" style="fill-rule:evenodd;clip-rule:evenodd;fill:url(#SVGID_37_)"/><linearGradient id="SVGID_38_" gradientUnits="userSpaceOnUse" x1="237.9" y1="233.7" x2="260.9" y2="233.7"><stop offset="0" style="stop-color:#514dae"/><stop offset="1" style="stop-color:#0037a9"/></linearGradient><path d="m261 234-4 2h-19l11-1 8-2v-2l4 3z" style="fill-rule:evenodd;clip-rule:evenodd;fill:url(#SVGID_38_)"/><linearGradient id="SVGID_39_" gradientUnits="userSpaceOnUse" x1="176.2" y1="259.4" x2="176.2" y2="238.6"><stop offset="0" style="stop-color:#2257ae"/><stop offset="1" style="stop-color:#0037a9"/></linearGradient><path style="fill-rule:evenodd;clip-rule:evenodd;fill:url(#SVGID_39_)" d="m169 250 4 9 1-18 9-2-14 1z"/><linearGradient id="SVGID_40_" gradientUnits="userSpaceOnUse" x1="274" y1="267.1" x2="274" y2="236.9"><stop offset="0" style="stop-color:#2257ae"/><stop offset="1" style="stop-color:#0037a9"/></linearGradient><path d="m265 240 7 3-3 24 14-30-18 3z" style="fill-rule:evenodd;clip-rule:evenodd;fill:url(#SVGID_40_)"/><linearGradient id="SVGID_41_" gradientUnits="userSpaceOnUse" x1="206.3" y1="264.9" x2="206.3" y2="240.4"><stop offset="0" style="stop-color:#2257ae"/><stop offset="1" style="stop-color:#0037a9"/></linearGradient><path style="fill-rule:evenodd;clip-rule:evenodd;fill:url(#SVGID_41_)" d="m193 243 9 10 6 6 2 6 5-4v-18l5-2-6-1z"/></g><g><linearGradient id="SVGID_42_" gradientUnits="userSpaceOnUse" x1="-288.9" y1="218.9" x2="-230.8" y2="218.9" gradientTransform="rotate(2 753 22528)"><stop offset="0" style="stop-color:#4ccced"/><stop offset="1" style="stop-color:#39d0dd"/></linearGradient><path d="m641 170-2 12c0 1-6 3-7 5l-5 40-5 3s-3 7-5 6-5-10-5-10v-1l-3-3-2-13-1-5-11-2-2-3-9-6c-3-14 0-31 0-31 3-3 17-6 22-6l15 4 1 9c8-2 19 1 19 1z" style="fill-rule:evenodd;clip-rule:evenodd;fill:url(#SVGID_42_)"/><linearGradient id="SVGID_43_" gradientUnits="userSpaceOnUse" x1="-259" y1="258.5" x2="-259" y2="180.4" gradientTransform="rotate(2 753 22528)"><stop offset="0" style="stop-color:#1f4d95"/><stop offset="1" style="stop-color:#291689"/></linearGradient><path d="m641 170-2 12c0 1-6 3-7 5l-5 40-5 3s-3 7-5 6-5-10-5-10v-1l2-1 4 3 2-5 1-28-6 2-7 8-1 5-1-5-11-2-2-3-9-6 6 1 1-6 2 10h3l7-2 3-7 2-17v-13l4-1 9 2 1 9c8-2 19 1 19 1z" style="fill-rule:evenodd;clip-rule:evenodd;fill:url(#SVGID_43_)"/></g><g><linearGradient id="SVGID_44_" gradientUnits="userSpaceOnUse" x1="158.6" y1="225.1" x2="158.6" y2="206.3" gradientTransform="matrix(-1 0 0 1 667 0)"><stop offset="0" style="stop-color:#4ccced"/><stop offset="1" style="stop-color:#39d0dd"/></linearGradient><path d="m508 225 2-5v-1l1-3c1-2 2-8 0-9h-5l-2 2c0 1 2 17 4 16z" style="fill-rule:evenodd;clip-rule:evenodd;fill:url(#SVGID_44_)"/><linearGradient id="SVGID_45_" gradientUnits="userSpaceOnUse" x1="159.6" y1="225.1" x2="159.6" y2="207.1" gradientTransform="matrix(-1 0 0 1 667 0)"><stop offset="0" style="stop-color:#0e2463"/><stop offset="1" style="stop-color:#004d93"/></linearGradient><path d="m508 225 2-5v-1h-1l-2-2-1-10-2 2c0 1 2 17 4 16z" style="fill-rule:evenodd;clip-rule:evenodd;fill:url(#SVGID_45_)"/></g><g><linearGradient id="SVGID_46_" gradientUnits="userSpaceOnUse" x1="322" y1="282.3" x2="322" y2="252"><stop offset="0" style="stop-color:#4c51dd"/><stop offset="1" style="stop-color:#57cfff"/></linearGradient><path d="M337 255a404 404 0 0 1-4 18s-2 8-5 9c-2 1-10-1-10-1s-9-7-11-25c0 0 9-4 15-4 7 0 15 3 15 3z" style="fill-rule:evenodd;clip-rule:evenodd;fill:url(#SVGID_46_)"/><linearGradient id="SVGID_47_" gradientUnits="userSpaceOnUse" x1="322" y1="282.3" x2="322" y2="255.2"><stop offset="0" style="stop-color:#3e47be"/><stop offset="1" style="stop-color:#239aba"/></linearGradient><path d="M337 255a404 404 0 0 1-4 18s-2 8-5 9c-2 1-10-1-10-1s-9-7-11-25c0 0 3 12 7 18 4 5 9 3 9 3l4-10 2-7 2-4 2 7-1 6h2l3-14z" style="fill-rule:evenodd;clip-rule:evenodd;fill:url(#SVGID_47_)"/><path class="st207" d="M307 256h8l8-1h14l-14-4c-5 0-16 5-16 5z"/></g><g><linearGradient id="SVGID_48_" gradientUnits="userSpaceOnUse" x1="450" y1="281.4" x2="450" y2="233.9"><stop offset="0" style="stop-color:#86f9ff"/><stop offset="1" style="stop-color:#4c51dd"/></linearGradient><path d="M430 237v24s1 4 7 6v14s11 2 15-2c3-4 19-45 19-45l-19 2-22 1z" style="fill-rule:evenodd;clip-rule:evenodd;fill:url(#SVGID_48_)"/><linearGradient id="SVGID_49_" gradientUnits="userSpaceOnUse" x1="429.8" y1="236.2" x2="470.6" y2="236.2"><stop offset="0" style="stop-color:#4ccced"/><stop offset="1" style="stop-color:#39d0dd"/></linearGradient><path d="m430 237 15-2 5-2 21 1-6 3c-3 2-16 3-22 2l-13-2z" style="fill-rule:evenodd;clip-rule:evenodd;fill:url(#SVGID_49_)"/><linearGradient id="SVGID_50_" gradientUnits="userSpaceOnUse" x1="450.2" y1="283.5" x2="450.2" y2="233.9"><stop offset="0" style="stop-color:#239aba"/><stop offset="1" style="stop-color:#3e47be"/></linearGradient><path d="m430 261 7 2 3-2 2-14v14l1 6 7 2s5-2 5-5l7-26 9-4s-12 34-17 41l-4 6-12 3-1-5v-12s-7-2-7-6z" style="fill-rule:evenodd;clip-rule:evenodd;fill:url(#SVGID_50_)"/><path class="st207" d="m445 235 8 1 8-1-11-2-5 2z"/></g></g></svg>