<svg xmlns="http://www.w3.org/2000/svg" xmlns:xlink="http://www.w3.org/1999/xlink" viewBox="0 0 750 500"><defs><style>.cls-1{isolation:isolate;}.cls-2{opacity:0.67;}.cls-3,.cls-4{fill:#ccc;}.cls-3{opacity:0.43;}.cls-4{opacity:0.58;}.cls-5{fill:#e8e8e8;opacity:0.65;}.cls-6{fill:url(#linear-gradient);}.cls-11,.cls-13,.cls-7{fill:#1e1e1e;}.cls-7{opacity:0.59;}.cls-11,.cls-13,.cls-7,.cls-8{mix-blend-mode:overlay;}.cls-8{fill:#fefefe;opacity:0.37;}.cls-9{fill:url(#linear-gradient-2);}.cls-10{fill:url(#linear-gradient-3);}.cls-11{opacity:0.32;}.cls-12{fill:url(#linear-gradient-4);}.cls-13{opacity:0.08;}.cls-14{fill:url(#linear-gradient-5);}.cls-15{fill:url(#linear-gradient-6);}.cls-16{fill:#949494;}.cls-17{fill:url(#linear-gradient-7);}</style><linearGradient id="linear-gradient" x1="383.5" y1="301" x2="383.5" y2="143.62" gradientUnits="userSpaceOnUse"><stop offset="0" stop-color="#f6f6f6"/><stop offset="0.36" stop-color="#ededed"/><stop offset="0.94" stop-color="#d5d5d5"/><stop offset="1" stop-color="#d2d2d2"/></linearGradient><linearGradient id="linear-gradient-2" x1="577.17" y1="332" x2="577.17" y2="111.62" gradientUnits="userSpaceOnUse"><stop offset="0" stop-color="#eaeaea"/><stop offset="0.41" stop-color="#cecece"/><stop offset="1" stop-color="#a0a0a0"/></linearGradient><linearGradient id="linear-gradient-3" x1="310.67" y1="460" x2="310.67" y2="211" gradientUnits="userSpaceOnUse"><stop offset="0" stop-color="#eaeaea"/><stop offset="0.28" stop-color="#cecece"/><stop offset="0.87" stop-color="#888"/><stop offset="1" stop-color="#787878"/></linearGradient><linearGradient id="linear-gradient-4" x1="208.06" y1="541" x2="208.06" y2="312.44" gradientUnits="userSpaceOnUse"><stop offset="0" stop-color="#bfbfbf"/><stop offset="0.82" stop-color="#767676"/><stop offset="1" stop-color="#656565"/></linearGradient><linearGradient id="linear-gradient-5" x1="400.86" y1="588" x2="400.86" y2="352" gradientUnits="userSpaceOnUse"><stop offset="0" stop-color="#8e8e8e"/><stop offset="1" stop-color="#3d3d3d"/></linearGradient><linearGradient id="linear-gradient-6" x1="318.17" y1="601" x2="318.17" y2="393.99" gradientUnits="userSpaceOnUse"><stop offset="0" stop-color="#595959"/><stop offset="1" stop-color="#242424"/></linearGradient><linearGradient id="linear-gradient-7" x1="373.5" y1="620.57" x2="373.5" y2="385.03" gradientUnits="userSpaceOnUse"><stop offset="0" stop-color="#383838"/><stop offset="1" stop-color="#181818"/></linearGradient></defs><g class="cls-1"><g id="OBJECTS"><g id="clouds" class="cls-2"><path id="cloud4" class="cls-3" d="M-9.67,80.33S12,81.67,38,85.67,117.33,87,138,90.33s25.33,11.34,47.33,14,65.34,6,76,14.67,18,16.67,36.67,18.67,40,1.33,48,6.66,31.49,2,25.41,7-59.41-2.94-73.41,3,4.67,16,17.67,18.65,71.66-6,89.66,0,38.67,11.32,63.34,10.66,37.71-5.72,55.33.05,66.11,3.42,84.67,7.95S654,195,654,195v55H-9.67Z"/><path id="cloud3" class="cls-4" d="M756.67,116H660c-25.5,0-42,5-53.5,3.5s-34.83-.44-37.16.28-33.84,0-33.84,0,20-11.78,30-11.78,45-2.5,62.5-6,22.5-15.5,42.5-13.5,27.5,7.5,48,4S756.67,85,756.67,85Z"/><path id="cloud2" class="cls-4" d="M476.5,85s40-2,51.5,0,26.5.5,34.5,0,23.5-.89,23.5-.89-7.5-3.61-23.5-6.61-26-7-38.5-5S476.5,85,476.5,85Z"/><path id="cloud1" class="cls-4" d="M165,55.67s68,2.33,84.33,2,30.67-2.34,48.34-2,33,1.33,43.66,1,24.34-1,24.34-1-16.34-3.3-26.67-5-17-.67-27-4.34-9-5.66-21-5-8.67,3.34-21.33,1.67-20.34-7.67-31.34-5S221,44.33,206.67,44.67,172.67,49.67,165,55.67Z"/></g><circle id="sun" class="cls-5" cx="107.05" cy="86.83" r="42.67" transform="translate(4.39 178.82) rotate(-80.91)"/><g id="m7"><path class="cls-6" d="M495.33,220.33S483.67,206.67,480.67,199,475,178,466,174.67,446.12,167,446.12,167l-14.45-10.67-6.67-5h-8a17.17,17.17,0,0,1-9.67,4c-5.66.34-21,7.67-21,7.67s-15,10.33-17.66,11.67-23,7.33-23,7.33l-30,9.67-40.34,22.66-3.66,55.34H495.33Z"/><path class="cls-7" d="M442.5,170c5.5,3.5,19.5,16,18.5,22s-14.88,16-14.88,16L440,222.5,414,235l-42.59,34.67H495.33V220.33S483.67,206.67,480.67,199,475,178,466,174.67,446.12,167,446.12,167l-14.45-10.67S437,166.5,442.5,170Z"/><path class="cls-8" d="M375,181.33l10.33-6.66,11-11.67,15.47-8.64a15.05,15.05,0,0,1-4.47,1c-5.66.34-21,7.67-21,7.67s-15,10.33-17.66,11.67-23,7.33-23,7.33l-30,9.67,18-1.34Z"/></g><g id="m6"><path class="cls-9" d="M774.67,131S743.33,151.67,734,157s-30.67,4.67-30.67,4.67h-10l-10.66-7.34-20.67,14-27.33,20-28-21.33L602,159l-10.67,2-54.66,31.33L528,199H512.67l-18-4-53.34,38L375,273.67V339H779.33Z"/><path class="cls-7" d="M599,197.5,585.5,208l-11,19.5v16.06l-14,23.94-9.17,16.17L585.5,250l21.4-32.33,27.77-29.34-28-21.33C608.5,180.5,599,197.5,599,197.5Z"/><path class="cls-7" d="M734,157a19.76,19.76,0,0,1-2.53,1.19S719,174,710,181s-36,26.5-36,26.5-16.5,27.5-27.5,34-45,32.17-45,32.17L553.5,339H779.33l-4.66-208S743.33,151.67,734,157Z"/></g><g id="m5"><path class="cls-10" d="M172.67,154.33h16L228,149l17.33,5.33,65.18,49.34,33,14L439.1,275,554,304.21,654,331v59.33H-32.67V237.67S16,210.33,32,207.67s64-13.34,64-13.34l61.33-26Z"/><path class="cls-8" d="M-9.67,230.33l89-16L130.67,191,170,165l18.67-10.67h-16l-15.34,14L96,194.33S48,205,32,207.67s-64.67,30-64.67,30v13.18Z"/><path class="cls-11" d="M554,304.21,439.1,275l-95.59-57.33-33-14-32.86-24.88h0l26.23,35.54,71.12,44s39.15,33.12,40.41,34.9,153.92,15.09,153.93,15.09Z"/></g><g id="m4"><path class="cls-12" d="M446.12,325,340.57,312.5l-81.07-19-26.5-26L211.33,259,180,229.67l-36.67-15.34H116s-47.68,21.5-60.67,23.34S19.71,250,19.71,250L-30,267.5l20.33,30.83V441.67H427.46Z"/><polygon class="cls-13" points="201 314.5 180 323 100 372 100 441.67 427.46 441.67 446.12 325 340.57 312.5 259.5 293.5 233 267.5 216.5 283.67 201 314.5"/></g><g id="m3"><path class="cls-14" d="M782,214.33l-60.67,49.34s-69.3,11.33-81,10.66-25.68,8-25.68,8l-63.34,29.34H532.67l-45.34-9.34H472l-35.16,13.34H419.51L411.85,319l-14.13-9.33-24.22-10-5.49-6-19.64-2-7.8-8-13.35,2.66-30.55,15.34-16,5.33L242,315l-34.67,20.67s-55,24.72-72.89,27.36S68,365.67,68,365.67L19.71,376.14V513.67H782Z"/><path class="cls-13" d="M307.19,318,283,328s-8.5,18.5-17.5,26S222,376,222,376l-26.5,28.5-44,59.85-17.72,49.32h71.76l52-108.17,40-33s18-22.5,27.75-26,19.38-6.5,26.57-10.5,11.16-11,23.42-9.5c0,0,5.34-5.5,19.05-4s17.56-3.5,17.56-3.5l-14.13-9.33-24.22-10-5.49-6-19.64-2-7.8-8L329.19,301.5Z"/><polygon class="cls-13" points="496.46 304.21 496.46 304.21 477.5 316.5 465.5 337.5 449.5 364 411.85 381.83 371.33 421.5 359.45 452 397.08 408.49 446.12 383 488.5 360.5 516 335 551.33 311.67 532.67 311.67 496.46 304.21"/></g><path id="m2" class="cls-15" d="M640.35,506.61s-3.66-42.4-5.8-49.42-7-21.66-7-21.66-7.93,11.29-9.76,15-8.24,8.24-8.24,8.24-4.88-4.88-6.1-9.76a105.84,105.84,0,0,0-4-11.6s.31.31-1.52,3.36-3.36,3.35-4.27,7.63a13.41,13.41,0,0,1-3.66,6.71l-6.1-6.1-4.28.61-4.88-.61s0,1.22-2.74-3-2.44-10.38-2.44-10.38l-1.83-6.1A25.62,25.62,0,0,1,565,433.7c-1.52,1.83-1.83,2.14-2.74,6.1s-5.8,9.16-5.8,9.16l-3.66,4.57s-3.66-4.88-4.88-6.71-1.53-9.76-1.53-9.76l-2.13-7.63L540,417.54s-3.66,6.4-3.66,9.45-2.44,9.15-4,10.68-1.52,9.15-1.52,9.15l-5.49,4.27a13.28,13.28,0,0,0,0-9.15c-1.83-4.88-3.66-10.37-3.66-10.37v-9.46a6.26,6.26,0,0,0-4.27,3.66c-1.23,3.05-1.23,8.54-1.84,9.46s-6.4,8.23-6.4,8.23l-1.22,4s-5.19-12.2-8.54-14-6.1-.31-7-4.58-2.74-12.5-2.74-12.5-3.36-2.44-4.27,2.74-5.5,13.42-5.5,13.42-2.74,2.44-2.74,3.36-3.66-5.8-3.66-5.8l-5.19-12.5s2.14-12.82,0-13.12-5.18,4.88-5.18,4.88-3.36,9.76-5.8,13.42-2.44,15.86-2.44,15.86l-5.49,4-3.27,5.8s-1.31-5.8-1.92-6.72-6.88-2.44-9.24-5.79a40.32,40.32,0,0,1-3.75-6.71s-5.31-10.37-6.53-9.15-1.62,7.32-1.62,7.32l-3.55,7-4.1,3.66-5.59-6.1s-.32-3.66-2.49-5.18-9.61-9.15-9.61-9.15.12-8.88-1.71-13.13-1.72-11.89-1.72-11.89-3.32.61-3.7,3.66A75.66,75.66,0,0,1,387.27,409c-1,2.45-4.57,8.55-4.93,10.07s-3.56,11.29-3.56,11.29v-8.54l-3.54-3.05-3.91-5.49s-6.84-4.28-6.64-5.8-1.63.3-2.54-6.41-1.43-14-2.7-16.16,2.79-9.46,0-9.77-4.62,5.8-5.23,11.9,1,10.37-2.4,14-2.58,11.6-3.45,12.51-7.8,6.71-7.8,6.71l-2.93-12.51s-4.59-11.89-5.14-13.72-2.41-11-3.31-12.2-2.69-5.5-2.71,2.74,3.66,11.9-1.23,15.25-6.43,13.73-6.43,13.73L315.37,420l-8.18.61-3.31-.61v-7.32l-5.18-9.77s0-16.16-1.83-18-2.75,8.84-2.75,8.84l-4,4.27s-3.05,13.43-7.93,16.17-6.41,3.66-6.41,5.8-6.71-11.9-5.19-19.83.47-10.37-.22-14.34-3.13-22.88-3.13-22.88-.92,8.54-3.66,11.29-4.88,12.51-4.58,14,0,8.54-3.05,12.2-4,14-4,14L249,421.2s-2.14-1.83-4.58-8.24-7.63-8.85-8.85-11.29-3.66-3.35-4-11.59,0-15.56,0-15.56-4,2.44-4.58,6.11.92,11-1.52,14S215.42,407.77,216,409.6s-1.83,5.8-1.83,5.8.61-19.52,0-20.44-.92-1.83-3-10.67-3.36-12.51-3.66-13.73-3.36,6.1-3.66,7.63-.31,7.62-2.44,11-8.54,11.28-9.76,15.55-3,10.07-4.27,11.6-7,3.66-7,3.66-.31-14,0-15.26-3.66-12.5-4.58-15.25-4-12.51-5.79-16.78-5.8-14.94-5.8-14.94-3,1.22-3.35,6.1.91,11,0,15.25-5.19,5.49-6.71,7S142.51,402,142.51,402l-2.13,7-12.2-1.83A132,132,0,0,0,124.5,388c-2.5-8.5-8-22.33-8-22.33a56.25,56.25,0,0,1-8-20.17c-2-11.5-9-20-10-21.5S91,307,91,307s-1.5,7.5-5.5,12-3.5,12-4,16-3,15-3,15l3,20s2,10.38-3,15-8,12.5-8,12.5L65,380,51,369.5l-19,17-6.5,1s-7.5-14.5-8-16S-4,339-4,339V520H640.35Z"/><g id="birds"><path class="cls-16" d="M455.39,144.88s-4-1.79-5.9,0c0,0,3.7-.55,5.9,2.19,2.2-2.74,5.91-2.19,5.91-2.19C459.37,143.09,455.39,144.88,455.39,144.88Z"/><path class="cls-16" d="M349.5,126.74s-5-2.25-7.43,0c0,0,4.67-.7,7.43,2.76,2.76-3.46,7.43-2.76,7.43-2.76C354.51,124.49,349.5,126.74,349.5,126.74Z"/><path class="cls-16" d="M506.35,165.83s-6.65-3-9.86,0c0,0,6.19-.92,9.86,3.67,3.67-4.59,9.87-3.67,9.87-3.67C513,162.85,506.35,165.83,506.35,165.83Z"/><path class="cls-16" d="M480,148.59s-2.34-1.05-3.47,0a4,4,0,0,1,3.47,1.29,4,4,0,0,1,3.47-1.29C482.31,147.54,480,148.59,480,148.59Z"/><path class="cls-16" d="M569.34,148.61s-2.19-1-3.24,0a4.94,4.94,0,0,0,6.48,0C571.52,147.63,569.34,148.61,569.34,148.61Z"/><path class="cls-16" d="M397.61,141.67s-2.18-1-3.24,0a3.73,3.73,0,0,1,3.24,1.21,3.75,3.75,0,0,1,3.25-1.21C399.8,140.69,397.61,141.67,397.61,141.67Z"/><path class="cls-16" d="M322.17,164.09s-2.34-1.05-3.47,0a4,4,0,0,1,3.47,1.29,4,4,0,0,1,3.47-1.29C324.51,163,322.17,164.09,322.17,164.09Z"/></g><path id="m1" class="cls-17" d="M403.85,502.33s-20-5-25.07-6.66S363,490,363,490l-10.19-1.67-9.3-8.66-11,1.33s-5.64-11-5.83-12.79-4.24-6.93-4.24-6.93-9.94,5.76-13,4.24a10.33,10.33,0,0,0-5.53-1.17L299.33,456s-2.33-.67-1.66-8-2.34-15.33-2.34-15.33l-4.66-2.34-7.34,6s2.34,14.34,2.34,15.34-2.34,12.68-2.34,12.68H278l-9.67,3.12L261,473.19l-3,.62-6-6.34s1,6.89-3.67-3.12-2-10.35-4.66-10-6.34,5.34-6.34,5.34L233,449.33h-3l-5.33-9s-3,.67-3.67,2-6,20.61-6,20.61-1.33,7.41-2.33,7.57-6.34,5.55-6.34,5.55l-2.66,8.61-17-1.34-15-.66-4-2.34-9-16,1.66-22L156,439s-4.33,1.33-4.33-6.33-11.34-7-9.34-18.67,8.34-23.33,6.34-28.67-13.67-13-16-29.66-2.34-19-7.34-21.67-4.66-11-4.66-18.67-3.34-6-5.67-14.33-11-29-11-29-3,12.33-4.67,16.67-2.66,17-2.66,22.66-4.34,13.34-4.34,13.34C88,328.33,90,341,90,348.67s8,37,3.33,43-7,8-6.66,11,4.27,11,0,19.33-6.31,14-7,20.67-6,23.05-6,23.05-6-10.05-5.34-16.39S70,439,70,433.67s2.33-7,3.33-12.67S75,403.33,75,403.33a127.57,127.57,0,0,1-1.67-20c0-10.66-3-25.33-3-25.33S67,348.33,64,343.33s-7.33-4-7-13,1-22.33-2-28-7-6.66-7.33-13.33,3.33-19.33,0-26.67,3.95-9,0-16.33-7.32-6.33-9.32-11.67a20.13,20.13,0,0,0-6-8.33v-8.33s-4,1.33-4.66,8.33-3.34,10-3,13.67,4,18-1.67,25.66S15.67,289,15.67,289s-2.34,19.33-3,21.67-4,59-8.34,65-9,17.66-9,17.66l-5,28.67v91.67H756.67V363.33s-5.34-16.33-9-28.33-1-13.67-5-20-4-20-6.67-22-2,13.33-4.67,18.33-1.33,21-3.33,25S725.33,350,725.33,350s-4.66,1.67-7.33,1.33-1,5-4,9a60.41,60.41,0,0,1-7.67,8s-1,9.67-3.33,14-2.33,10-3.33,16.67-.67,12.33-2.67,9.67-1.33-7.67-1.33-7.67-4-.67-4-4.33V384s-5.34-10-7-18.33-.67-16.34-3-17-.67,16-2.67,18.66-6.67,14-7,19,.67,13.34-.67,16S666.67,409.67,667,419s1.67,14.33-1.67,19-9,9.67-9.66,14.67-2,12-2,12-1.34-8-3-14-5-14-5-14-4.34-15.67-7.34-20.34-1.33-16-3.66-17-4.34,12.34-4.34,12.34-6.66,12.66-7.66,20S621,444,621,444s-12.67,1.67-15,6.67-5.33,10.61-5.33,10.61-4,1.31-5.34,4.85a63.81,63.81,0,0,1-5,9.16l-8,.06-7,.71s-19,8.61-21.33,9.27-2.67-9.05-4.67-11.52-2-9.11-2-9.11-2.33.95-2.66,5.79A89.18,89.18,0,0,1,543,481.33l-14.67,7.34s-20,4-24.33,5-24,8.66-24,8.66l-10,2.34s-25.44,1-27.39,1.33S419,504.33,419,504.33Z"/></g></g></svg>