<svg id="Layer_1" data-name="Layer 1" xmlns="http://www.w3.org/2000/svg" xmlns:xlink="http://www.w3.org/1999/xlink" viewBox="0 0 915 408"><defs><style>.cls-1{fill:none;}.cls-2{clip-path:url(#clip-path);}.cls-3{fill:#1a0066;}.cls-4{fill:#1b0167;}.cls-5{fill:#1b0268;}.cls-6{fill:#1c0469;}.cls-7{fill:#1c056a;}.cls-8{fill:#1d066b;}.cls-9{fill:#1e076d;}.cls-10{fill:#1e086e;}.cls-11{fill:#1f0a6f;}.cls-12{fill:#200b70;}.cls-13{fill:#200c71;}.cls-14{fill:#210d72;}.cls-15{fill:#210e73;}.cls-16{fill:#220f74;}.cls-17{fill:#231175;}.cls-18{fill:#231276;}.cls-19{fill:#241377;}.cls-20{fill:#241478;}.cls-21{fill:#251579;}.cls-22{fill:#26167a;}.cls-23{fill:#26177b;}.cls-24{fill:#27197c;}.cls-25{fill:#271a7d;}.cls-26{fill:#281b7e;}.cls-27{fill:#281c7f;}.cls-28{fill:#291d80;}.cls-29{fill:#2a1e81;}.cls-30{fill:#2a1f82;}.cls-31{fill:#2b2184;}.cls-32{fill:#2b2285;}.cls-33{fill:#2c2386;}.cls-34{fill:#2d2487;}.cls-35{fill:#2d2588;}.cls-36{fill:#2e2689;}.cls-37{fill:#2e278a;}.cls-38{fill:#2f288b;}.cls-39{fill:#2f298c;}.cls-40{fill:#302a8c;}.cls-41{fill:#302b8d;}.cls-42{fill:#312d8e;}.cls-43{fill:#322e8f;}.cls-44{fill:#322f90;}.cls-45{fill:#333091;}.cls-46{fill:#333192;}.cls-47{fill:#343293;}.cls-48{fill:#343394;}.cls-49{fill:#353495;}.cls-50{fill:#353596;}.cls-51{fill:#363697;}.cls-52{fill:#363798;}.cls-53{fill:#373899;}.cls-54{fill:#38399a;}.cls-55{fill:#383a9b;}.cls-56{fill:#393b9c;}.cls-57{fill:#393c9d;}.cls-58{fill:#3a3d9d;}.cls-59{fill:#3a3e9e;}.cls-60{fill:#3b3f9f;}.cls-61{fill:#3b40a0;}.cls-62{fill:#3c41a1;}.cls-63{fill:#3c42a2;}.cls-64{fill:#3d43a3;}.cls-65{fill:#3d44a4;}.cls-66{fill:#3e45a5;}.cls-67{fill:#3e46a5;}.cls-68{fill:#3f47a6;}.cls-69{fill:#3f48a7;}.cls-70{fill:#4049a8;}.cls-71{fill:#4049a9;}.cls-72{fill:#404aa9;}.cls-73{fill:#414baa;}.cls-74{fill:#414cab;}.cls-75{fill:#424dac;}.cls-76{fill:#424ead;}.cls-77{fill:#434fad;}.cls-78{fill:#434fae;}.cls-79{fill:#4450af;}.cls-80{fill:#4451b0;}.cls-81{fill:#4452b0;}.cls-82{fill:#4553b1;}.cls-83{fill:#4553b2;}.cls-84{fill:#4554b2;}.cls-85{fill:#4655b3;}.cls-86{fill:#4655b4;}.cls-87{fill:#4656b4;}.cls-88{fill:#4757b5;}.cls-89{fill:#4658b5;}.cls-90{fill:#4659b6;}.cls-91{fill:#455ab6;}.cls-92{fill:#445bb7;}.cls-93{fill:#435cb7;}.cls-94{fill:#435db8;}.cls-95{fill:#425eb8;}.cls-96{fill:#415fb8;}.cls-97{fill:#405fb9;}.cls-98{fill:#4060b9;}.cls-99{fill:#3f61ba;}.cls-100{fill:#3e62ba;}.cls-101{fill:#3d63bb;}.cls-102{fill:#3c64bb;}.cls-103{fill:#3c65bc;}.cls-104{fill:#3b66bc;}.cls-105{fill:#3a67bc;}.cls-106{fill:#3968bd;}.cls-107{fill:#3969bd;}.cls-108{fill:#386abe;}.cls-109{fill:#376bbe;}.cls-110{fill:#366cbf;}.cls-111{fill:#356dbf;}.cls-112{fill:#356ec0;}.cls-113{fill:#346fc0;}.cls-114{fill:#3370c1;}.cls-115{fill:#3271c1;}.cls-116{fill:#3172c1;}.cls-117{fill:#3173c2;}.cls-118{fill:#3074c2;}.cls-119{fill:#2f75c3;}.cls-120{fill:#2e76c3;}.cls-121{fill:#2d77c4;}.cls-122{fill:#2d78c4;}.cls-123{fill:#2c79c5;}.cls-124{fill:#2b7ac5;}.cls-125{fill:#2a7bc6;}.cls-126{fill:#297cc6;}.cls-127{fill:#297dc7;}.cls-128{fill:#287ec7;}.cls-129{fill:#277fc7;}.cls-130{fill:#2681c8;}.cls-131{fill:#2582c8;}.cls-132{fill:#2583c9;}.cls-133{fill:#2484c9;}.cls-134{fill:#2385ca;}.cls-135{fill:#2286ca;}.cls-136{fill:#2187cb;}.cls-137{fill:#2188cb;}.cls-138{fill:#2089cc;}.cls-139{fill:#1f8acc;}.cls-140{fill:#1e8bcd;}.cls-141{fill:#1d8ccd;}.cls-142{fill:#1d8dcd;}.cls-143{fill:#1c8ece;}.cls-144{fill:#1b8fce;}.cls-145{fill:#1a90cf;}.cls-146{fill:#1991cf;}.cls-147{fill:#1992d0;}.cls-148{fill:#1893d0;}.cls-149{fill:#1794d1;}.cls-150{fill:#1695d1;}.cls-151{fill:#1596d2;}.cls-152{fill:#1497d2;}.cls-153{fill:#1498d3;}.cls-154{fill:#1399d3;}.cls-155{fill:#129ad4;}.cls-156{fill:#119bd4;}.cls-157{fill:#109cd5;}.cls-158{fill:#109dd5;}.cls-159{fill:#0f9ed5;}.cls-160{fill:#0e9fd6;}.cls-161{fill:#0da0d6;}.cls-162{fill:#0ca1d7;}.cls-163{fill:#0ba2d7;}.cls-164{fill:#0ba3d8;}.cls-165{fill:#0aa5d8;}.cls-166{fill:#09a6d9;}.cls-167{fill:#08a7d9;}.cls-168{fill:#07a8da;}.cls-169{fill:#07a9da;}.cls-170{fill:#06aadb;}.cls-171{fill:#05abdb;}.cls-172{fill:#04acdc;}.cls-173{fill:#03addc;}.cls-174{fill:#02aedd;}.cls-175{fill:#02afdd;}.cls-176{fill:#01b0de;}.cls-177{fill:#00b1de;}.cls-178,.cls-179{fill:#77bdff;}.cls-178,.cls-180{fill-rule:evenodd;}.cls-180,.cls-181{fill:#fff;}</style><clipPath id="clip-path" transform="translate(-502.31 -336.42)"><rect id="SVGID" class="cls-1" x="510.31" y="336.42" width="900" height="400"/></clipPath></defs><g id="bg"><g class="cls-2"><path class="cls-3" d="M510.31,336.42h900v400h-900Z" transform="translate(-502.31 -336.42)"/></g><g class="cls-2"><path class="cls-3" d="M1411.31,650.42v63l-11,30v-6h-883v6l-11-30h3v-125h-3a218.29,218.29,0,0,1,27-58c23-37,57-71,99-99,83-56,199-90,327-90s243,34,326,90c42,28,76,62,99,99a218.29,218.29,0,0,1,27,58Z" transform="translate(-502.31 -336.42)"/></g><g class="cls-2"><path class="cls-4" d="M1411.31,650.42v32h5a215.16,215.16,0,0,1-18,60v-5h-879v5c-5-9-8-19-11-29h1v-125h-1c6-20,15-39,26-58,24-37,57-70,99-98,83-56,198-90,326-90s242,34,325,90c42,28,75,61,99,98a240.27,240.27,0,0,1,33,89h-5Z" transform="translate(-502.31 -336.42)"/></g><g class="cls-2"><path class="cls-5" d="M1417.31,650.42a212,212,0,0,1-21,92v-5h-875v5a229.84,229.84,0,0,1-19-60h7v-63h-7a213.94,213.94,0,0,1,34-88c23-37,57-70,98-98,83-56,198-90,325-90C1212.31,343.42,1417.31,481.42,1417.31,650.42Z" transform="translate(-502.31 -336.42)"/></g><g class="cls-2"><path class="cls-6" d="M1415.31,650.42a210.92,210.92,0,0,1-20,92v-5h-873v5a226.77,226.77,0,0,1-18-60h5v-63h-5a213.94,213.94,0,0,1,34-88c23-36,56-69,98-97,82-56,196-90,323-90C1211.31,344.42,1415.31,481.42,1415.31,650.42Z" transform="translate(-502.31 -336.42)"/></g><g class="cls-2"><path class="cls-7" d="M1413.31,650.42a210.1,210.1,0,0,1-20,91v-4h-869v4a226.89,226.89,0,0,1-20-91c0-168,203-305,455-305C1210.31,345.42,1413.31,482.42,1413.31,650.42Z" transform="translate(-502.31 -336.42)"/></g><g class="cls-2"><path class="cls-8" d="M1412.31,650.42a209.11,209.11,0,0,1-21,91v-4h-865v4a226,226,0,0,1-21-91c0-167,203-304,454-304C1209.31,347.42,1412.31,483.42,1412.31,650.42Z" transform="translate(-502.31 -336.42)"/></g><g class="cls-2"><path class="cls-9" d="M1410.31,650.42a209,209,0,0,1-20,91v-4h-863v3a222.76,222.76,0,0,1-20-90c0-167,202-302,452-302S1410.31,483.42,1410.31,650.42Z" transform="translate(-502.31 -336.42)"/></g><g class="cls-2"><path class="cls-10" d="M1408.31,650.42a208,208,0,0,1-20,90v-3h-859v3a224.87,224.87,0,0,1-20-90c0-166,201-301,450-301C1207.31,349.42,1408.31,484.42,1408.31,650.42Z" transform="translate(-502.31 -336.42)"/></g><g class="cls-2"><path class="cls-11" d="M1406.31,650.42a207,207,0,0,1-20,90v-3h-855v3a222.76,222.76,0,0,1-20-90c0-165,200-300,448-300S1406.31,485.42,1406.31,650.42Z" transform="translate(-502.31 -336.42)"/></g><g class="cls-2"><path class="cls-12" d="M1405.31,650.42a206,206,0,0,1-20,89v-2h-853v2a222.9,222.9,0,0,1-20-89c0-165,200-299,447-299C1205.31,351.42,1405.31,485.42,1405.31,650.42Z" transform="translate(-502.31 -336.42)"/></g><g class="cls-2"><path class="cls-13" d="M1403.31,650.42a205.07,205.07,0,0,1-20,89v-2h-849v2a220.78,220.78,0,0,1-20-89c0-164,199-298,445-298C1204.31,352.42,1403.31,486.42,1403.31,650.42Z" transform="translate(-502.31 -336.42)"/></g><g class="cls-2"><path class="cls-14" d="M1401.31,650.42a205.07,205.07,0,0,1-20,89v-2h-845v2a219.91,219.91,0,0,1-20-89c0-164,198-296,443-296C1203.31,354.42,1401.31,487.42,1401.31,650.42Z" transform="translate(-502.31 -336.42)"/></g><g class="cls-2"><path class="cls-15" d="M1399.31,650.42a204.12,204.12,0,0,1-20,88v-1h-841v1a220.89,220.89,0,0,1-20-88c0-163,197-295,441-295S1399.31,487.42,1399.31,650.42Z" transform="translate(-502.31 -336.42)"/></g><g class="cls-2"><path class="cls-16" d="M1398.31,650.42a203,203,0,0,1-20,88v-1h-839v1a218.76,218.76,0,0,1-20-88c0-162,197-294,440-294C1201.31,356.42,1398.31,488.42,1398.31,650.42Z" transform="translate(-502.31 -336.42)"/></g><g class="cls-2"><path class="cls-17" d="M1396.31,650.42a202,202,0,0,1-20,88v-1h-835v1a216.83,216.83,0,0,1-20-88c0-162,196-293,438-293C1200.31,357.42,1396.31,488.42,1396.31,650.42Z" transform="translate(-502.31 -336.42)"/></g><g class="cls-2"><path class="cls-18" d="M1394.31,650.42a201,201,0,0,1-20,87h-831a216.78,216.78,0,0,1-20-87c0-161,195-292,435-292C1199.31,358.42,1394.31,489.42,1394.31,650.42Z" transform="translate(-502.31 -336.42)"/></g><g class="cls-2"><path class="cls-19" d="M1392.31,650.42a200.07,200.07,0,0,1-23,94v-7h-821v7a223.79,223.79,0,0,1-23-94c0-160,194-291,434-290C1198.31,360.42,1392.31,490.42,1392.31,650.42Z" transform="translate(-502.31 -336.42)"/></g><g class="cls-2"><path class="cls-20" d="M1390.31,650.42a199,199,0,0,1-22,93v-6h-819v6a248,248,0,0,1-14-34,233.15,233.15,0,0,1-8-59c0-160,193-289,432-289S1390.31,490.42,1390.31,650.42Z" transform="translate(-502.31 -336.42)"/></g><g class="cls-2"><path class="cls-21" d="M1389.31,650.42a199,199,0,0,1-23,93v-6h-815v6a219.86,219.86,0,0,1-23-93c0-159,193-288,431-288C1196.31,362.42,1389.31,491.42,1389.31,650.42Z" transform="translate(-502.31 -336.42)"/></g><g class="cls-2"><path class="cls-22" d="M1387.31,650.42a198.05,198.05,0,0,1-23,93v-6h-811v6a229.36,229.36,0,0,1-14-35,185.29,185.29,0,0,1-9-58c0-158,192-287,429-287C1195.31,363.42,1387.31,492.42,1387.31,650.42Z" transform="translate(-502.31 -336.42)"/></g><g class="cls-2"><path class="cls-23" d="M1385.31,650.42a197,197,0,0,1-22,92v-5h-809v5a226.32,226.32,0,0,1-14-34c-5-19-8-38-8-58,0-158,191-286,427-286C1194.31,364.42,1385.31,492.42,1385.31,650.42Z" transform="translate(-502.31 -336.42)"/></g><g class="cls-2"><path class="cls-24" d="M1383.31,650.42a196,196,0,0,1-22,92v-5h-805v5a225.28,225.28,0,0,1-14-34c-5-19-8-38-8-58,0-157,190-285,425-285S1383.31,493.42,1383.31,650.42Z" transform="translate(-502.31 -336.42)"/></g><g class="cls-2"><path class="cls-25" d="M1382.31,650.42a195,195,0,0,1-23,92v-5h-801v4a223.79,223.79,0,0,1-14-33,189.94,189.94,0,0,1-9-58c0-156,190-283,424-283C1192.31,367.42,1382.31,494.42,1382.31,650.42Z" transform="translate(-502.31 -336.42)"/></g><g class="cls-2"><path class="cls-26" d="M1380.31,650.42a195.09,195.09,0,0,1-22,91v-4h-799v4a248.59,248.59,0,0,1-13-34,179.06,179.06,0,0,1-9-57c0-156,189-282,422-282S1380.31,494.42,1380.31,650.42Z" transform="translate(-502.31 -336.42)"/></g><g class="cls-2"><path class="cls-27" d="M1378.31,650.42a194.07,194.07,0,0,1-22,91v-4h-795v4a209,209,0,0,1-22-91c0-155,188-281,420-281C1190.31,369.42,1378.31,495.42,1378.31,650.42Z" transform="translate(-502.31 -336.42)"/></g><g class="cls-2"><path class="cls-28" d="M1376.31,650.42a193,193,0,0,1-22,90v-3h-791v3a231.87,231.87,0,0,1-14-33,212.1,212.1,0,0,1-8-57c0-154,187-280,418-280C1189.31,370.42,1376.31,496.42,1376.31,650.42Z" transform="translate(-502.31 -336.42)"/></g><g class="cls-2"><path class="cls-29" d="M1375.31,650.42a192,192,0,0,1-22,90v-3h-789v3a229.37,229.37,0,0,1-13-33,183.63,183.63,0,0,1-9-57c0-154,187-279,417-279C1188.31,371.42,1375.31,496.42,1375.31,650.42Z" transform="translate(-502.31 -336.42)"/></g><g class="cls-2"><path class="cls-30" d="M1373.31,650.42a191,191,0,0,1-22,90v-3h-785v3a213.69,213.69,0,0,1-13-34,173,173,0,0,1-9-56c0-153,186-277,415-277S1373.31,497.42,1373.31,650.42Z" transform="translate(-502.31 -336.42)"/></g><g class="cls-2"><path class="cls-31" d="M1371.31,650.42a191,191,0,0,1-22,89v-2h-781v2a240,240,0,0,1-14-33,204.77,204.77,0,0,1-8-56c0-152,185-276,413-276C1186.31,374.42,1371.31,498.42,1371.31,650.42Z" transform="translate(-502.31 -336.42)"/></g><g class="cls-2"><path class="cls-32" d="M1369.31,650.42a190,190,0,0,1-21,89v-2h-779v2a200.9,200.9,0,0,1-21-89c0-152,184-275,411-275S1369.31,498.42,1369.31,650.42Z" transform="translate(-502.31 -336.42)"/></g><g class="cls-2"><path class="cls-33" d="M1368.31,650.42a188.94,188.94,0,0,1-22,88v-1h-775v1a198.94,198.94,0,0,1-22-88c0-151,184-274,410-274S1368.31,499.42,1368.31,650.42Z" transform="translate(-502.31 -336.42)"/></g><g class="cls-2"><path class="cls-34" d="M1366.31,650.42a188,188,0,0,1-22,88v-1h-771v1a207.92,207.92,0,0,1-22-88c0-150,183-273,408-273C1183.31,377.42,1366.31,500.42,1366.31,650.42Z" transform="translate(-502.31 -336.42)"/></g><g class="cls-2"><path class="cls-35" d="M1364.31,650.42a187,187,0,0,1-25,94v-7h-761v7a216.44,216.44,0,0,1-17-39,197.58,197.58,0,0,1-8-55c0-150,182-272,406-272S1364.31,500.42,1364.31,650.42Z" transform="translate(-502.31 -336.42)"/></g><g class="cls-2"><path class="cls-36" d="M1362.31,650.42a186.07,186.07,0,0,1-24,94v-7h-759v7a220.64,220.64,0,0,1-16-39c-5-18-8-36-8-55,0-149,181-270,404-270C1181.31,380.42,1362.31,501.42,1362.31,650.42Z" transform="translate(-502.31 -336.42)"/></g><g class="cls-2"><path class="cls-37" d="M1360.31,650.42a185,185,0,0,1-24,93v-6h-755v6a217.79,217.79,0,0,1-16-38c-6-18-8-36-8-55,0-148,180-269,402-269S1360.31,502.42,1360.31,650.42Z" transform="translate(-502.31 -336.42)"/></g><g class="cls-2"><path class="cls-38" d="M1359.31,650.42a185,185,0,0,1-25,93v-6h-751v6a216.33,216.33,0,0,1-17-38c-5-18-8-36-8-55,0-148,179-268,401-268C1180.31,382.42,1359.31,502.42,1359.31,650.42Z" transform="translate(-502.31 -336.42)"/></g><g class="cls-2"><path class="cls-39" d="M1357.31,650.42a184,184,0,0,1-24,92v-5h-749v5a210.92,210.92,0,0,1-16-38,190.53,190.53,0,0,1-8-54c0-147,178-267,399-267C1179.31,383.42,1357.31,503.42,1357.31,650.42Z" transform="translate(-502.31 -336.42)"/></g><g class="cls-2"><path class="cls-40" d="M1355.31,650.42a183.09,183.09,0,0,1-24,92v-5h-745v5a222.36,222.36,0,0,1-16-38,190.53,190.53,0,0,1-8-54c0-147,177-266,397-266C1178.31,384.42,1355.31,504.42,1355.31,650.42Z" transform="translate(-502.31 -336.42)"/></g><g class="cls-2"><path class="cls-41" d="M1353.31,650.42a182,182,0,0,1-24,92v-5h-741v5a210.92,210.92,0,0,1-16-38c-6-17-8-35-8-54,0-146,176-264,395-264C1177.31,386.42,1353.31,504.42,1353.31,650.42Z" transform="translate(-502.31 -336.42)"/></g><g class="cls-2"><path class="cls-42" d="M1352.31,650.42a181.06,181.06,0,0,1-24,91v-4h-739v4a209.36,209.36,0,0,1-16-37c-5-18-8-35-8-54,0-145,176-263,394-263C1176.31,387.42,1352.31,505.42,1352.31,650.42Z" transform="translate(-502.31 -336.42)"/></g><g class="cls-2"><path class="cls-43" d="M1350.31,650.42a181.06,181.06,0,0,1-24,91v-4h-735v4a207.5,207.5,0,0,1-16-38,183.6,183.6,0,0,1-8-53c0-145,175-262,392-262C1175.31,388.42,1350.31,505.42,1350.31,650.42Z" transform="translate(-502.31 -336.42)"/></g><g class="cls-2"><path class="cls-44" d="M1348.31,650.42a180,180,0,0,1-24,90v-3h-731v3a205.83,205.83,0,0,1-16-37,189,189,0,0,1-8-53c0-144,174-261,390-261C1174.31,389.42,1348.31,506.42,1348.31,650.42Z" transform="translate(-502.31 -336.42)"/></g><g class="cls-2"><path class="cls-45" d="M1346.31,650.42a179.07,179.07,0,0,1-23,90v-3h-729v3a206.48,206.48,0,0,1-15-37c-6-17-8-35-8-53,0-143,173-260,388-260C1173.31,390.42,1346.31,507.42,1346.31,650.42Z" transform="translate(-502.31 -336.42)"/></g><g class="cls-2"><path class="cls-46" d="M1345.31,650.42a178.09,178.09,0,0,1-24,89v-2h-725v2a211,211,0,0,1-16-36,189,189,0,0,1-8-53c0-143,173-259,387-259C1172.31,391.42,1345.31,507.42,1345.31,650.42Z" transform="translate(-502.31 -336.42)"/></g><g class="cls-2"><path class="cls-47" d="M1343.31,650.42a177,177,0,0,1-24,89v-2h-722v2a199.61,199.61,0,0,1-15-37,176.81,176.81,0,0,1-8-52c0-142,172-257,385-257C1171.31,393.42,1343.31,508.42,1343.31,650.42Z" transform="translate(-502.31 -336.42)"/></g><g class="cls-2"><path class="cls-48" d="M1341.31,650.42a177,177,0,0,1-23,89v-2h-719v2a200.31,200.31,0,0,1-15-37c-5-17-8-34-8-52,0-141,171-256,383-256C1170.31,394.42,1341.31,509.42,1341.31,650.42Z" transform="translate(-502.31 -336.42)"/></g><g class="cls-2"><path class="cls-49" d="M1339.31,650.42a176.09,176.09,0,0,1-23,88v-1h-715v1a202.19,202.19,0,0,1-16-36c-5-17-7-34-7-52,0-141,170-255,381-255C1169.31,395.42,1339.31,509.42,1339.31,650.42Z" transform="translate(-502.31 -336.42)"/></g><g class="cls-2"><path class="cls-50" d="M1338.31,650.42a175,175,0,0,1-23,88v-1h-713v1a200.32,200.32,0,0,1-15-36c-5-17-8-34-8-52,0-140,170-254,380-254C1168.31,396.42,1338.31,510.42,1338.31,650.42Z" transform="translate(-502.31 -336.42)"/></g><g class="cls-2"><path class="cls-51" d="M1336.31,650.42a174.06,174.06,0,0,1-23,87h-709a201.05,201.05,0,0,1-15-36,170.15,170.15,0,0,1-8-51c0-139,169-253,378-253S1336.31,511.42,1336.31,650.42Z" transform="translate(-502.31 -336.42)"/></g><g class="cls-2"><path class="cls-52" d="M1334.31,650.42a173.06,173.06,0,0,1-23,87h-705a199.6,199.6,0,0,1-15-36,170.15,170.15,0,0,1-8-51c0-139,168-251,376-251C1166.31,399.42,1334.31,511.42,1334.31,650.42Z" transform="translate(-502.31 -336.42)"/></g><g class="cls-2"><path class="cls-53" d="M1332.31,650.42a172.06,172.06,0,0,1-26,92v-5h-695v5a182,182,0,0,1-26-92c0-138,167-250,374-250S1332.31,512.42,1332.31,650.42Z" transform="translate(-502.31 -336.42)"/></g><g class="cls-2"><path class="cls-54" d="M1330.31,650.42a172,172,0,0,1-25,92v-5h-693v5a201.55,201.55,0,0,1-18-41,174.51,174.51,0,0,1-7-51c0-137,166-249,372-249C1164.31,401.42,1330.31,513.42,1330.31,650.42Z" transform="translate(-502.31 -336.42)"/></g><g class="cls-2"><path class="cls-55" d="M1329.31,650.42a171,171,0,0,1-26,92v-5h-689v4a199.37,199.37,0,0,1-18-41,163.63,163.63,0,0,1-8-50c0-137,166-248,371-248S1329.31,513.42,1329.31,650.42Z" transform="translate(-502.31 -336.42)"/></g><g class="cls-2"><path class="cls-56" d="M1327.31,650.42a170,170,0,0,1-26,91v-4h-685v4a197.83,197.83,0,0,1-18-41,163.63,163.63,0,0,1-8-50c0-136,165-247,369-247C1162.31,403.42,1327.31,514.42,1327.31,650.42Z" transform="translate(-502.31 -336.42)"/></g><g class="cls-2"><path class="cls-57" d="M1325.31,650.42a169.08,169.08,0,0,1-25,91v-4h-683v4a184,184,0,0,1-25-91c0-135,164-246,367-245S1325.31,515.42,1325.31,650.42Z" transform="translate(-502.31 -336.42)"/></g><g class="cls-2"><path class="cls-58" d="M1323.31,650.42a168,168,0,0,1-25,90v-3h-679v3a194.25,194.25,0,0,1-18-40c-5-16-7-33-7-50,0-135,163-244,365-244C1160.31,406.42,1323.31,515.42,1323.31,650.42Z" transform="translate(-502.31 -336.42)"/></g><g class="cls-2"><path class="cls-59" d="M1322.31,650.42a168,168,0,0,1-26,90v-3h-675v3a217.68,217.68,0,0,1-18-40,168.69,168.69,0,0,1-8-50c0-134,163-243,364-243S1322.31,516.42,1322.31,650.42Z" transform="translate(-502.31 -336.42)"/></g><g class="cls-2"><path class="cls-60" d="M1320.31,650.42a167,167,0,0,1-25,89v-2h-673v2a201.56,201.56,0,0,1-18-40c-4-16-7-32-7-49,0-133,162-242,362-242C1158.31,408.42,1320.31,517.42,1320.31,650.42Z" transform="translate(-502.31 -336.42)"/></g><g class="cls-2"><path class="cls-61" d="M1318.31,650.42a166,166,0,0,1-25,89v-2h-669v2a214.45,214.45,0,0,1-18-40c-5-16-7-32-7-49,0-133,161-241,360-241S1318.31,517.42,1318.31,650.42Z" transform="translate(-502.31 -336.42)"/></g><g class="cls-2"><path class="cls-62" d="M1316.31,650.42c0,34-10,65-28,94v-7h-659v7c-18-29-28-60-28-94,0-132,160-240,357-240C1156.31,410.42,1316.31,518.42,1316.31,650.42Z" transform="translate(-502.31 -336.42)"/></g><g class="cls-2"><path class="cls-63" d="M1315.31,650.42c0,33-10,65-28,93v-6h-657v6c-18-28-28-60-28-93,0-131,160-238,357-238C1155.31,412.42,1315.31,519.42,1315.31,650.42Z" transform="translate(-502.31 -336.42)"/></g><g class="cls-2"><path class="cls-64" d="M1313.31,650.42c0,33-10,65-28,93v-6h-653v6c-18-28-28-60-28-93,0-131,159-237,355-237C1154.31,413.42,1313.31,519.42,1313.31,650.42Z" transform="translate(-502.31 -336.42)"/></g><g class="cls-2"><path class="cls-65" d="M1311.31,650.42c0,33-10,64-28,92v-5h-649v5c-18-28-28-59-28-92,0-130,158-236,353-236C1153.31,414.42,1311.31,520.42,1311.31,650.42Z" transform="translate(-502.31 -336.42)"/></g><g class="cls-2"><path class="cls-66" d="M1309.31,650.42c0,33-10,64-27,92v-5h-647v5c-17-28-27-59-27-92,0-130,157-235,351-235C1152.31,415.42,1309.31,521.42,1309.31,650.42Z" transform="translate(-502.31 -336.42)"/></g><g class="cls-2"><path class="cls-67" d="M1308.31,650.42c0,33-10,64-28,92v-5h-643v5c-18-28-28-59-28-92,0-129,157-234,350-234C1151.31,416.42,1308.31,521.42,1308.31,650.42Z" transform="translate(-502.31 -336.42)"/></g><g class="cls-2"><path class="cls-68" d="M1306.31,650.42c0,33-10,63-28,91v-4h-639v4c-18-28-28-58-28-91,0-128,156-232,348-232C1150.31,418.42,1306.31,522.42,1306.31,650.42Z" transform="translate(-502.31 -336.42)"/></g><g class="cls-2"><path class="cls-69" d="M1304.31,650.42c0,32-10,63-27,91v-4h-637v4c-17-28-27-59-27-91,0-128,155-231,346-231C1149.31,419.42,1304.31,522.42,1304.31,650.42Z" transform="translate(-502.31 -336.42)"/></g><g class="cls-2"><path class="cls-70" d="M1302.31,650.42a161.07,161.07,0,0,1-27,90v-3h-633v3a161.07,161.07,0,0,1-27-90c0-127,154-230,343-230S1302.31,523.42,1302.31,650.42Z" transform="translate(-502.31 -336.42)"/></g><g class="cls-2"><path class="cls-71" d="M1300.31,650.42c0,32-9,62-26,90v-3h-631v3c-17-28-26-58-26-90,0-126,153-229,342-229C1147.31,421.42,1300.31,524.42,1300.31,650.42Z" transform="translate(-502.31 -336.42)"/></g><g class="cls-2"><path class="cls-72" d="M1299.31,650.42c0,32-10,62-27,89v-2h-627v2c-17-27-27-57-27-89,0-126,153-228,341-228C1146.31,422.42,1299.31,524.42,1299.31,650.42Z" transform="translate(-502.31 -336.42)"/></g><g class="cls-2"><path class="cls-73" d="M1297.31,650.42c0,32-10,62-27,89v-2h-623v2c-17-27-27-57-27-89,0-125,152-227,339-227C1145.31,423.42,1297.31,525.42,1297.31,650.42Z" transform="translate(-502.31 -336.42)"/></g><g class="cls-2"><path class="cls-74" d="M1295.31,650.42c0,32-9,61-26,88v-1h-621v1c-17-27-26-56-26-88,0-124,151-225,337-225C1144.31,425.42,1295.31,526.42,1295.31,650.42Z" transform="translate(-502.31 -336.42)"/></g><g class="cls-2"><path class="cls-75" d="M1293.31,650.42c0,31-9,61-26,88v-1h-617v1c-17-27-26-57-26-88,0-124,150-224,335-224C1143.31,426.42,1293.31,526.42,1293.31,650.42Z" transform="translate(-502.31 -336.42)"/></g><g class="cls-2"><path class="cls-76" d="M1292.31,650.42c0,31-10,61-27,87h-613c-17-26-27-56-27-87,0-123,150-223,334-223S1292.31,527.42,1292.31,650.42Z" transform="translate(-502.31 -336.42)"/></g><g class="cls-2"><path class="cls-77" d="M1290.31,650.42a161,161,0,0,1-29,92v-5h-605v5l-3-5c-17-27-26-56-26-87,0-122,148-222,332-222C1142.31,428.42,1290.31,528.42,1290.31,650.42Z" transform="translate(-502.31 -336.42)"/></g><g class="cls-2"><path class="cls-78" d="M1288.31,650.42a160.06,160.06,0,0,1-29,91v-4h-601v4l-3-5c-17-26-26-55-26-86,0-122,147-221,330-221C1141.31,429.42,1288.31,528.42,1288.31,650.42Z" transform="translate(-502.31 -336.42)"/></g><g class="cls-2"><path class="cls-79" d="M1286.31,650.42a159,159,0,0,1-29,91v-4h-597v4l-4-5c-16-26-25-55-25-86,0-121,146-219,328-219C1140.31,431.42,1286.31,529.42,1286.31,650.42Z" transform="translate(-502.31 -336.42)"/></g><g class="cls-2"><path class="cls-80" d="M1285.31,650.42a157.94,157.94,0,0,1-29,90v-3h-595v3a169.92,169.92,0,0,1-29-90c0-120,146-218,326-218C1139.31,432.42,1285.31,530.42,1285.31,650.42Z" transform="translate(-502.31 -336.42)"/></g><g class="cls-2"><path class="cls-81" d="M1283.31,650.42a157.94,157.94,0,0,1-29,90v-3h-591v3l-3-5c-17-26-26-55-26-85,0-120,145-217,325-217S1283.31,530.42,1283.31,650.42Z" transform="translate(-502.31 -336.42)"/></g><g class="cls-2"><path class="cls-82" d="M1281.31,650.42a157,157,0,0,1-28,89v-2h-589v2l-3-4c-16-26-25-55-25-85,0-119,144-216,323-216C1137.31,434.42,1281.31,531.42,1281.31,650.42Z" transform="translate(-502.31 -336.42)"/></g><g class="cls-2"><path class="cls-83" d="M1279.31,650.42a156,156,0,0,1-31,94v-7h-579v7l-6-10c-16-26-25-54-25-84,0-118,143-215,321-215C1136.31,435.42,1279.31,532.42,1279.31,650.42Z" transform="translate(-502.31 -336.42)"/></g><g class="cls-2"><path class="cls-84" d="M1277.31,650.42a155,155,0,0,1-31,93v-6h-575v6l-6-9c-17-26-26-54-26-84,0-118,143-214,319-214C1135.31,436.42,1278.31,532.42,1277.31,650.42Z" transform="translate(-502.31 -336.42)"/></g><g class="cls-2"><path class="cls-85" d="M1276.31,650.42a154,154,0,0,1-32,93v-6h-571v6l-7-10c-16-25-25-53-25-83,0-117,142-212,318-212C1134.31,438.42,1276.31,533.42,1276.31,650.42Z" transform="translate(-502.31 -336.42)"/></g><g class="cls-2"><path class="cls-86" d="M1274.31,650.42a153,153,0,0,1-31,92v-5h-569v5l-6-9c-16-26-25-53-25-83,0-116,141-211,315-211C1133.31,439.42,1274.31,534.42,1274.31,650.42Z" transform="translate(-502.31 -336.42)"/></g><g class="cls-2"><path class="cls-87" d="M1272.31,650.42a152,152,0,0,1-31,92v-5h-565v5l-7-10c-15-25-24-53-24-82,0-116,140-210,313-210C1132.31,440.42,1272.31,534.42,1272.31,650.42Z" transform="translate(-502.31 -336.42)"/></g><g class="cls-2"><path class="cls-88" d="M1270.31,650.42a152,152,0,0,1-30,91v-4h-563v4l-6-9a150.74,150.74,0,0,1-24-82c0-115,139-209,311-209C1131.31,441.42,1270.31,535.42,1270.31,650.42Z" transform="translate(-502.31 -336.42)"/></g><g class="cls-2"><path class="cls-88" d="M1269.31,650.42a151,151,0,0,1-31,91v-4h-559v4l-6-10a146,146,0,0,1-25-81c0-114,139-208,311-208C1130.31,442.42,1269.31,536.42,1269.31,650.42Z" transform="translate(-502.31 -336.42)"/></g><g class="cls-2"><path class="cls-88" d="M1267.31,650.42a150,150,0,0,1-31,90v-3h-556v3l-6-9c-15-25-24-52-24-81,0-114,138-206,308-206S1267.31,536.42,1267.31,650.42Z" transform="translate(-502.31 -336.42)"/></g><g class="cls-2"><path class="cls-89" d="M1263.31,650.42a148,148,0,0,1-30,89v-2h-549v2l-7-9c-15-24-24-51-24-80,1-113,137-204,305-204S1263.31,537.42,1263.31,650.42Z" transform="translate(-502.31 -336.42)"/></g><g class="cls-2"><path class="cls-90" d="M1260.31,650.42a147.05,147.05,0,0,1-30,88v-1h-543v1l-6-9a141,141,0,0,1-24-79c0-111,135-202,302-202S1260.31,539.42,1260.31,650.42Z" transform="translate(-502.31 -336.42)"/></g><g class="cls-2"><path class="cls-91" d="M1257.31,650.42a145,145,0,0,1-30,87h-537l-6-9c-15-24-24-50-24-78,0-110,134-200,299-200S1257.31,540.42,1257.31,650.42Z" transform="translate(-502.31 -336.42)"/></g><g class="cls-2"><path class="cls-92" d="M1253.31,650.42a143,143,0,0,1-32,90v-3h-525v3q-4.74-6.33-9-13a139.17,139.17,0,0,1-23-77c0-109,132-197,294-197S1253.31,541.42,1253.31,650.42Z" transform="translate(-502.31 -336.42)"/></g><g class="cls-2"><path class="cls-93" d="M1250.31,650.42a142,142,0,0,1-35,94v-7h-513v7l-12-18a138.36,138.36,0,0,1-23-76c0-107,131-195,291-195C1119.31,455.42,1250.31,543.42,1250.31,650.42Z" transform="translate(-502.31 -336.42)"/></g><g class="cls-2"><path class="cls-94" d="M1246.31,650.42a140,140,0,0,1-34,92v-5h-507v5l-12-16c-14-24-22-49-22-76,0-106,129-193,287-193C1117.31,457.42,1246.31,544.42,1246.31,650.42Z" transform="translate(-502.31 -336.42)"/></g><g class="cls-2"><path class="cls-95" d="M1243.31,650.42a138,138,0,0,1-34,91v-4h-501v4l-12-16c-14-23-22-48-22-75,0-105,127-190,284-190C1116.31,460.42,1243.31,545.42,1243.31,650.42Z" transform="translate(-502.31 -336.42)"/></g><g class="cls-2"><path class="cls-96" d="M1239.31,650.42a137,137,0,0,1-33,90v-3h-495v3l-11-16c-15-23-23-48-23-74,0-104,126-188,281-188C1114.31,462.42,1239.31,546.42,1239.31,650.42Z" transform="translate(-502.31 -336.42)"/></g><g class="cls-2"><path class="cls-97" d="M1236.31,650.42a135,135,0,0,1-33,89v-2h-489v2l-11-16c-14-22-22-47-22-73,0-102,124-186,277-186C1112.31,464.42,1236.31,548.42,1236.31,650.42Z" transform="translate(-502.31 -336.42)"/></g><g class="cls-2"><path class="cls-98" d="M1233.31,650.42a133,133,0,0,1-33,88v-1h-483v1l-11-16c-14-22-22-46-22-72,0-101,123-183,275-183C1110.31,467.42,1233.31,549.42,1233.31,650.42Z" transform="translate(-502.31 -336.42)"/></g><g class="cls-2"><path class="cls-99" d="M1229.31,650.42a132,132,0,0,1-32,87h-473v4a161.49,161.49,0,0,1-15-20c-14-22-21-45-21-71,0-100,121-181,271-181C1108.31,469.42,1229.31,550.42,1229.31,650.42Z" transform="translate(-502.31 -336.42)"/></g><g class="cls-2"><path class="cls-100" d="M1226.31,650.42a130,130,0,0,1-32,86l-7,7v-6h-457v6a177.74,177.74,0,0,1-18-23c-13-21-21-45-21-70,0-99,120-179,267-179C1106.31,471.42,1226.31,551.42,1226.31,650.42Z" transform="translate(-502.31 -336.42)"/></g><g class="cls-2"><path class="cls-101" d="M1222.31,650.42a128,128,0,0,1-31,85l-7,7v-5h-451v5a174.69,174.69,0,0,1-18-23c-13-21-20-44-20-69,0-97,118-177,264-177C1104.31,473.42,1222.31,553.42,1222.31,650.42Z" transform="translate(-502.31 -336.42)"/></g><g class="cls-2"><path class="cls-102" d="M1219.31,650.42a127,127,0,0,1-32,84l-6,7v-4h-445v4a162.61,162.61,0,0,1-17-23c-14-20-21-43-21-68,0-96,117-174,260-174C1102.31,476.42,1219.31,554.42,1219.31,650.42Z" transform="translate(-502.31 -336.42)"/></g><g class="cls-2"><path class="cls-103" d="M1216.31,650.42a125,125,0,0,1-32,83l-6,7v-3h-439v3a172.49,172.49,0,0,1-17-22c-13-21-21-44-21-68,0-95,116-172,257-172S1216.31,555.42,1216.31,650.42Z" transform="translate(-502.31 -336.42)"/></g><g class="cls-2"><path class="cls-104" d="M1212.31,650.42a123,123,0,0,1-31,82l-6,7v-2h-433v2a175.77,175.77,0,0,1-17-22c-13-21-20-43-20-67,0-94,113-170,253-170S1212.31,557.42,1212.31,650.42Z" transform="translate(-502.31 -336.42)"/></g><g class="cls-2"><path class="cls-105" d="M1209.31,650.42a122,122,0,0,1-31,80c-1,3-3,5-6,7h-427a163.26,163.26,0,0,1-17-21c-13-20-20-42-20-66,0-92,112-167,250-167C1097.31,483.42,1209.31,558.42,1209.31,650.42Z" transform="translate(-502.31 -336.42)"/></g><g class="cls-2"><path class="cls-106" d="M1205.31,650.42c0,23-7,45-19,65-6,10-14,19-23,28v-6h-409v6c-9-9-17-18-23-28-12-20-19-42-19-65,0-91,110-165,246-165S1205.31,559.42,1205.31,650.42Z" transform="translate(-502.31 -336.42)"/></g><g class="cls-2"><path class="cls-107" d="M1202.31,650.42c0,23-7,44-19,64-6,10-14,19-23,28v-5h-403v5c-9-9-17-18-23-28-12-20-19-41-19-64,0-90,109-163,243-163C1093.31,487.42,1202.31,560.42,1202.31,650.42Z" transform="translate(-502.31 -336.42)"/></g><g class="cls-2"><path class="cls-108" d="M1198.31,650.42a115.6,115.6,0,0,1-18,63c-7,10-14,19-23,27v-3h-397v3c-9-8-16-17-23-27a115.6,115.6,0,0,1-18-63c0-88,107-160,239-160S1198.31,562.42,1198.31,650.42Z" transform="translate(-502.31 -336.42)"/></g><g class="cls-2"><path class="cls-109" d="M1195.31,650.42c0,22-7,43-19,62a139.48,139.48,0,0,1-21,27v-2h-393v2a139.48,139.48,0,0,1-21-27c-12-19-19-40-19-62,0-87,106-158,236-158C1089.31,492.42,1195.31,563.42,1195.31,650.42Z" transform="translate(-502.31 -336.42)"/></g><g class="cls-2"><path class="cls-110" d="M1192.31,650.42c0,22-7,43-19,61a139.48,139.48,0,0,1-21,27v-1h-387v1c-8-9-15-17-21-27-12-18-19-39-19-61,0-86,105-156,234-156C1087.31,494.42,1192.31,564.42,1192.31,650.42Z" transform="translate(-502.31 -336.42)"/></g><g class="cls-2"><path class="cls-111" d="M1188.31,650.42a105.82,105.82,0,0,1-18,60,148.72,148.72,0,0,1-28,33v-6h-368v6a175.42,175.42,0,0,1-27-33,105.82,105.82,0,0,1-18-60c0-85,103-154,229-154C1085.31,496.42,1188.31,565.42,1188.31,650.42Z" transform="translate(-502.31 -336.42)"/></g><g class="cls-2"><path class="cls-112" d="M1185.31,650.42c0,21-7,41-18,59a147,147,0,0,1-27,32v-4h-363v4a178.88,178.88,0,0,1-27-32c-11-18-18-38-18-59,0-83,102-151,226-151C1083.31,499.42,1185.31,567.42,1185.31,650.42Z" transform="translate(-502.31 -336.42)"/></g><g class="cls-2"><path class="cls-113" d="M1181.31,650.42a112.37,112.37,0,0,1-17,59,144.75,144.75,0,0,1-27,31v-3h-357v3a164.53,164.53,0,0,1-27-31,112.37,112.37,0,0,1-17-59c0-82,99-149,222-149C1082.31,501.42,1181.31,568.42,1181.31,650.42Z" transform="translate(-502.31 -336.42)"/></g><g class="cls-2"><path class="cls-114" d="M1178.31,650.42c0,21-6,40-17,58a143,143,0,0,1-27,30v-1h-351v1a167.32,167.32,0,0,1-27-30c-11-18-17-37-17-58,0-81,98-147,219-147C1080.31,503.42,1178.31,569.42,1178.31,650.42Z" transform="translate(-502.31 -336.42)"/></g><g class="cls-2"><path class="cls-115" d="M1174.31,650.42c0,20-6,39-17,57a140.13,140.13,0,0,1-32,36v-6h-333v6a169.86,169.86,0,0,1-32-36c-11-18-17-37-17-57,0-80,96-144,215-144C1078.31,506.42,1174.31,570.42,1174.31,650.42Z" transform="translate(-502.31 -336.42)"/></g><g class="cls-2"><path class="cls-116" d="M1171.31,650.42c0,20-6,39-17,56a138.05,138.05,0,0,1-32,35v-4h-327v4a165.57,165.57,0,0,1-32-35c-11-17-17-36-17-56,0-78,95-142,212-142C1076.31,508.42,1171.31,572.42,1171.31,650.42Z" transform="translate(-502.31 -336.42)"/></g><g class="cls-2"><path class="cls-117" d="M1168.31,650.42c0,20-6,38-17,55a136,136,0,0,1-31,35v-3h-323v3a160.59,160.59,0,0,1-31-35c-11-17-17-35-17-55,0-77,94-140,210-140C1074.31,510.42,1168.31,573.42,1168.31,650.42Z" transform="translate(-502.31 -336.42)"/></g><g class="cls-2"><path class="cls-118" d="M1164.31,650.42c0,19-6,38-16,54a134.1,134.1,0,0,1-31,34v-1h-317v1a161.62,161.62,0,0,1-31-34c-10-16-16-35-16-54,0-76,92-137,205-137S1164.31,574.42,1164.31,650.42Z" transform="translate(-502.31 -336.42)"/></g><g class="cls-2"><path class="cls-119" d="M1161.31,650.42c0,19-6,37-16,53a131.84,131.84,0,0,1-37,39v-5h-299v5a176.31,176.31,0,0,1-18-16c-7-7-14-15-19-23a98,98,0,0,1-16-53c0-74,91-135,202-135C1070.31,515.42,1161.31,576.42,1161.31,650.42Z" transform="translate(-502.31 -336.42)"/></g><g class="cls-2"><path class="cls-120" d="M1157.31,650.42a95.48,95.48,0,0,1-15,52,128.93,128.93,0,0,1-36,38v-3h-295v3a167,167,0,0,1-17-15c-7-7-14-15-19-23a96.94,96.94,0,0,1-15-52c0-73,89-133,198-133C1068.31,517.42,1157.31,577.42,1157.31,650.42Z" transform="translate(-502.31 -336.42)"/></g><g class="cls-2"><path class="cls-121" d="M1154.31,650.42c0,37-22,69-57,93v-6h-277v6c-35-24-57-56-57-93,0-72,88-131,195-131C1066.31,519.42,1154.31,578.42,1154.31,650.42Z" transform="translate(-502.31 -336.42)"/></g><g class="cls-2"><path class="cls-122" d="M1150.31,650.42c0,36-21,68-56,91v-4h-271v4c-35-23-56-55-56-91,0-71,86-128,191-128C1064.31,522.42,1150.31,579.42,1150.31,650.42Z" transform="translate(-502.31 -336.42)"/></g><g class="cls-2"><path class="cls-123" d="M1147.31,650.42c0,35-21,67-55,90v-3h-267v3c-34-23-55-55-55-90,0-69,84-126,189-126C1063.31,524.42,1147.31,581.42,1147.31,650.42Z" transform="translate(-502.31 -336.42)"/></g><g class="cls-2"><path class="cls-124" d="M1144.31,650.42c0,35-21,66-55,88v-1h-261v1c-34-22-55-53-55-88,0-68,83-124,185-124C1061.31,526.42,1144.31,582.42,1144.31,650.42Z" transform="translate(-502.31 -336.42)"/></g><g class="cls-2"><path class="cls-125" d="M1140.31,650.42c0,34-20,65-53,87l-6,4v-4h-245v4l-6-4c-33-22-53-53-53-87,0-67,81-121,181-121S1140.31,583.42,1140.31,650.42Z" transform="translate(-502.31 -336.42)"/></g><g class="cls-2"><path class="cls-126" d="M1137.31,650.42c0,33-20,63-53,85l-12,8v-6h-227v6l-13-8c-32-22-52-52-52-85,0-66,80-119,178-119C1057.31,531.42,1137.31,584.42,1137.31,650.42Z" transform="translate(-502.31 -336.42)"/></g><g class="cls-2"><path class="cls-127" d="M1133.31,650.42c0,33-19,62-51,83l-12,8v-4h-223v4l-12-8c-32-21-51-50-51-83,0-64,78-117,174-117S1133.31,586.42,1133.31,650.42Z" transform="translate(-502.31 -336.42)"/></g><g class="cls-2"><path class="cls-128" d="M1130.31,650.42c0,32-19,61-50,82l-13,7v-2h-218v2l-12-7c-31-21-50-50-50-82,0-63,77-114,171-114C1053.31,536.42,1130.31,587.42,1130.31,650.42Z" transform="translate(-502.31 -336.42)"/></g><g class="cls-2"><path class="cls-129" d="M1126.31,650.42c0,32-18,60-49,80l-25,14v-7h-187v7l-25-14c-31-20-49-48-49-80,0-62,75-112,167-112S1126.31,588.42,1126.31,650.42Z" transform="translate(-502.31 -336.42)"/></g><g class="cls-2"><path class="cls-130" d="M1123.31,650.42c0,31-18,58-48,78l-25,14v-5h-183v5l-25-14c-30-20-48-47-48-78,0-60,74-110,165-110C1049.31,540.42,1123.31,590.42,1123.31,650.42Z" transform="translate(-502.31 -336.42)"/></g><g class="cls-2"><path class="cls-131" d="M1120.31,650.42c0,30-18,57-48,77l-23,13v-3h-181v3l-23-13c-30-20-48-47-48-77,0-59,73-108,161-108C1047.31,542.42,1120.31,591.42,1120.31,650.42Z" transform="translate(-502.31 -336.42)"/></g><g class="cls-2"><path class="cls-132" d="M1116.31,650.42c0,30-18,56-46,75l-23,13v-1h-177v1l-23-13c-29-19-46-45-46-75,0-58,70-105,157-105C1046.31,545.42,1116.31,592.42,1116.31,650.42Z" transform="translate(-502.31 -336.42)"/></g><g class="cls-2"><path class="cls-133" d="M1113.31,650.42c0,29-18,55-45,74a158.52,158.52,0,0,1-36,17v-4h-147v4a177.38,177.38,0,0,1-36-17c-27-19-45-45-45-74,0-57,69-103,154-103C1044.31,547.42,1113.31,593.42,1113.31,650.42Z" transform="translate(-502.31 -336.42)"/></g><g class="cls-2"><path class="cls-134" d="M1109.31,650.42c0,28-17,54-44,72a176.11,176.11,0,0,1-48,22v-7h-117v7a176.11,176.11,0,0,1-48-22c-27-18-44-44-44-72,0-55,67-101,150-101C1042.31,549.42,1109.31,595.42,1109.31,650.42Z" transform="translate(-502.31 -336.42)"/></g><g class="cls-2"><path class="cls-135" d="M1106.31,650.42c0,28-17,52-43,70-14,9-30,17-47,22v-5h-115v5c-18-5-33-13-47-22-26-18-43-42-43-70,0-54,66-98,147-98C1040.31,552.42,1106.31,596.42,1106.31,650.42Z" transform="translate(-502.31 -336.42)"/></g><g class="cls-2"><path class="cls-136" d="M1102.31,650.42c0,27-16,51-42,69-13,8-28,16-45,20v-2h-113v2a185.71,185.71,0,0,1-45-20c-26-18-42-42-42-69,0-53,64-96,143-96C1038.31,554.42,1102.31,597.42,1102.31,650.42Z" transform="translate(-502.31 -336.42)"/></g><g class="cls-2"><path class="cls-137" d="M1099.31,650.42c0,26-16,50-41,67a131.59,131.59,0,0,1-45,20h-109a131.59,131.59,0,0,1-45-20c-25-17-41-41-41-67,0-52,63-94,140-94C1036.31,556.42,1099.31,598.42,1099.31,650.42Z" transform="translate(-502.31 -336.42)"/></g><g class="cls-2"><ellipse class="cls-138" cx="456.5" cy="314.4" rx="137.1" ry="91.9"/></g><g class="cls-2"><ellipse class="cls-139" cx="456.5" cy="314.4" rx="133.7" ry="89.7"/></g><g class="cls-2"><ellipse class="cls-140" cx="456.5" cy="314.4" rx="130.2" ry="87.3"/></g><g class="cls-2"><ellipse class="cls-141" cx="456.5" cy="314.4" rx="126.8" ry="85"/></g><g class="cls-2"><ellipse class="cls-142" cx="456.5" cy="314.4" rx="123.4" ry="82.8"/></g><g class="cls-2"><ellipse class="cls-143" cx="456.5" cy="314.4" rx="119.9" ry="80.5"/></g><g class="cls-2"><ellipse class="cls-144" cx="456.5" cy="314.4" rx="116.5" ry="78.2"/></g><g class="cls-2"><ellipse class="cls-145" cx="456.5" cy="314.4" rx="113.1" ry="75.8"/></g><g class="cls-2"><ellipse class="cls-146" cx="456.5" cy="314.4" rx="109.7" ry="73.5"/></g><g class="cls-2"><ellipse class="cls-147" cx="456.5" cy="314.4" rx="106.2" ry="71.3"/></g><g class="cls-2"><ellipse class="cls-148" cx="456.5" cy="314.4" rx="102.8" ry="69"/></g><g class="cls-2"><ellipse class="cls-149" cx="456.5" cy="314.4" rx="99.4" ry="66.7"/></g><g class="cls-2"><ellipse class="cls-150" cx="456.5" cy="314.4" rx="96" ry="64.4"/></g><g class="cls-2"><ellipse class="cls-151" cx="456.5" cy="314.4" rx="92.5" ry="62.1"/></g><g class="cls-2"><ellipse class="cls-152" cx="456.5" cy="314.4" rx="89.1" ry="59.8"/></g><g class="cls-2"><ellipse class="cls-153" cx="456.5" cy="314.4" rx="85.7" ry="57.5"/></g><g class="cls-2"><ellipse class="cls-154" cx="456.5" cy="314.4" rx="82.2" ry="55.2"/></g><g class="cls-2"><ellipse class="cls-155" cx="456.5" cy="314.4" rx="78.8" ry="52.9"/></g><g class="cls-2"><ellipse class="cls-156" cx="456.5" cy="314.4" rx="75.4" ry="50.6"/></g><g class="cls-2"><ellipse class="cls-157" cx="456.5" cy="314.4" rx="72" ry="48.3"/></g><g class="cls-2"><ellipse class="cls-158" cx="456.5" cy="314.4" rx="68.5" ry="46"/></g><g class="cls-2"><ellipse class="cls-159" cx="456.5" cy="314.4" rx="65.1" ry="43.7"/></g><g class="cls-2"><ellipse class="cls-160" cx="456.5" cy="314.4" rx="61.7" ry="41.4"/></g><g class="cls-2"><ellipse class="cls-161" cx="456.5" cy="314.4" rx="58.3" ry="39.1"/></g><g class="cls-2"><ellipse class="cls-162" cx="456.5" cy="314.4" rx="54.8" ry="36.8"/></g><g class="cls-2"><ellipse class="cls-163" cx="456.5" cy="314.4" rx="51.4" ry="34.5"/></g><g class="cls-2"><ellipse class="cls-164" cx="456.5" cy="314.4" rx="48" ry="32.2"/></g><g class="cls-2"><ellipse class="cls-165" cx="456.5" cy="314.4" rx="44.5" ry="29.9"/></g><g class="cls-2"><ellipse class="cls-166" cx="456.5" cy="314.4" rx="41.1" ry="27.6"/></g><g class="cls-2"><ellipse class="cls-167" cx="456.5" cy="314.4" rx="37.7" ry="25.3"/></g><g class="cls-2"><ellipse class="cls-168" cx="456.5" cy="314.4" rx="34.3" ry="23"/></g><g class="cls-2"><ellipse class="cls-169" cx="456.5" cy="314.4" rx="30.8" ry="20.7"/></g><g class="cls-2"><ellipse class="cls-170" cx="456.5" cy="314.4" rx="27.4" ry="18.4"/></g><g class="cls-2"><ellipse class="cls-171" cx="456.5" cy="314.4" rx="24" ry="16.1"/></g><g class="cls-2"><ellipse class="cls-172" cx="456.5" cy="314.4" rx="20.6" ry="13.8"/></g><g class="cls-2"><ellipse class="cls-173" cx="456.5" cy="314.4" rx="17.1" ry="11.5"/></g><g class="cls-2"><ellipse class="cls-174" cx="456.5" cy="314.4" rx="13.7" ry="9.2"/></g><g class="cls-2"><path class="cls-175" d="M969.31,650.42c0,4-5,7-11,7-5,0-10-3-10-7,0-3,5-6,10-6S969.31,647.42,969.31,650.42Z" transform="translate(-502.31 -336.42)"/></g><g class="cls-2"><ellipse class="cls-176" cx="456.5" cy="314.4" rx="6.8" ry="4.6"/></g><g class="cls-2"><path class="cls-177" d="M962.31,650.42c0,2-2,3-4,3a3.19,3.19,0,0,1-3-3l3-2Z" transform="translate(-502.31 -336.42)"/></g><path class="cls-178" d="M743.31,448.42a1.5,1.5,0,1,1-1.5-1.5A1.5,1.5,0,0,1,743.31,448.42Z" transform="translate(-502.31 -336.42)"/><circle class="cls-179" cx="203.3" cy="24.6" r="1.4"/><path class="cls-178" d="M695.31,373.42a1.5,1.5,0,1,1-1.5-1.5A1.5,1.5,0,0,1,695.31,373.42Zm-55,49a1,1,0,1,1-1-1A1,1,0,0,1,640.31,422.42Zm-62-52a1.5,1.5,0,1,1-1.5-1.5A1.5,1.5,0,0,1,578.31,370.42Zm5,44a1,1,0,1,1-1-1A1,1,0,0,1,583.31,414.42Zm158,8a1,1,0,1,1-1-1A1,1,0,0,1,741.31,422.42Zm-102-25a1.5,1.5,0,1,1-1.5-1.5A1.5,1.5,0,0,1,639.31,397.42Z" transform="translate(-502.31 -336.42)"/><circle class="cls-179" cx="258.1" cy="118.2" r="1"/><circle class="cls-179" cx="121.3" cy="85.9" r="1"/><circle class="cls-179" cx="217.7" cy="103.4" r="1"/><circle class="cls-179" cx="266.8" cy="47" r="1"/><circle class="cls-179" cx="267.5" cy="89.1" r="1"/><path class="cls-178" d="M713.31,428.42h-1v-1Z" transform="translate(-502.31 -336.42)"/><circle class="cls-179" cx="161.6" cy="81" r="0.7"/><path class="cls-178" d="M599.31,438.42v1l-1-1,1-1Zm0-16h-1l1-1Zm14-43h-2l1-1Zm105,60h0Zm0,11v0Zm6-3h0Zm-12,2h0Zm-137,16h0Zm174-52-1-1Z" transform="translate(-502.31 -336.42)"/><circle class="cls-179" cx="223.6" cy="103.6" r="0.2"/><path class="cls-178" d="M670.31,440.42h0Zm-53-3h-1v-1Z" transform="translate(-502.31 -336.42)"/><circle class="cls-179" cx="194.4" cy="100.3" r="0.2"/><circle class="cls-179" cx="161.6" cy="102.4" r="0.2"/><path class="cls-178" d="M584.31,440.42h-1v-1Z" transform="translate(-502.31 -336.42)"/><circle class="cls-179" cx="72.8" cy="102.9" r="0.2"/><path class="cls-178" d="M722.31,443.42v0Zm-44,1v0Zm-62,0v0Zm108-8h0Z" transform="translate(-502.31 -336.42)"/><circle class="cls-179" cx="200.1" cy="99.4" r="0.5"/><circle class="cls-179" cx="111.3" cy="79.6" r="0.5"/><path class="cls-178" d="M712.31,379.42h0Z" transform="translate(-502.31 -336.42)"/><circle class="cls-179" cx="191.5" cy="12.9" r="0.5"/><path class="cls-178" d="M687.31,451.42h0Zm-76-36h0Z" transform="translate(-502.31 -336.42)"/><circle class="cls-179" cx="101.2" cy="51.9" r="0.5"/><circle class="cls-179" cx="83.3" cy="52.4" r="0.5"/><path class="cls-178" d="M644.31,362.42h0Z" transform="translate(-502.31 -336.42)"/><circle class="cls-179" cx="180.6" cy="13.8" r="0.5"/><circle class="cls-179" cx="95.3" cy="83.1" r="0.5"/><path class="cls-178" d="M585.31,387.42h0Zm26,0h0Zm41-19h0Zm44,45h0Z" transform="translate(-502.31 -336.42)"/><circle class="cls-179" cx="116.2" cy="44.9" r="0.5"/><path class="cls-178" d="M574.31,372.42h0Z" transform="translate(-502.31 -336.42)"/><circle class="cls-179" cx="185.6" cy="55.7" r="0.5"/><circle class="cls-179" cx="115.2" cy="20.7" r="0.5"/><path class="cls-178" d="M720.31,411.42h0Zm337,22h1v1h-1Z" transform="translate(-502.31 -336.42)"/><circle class="cls-179" cx="268.5" cy="41.6" r="1.4"/><circle class="cls-179" cx="309.1" cy="57.5" r="1.4"/><path class="cls-178" d="M819.31,356.42h1v1h-1Zm243,90h1v1h-1Z" transform="translate(-502.31 -336.42)"/><circle class="cls-179" cx="290.4" cy="34.4" r="1"/><path class="cls-178" d="M1061.31,454.42v0Zm-7-19Z" transform="translate(-502.31 -336.42)"/><circle class="cls-179" cx="561.7" cy="111.8" r="0.3"/><path class="cls-178" d="M1064.31,442.42h0Zm-266-48h1v1h-1Zm262,50h0Z" transform="translate(-502.31 -336.42)"/><circle class="cls-179" cx="569.2" cy="121.5" r="0.1"/><circle class="cls-179" cx="271.4" cy="16" r="0.2"/><path class="cls-178" d="M1063.31,444.42h0Zm-3,2v0Z" transform="translate(-502.31 -336.42)"/><circle class="cls-179" cx="566.5" cy="119.5" r="0.3"/><circle class="cls-179" cx="252.4" cy="16.5" r="0.5"/><circle class="cls-179" cx="559.8" cy="131.3" r="0.3"/><circle class="cls-179" cx="315.3" cy="79.8" r="0.5"/><path class="cls-178" d="M1090.31,448.42h1v1h-1Z" transform="translate(-502.31 -336.42)"/><circle class="cls-179" cx="628.5" cy="96.2" r="0.8"/><path class="cls-178" d="M1106.31,436.42h2v1h-2Z" transform="translate(-502.31 -336.42)"/><circle class="cls-179" cx="577.9" cy="124.4" r="0.8"/><path class="cls-178" d="M1082.31,468.42h1v2h-1Zm3-30v1h0Zm32-15h1v1h-1Zm-5,5h0Z" transform="translate(-502.31 -336.42)"/><circle class="cls-179" cx="593.5" cy="125.6" r="0.6"/><path class="cls-178" d="M1068.31,446.42h1v1h-1Z" transform="translate(-502.31 -336.42)"/><circle class="cls-179" cx="591.7" cy="133.4" r="0.4"/><circle class="cls-179" cx="595.1" cy="141.8" r="0.4"/><circle class="cls-179" cx="578.7" cy="130.8" r="0.4"/><circle class="cls-179" cx="553.8" cy="146.6" r="0.4"/><circle class="cls-179" cx="584.9" cy="114" r="0.3"/><path class="cls-178" d="M1096.31,463.42h0Zm-14,3h1v1h-1Z" transform="translate(-502.31 -336.42)"/><circle class="cls-179" cx="611.3" cy="124.4" r="0.3"/><path class="cls-178" d="M1121.31,458.42h1v1h-1Zm-20,0Zm-299-77h0Zm295,76Zm-25,4h0Z" transform="translate(-502.31 -336.42)"/><circle class="cls-179" cx="246.1" cy="41.6" r="0.5"/><path class="cls-178" d="M1071.31,463.42h1v1h-1Z" transform="translate(-502.31 -336.42)"/><circle class="cls-179" cx="314.6" cy="42.7" r="0.2"/><path class="cls-178" d="M1104.31,472.42v0Z" transform="translate(-502.31 -336.42)"/><circle class="cls-179" cx="261.5" cy="99.1" r="0.2"/><path class="cls-178" d="M1099.31,480.42v0Z" transform="translate(-502.31 -336.42)"/><circle class="cls-179" cx="579.6" cy="132" r="0.1"/><path class="cls-178" d="M1081.31,466.42" transform="translate(-502.31 -336.42)"/><circle class="cls-179" cx="590.4" cy="125.4" r="0.3"/><path class="cls-178" d="M1075.31,466.42h0Zm4,0h0Z" transform="translate(-502.31 -336.42)"/><circle class="cls-179" cx="257.1" cy="54" r="0.5"/><circle class="cls-179" cx="265.2" cy="38.8" r="1"/><path class="cls-178" d="M776.31,369.42h0Z" transform="translate(-502.31 -336.42)"/><circle class="cls-179" cx="267.9" cy="30.6" r="0.5"/><circle class="cls-179" cx="261.3" cy="34.5" r="0.2"/><circle class="cls-179" cx="266.5" cy="34.3" r="0.2"/><circle class="cls-179" cx="260" cy="38.6" r="0.5"/><circle class="cls-179" cx="599.2" cy="134.5" r="0.3"/><path class="cls-178" d="M1134.31,445.42v0Z" transform="translate(-502.31 -336.42)"/><circle class="cls-179" cx="587.5" cy="144.3" r="0.3"/><circle class="cls-179" cx="635.6" cy="107" r="0.3"/><circle class="cls-179" cx="290" cy="94.3" r="1"/><circle class="cls-179" cx="291.4" cy="64" r="1"/><circle class="cls-179" cx="121.3" cy="96.3" r="1"/><path class="cls-178" d="M788.31,443.42h1v1h-1Z" transform="translate(-502.31 -336.42)"/><circle class="cls-179" cx="291.6" cy="96.4" r="0.5"/><path class="cls-178" d="M801.31,424.42v0Z" transform="translate(-502.31 -336.42)"/><circle class="cls-179" cx="307.7" cy="60.4" r="0.5"/><circle class="cls-179" cx="292.8" cy="86.1" r="0.5"/><circle class="cls-179" cx="286.1" cy="90" r="0.2"/><circle class="cls-179" cx="277.1" cy="109.2" r="0.2"/><path class="cls-178" d="M806.31,449.42h0Zm-13-23Zm-7,4h0Z" transform="translate(-502.31 -336.42)"/><circle class="cls-179" cx="252.9" cy="93.7" r="0.5"/><path class="cls-178" d="M801.31,445.42h1v1h-1Z" transform="translate(-502.31 -336.42)"/><circle class="cls-179" cx="592.5" cy="146.3" r="0.3"/><path class="cls-178" d="M1098.31,495.42h0Zm-15-22h1v1h-1Z" transform="translate(-502.31 -336.42)"/><path class="cls-180" d="M718.31,505.42a2.06,2.06,0,1,1-.18-.17Zm-40-97a2.06,2.06,0,1,1-.18-.17Zm-13,14a2.06,2.06,0,1,1-.18-.17Zm-61,54a2.06,2.06,0,1,1-.18-.17Zm-69-58a2.06,2.06,0,1,1-.18-.17Zm6,49a2.06,2.06,0,1,1-.18-.17Zm175,9a2.06,2.06,0,1,1-.18-.17Zm-113-28a2,2,0,1,1-2-2A2,2,0,0,1,603.31,448.42Zm135,64-1,1-1-1,1-2Zm-152-36-1,1-1-1,1-1Zm107,19-1,1-1-1,1-1Zm55-62-1,1-2-1,2-2Z" transform="translate(-502.31 -336.42)"/><circle class="cls-181" cx="245.3" cy="143.2" r="1.1"/><circle class="cls-181" cx="182.1" cy="146.1" r="0.8"/><circle class="cls-181" cx="127.9" cy="134.2" r="0.8"/><path class="cls-180" d="M559.31,494.42l-1,1-1-1,1-1Zm0-19-1,1-1-1,1-1Zm15-47-1,1-1-1,1-1Z" transform="translate(-502.31 -336.42)"/><circle class="cls-181" cx="217" cy="163" r="0.5"/><path class="cls-180" d="M690.31,495.42h-1v-1Zm0,12h-1l1-1Zm7-3h-1v-1Zm-14,2h-1l1-1Zm-152,17v1l-1-1Zm193-57h-1l1-1Z" transform="translate(-502.31 -336.42)"/><circle class="cls-181" cx="196.6" cy="159.3" r="0.3"/><path class="cls-180" d="M584.31,531.42v0Z" transform="translate(-502.31 -336.42)"/><circle class="cls-181" cx="134.5" cy="159.6" r="0.3"/><circle class="cls-181" cx="75.6" cy="155.9" r="0.3"/><circle class="cls-181" cx="164.3" cy="155.6" r="0.3"/><circle class="cls-181" cx="127.9" cy="158" r="0.3"/><circle class="cls-181" cx="38.9" cy="159.4" r="0.3"/><path class="cls-180" d="M532.31,495.42h-1v-1Z" transform="translate(-502.31 -336.42)"/><circle class="cls-181" cx="192.7" cy="163.5" r="0.3"/><path class="cls-180" d="M646.31,500.42h0Z" transform="translate(-502.31 -336.42)"/><circle class="cls-181" cx="75.3" cy="164.6" r="0.3"/><circle class="cls-181" cx="194.4" cy="155.1" r="0.5"/><path class="cls-180" d="M673.31,491.42h-1l1-1Zm-98-22h-1v-1Zm108-40h-1l1-1Zm-19-34h-1v-1Z" transform="translate(-502.31 -336.42)"/><circle class="cls-181" cx="153.4" cy="172.1" r="0.5"/><path class="cls-180" d="M572.31,468.42l-1,1v-1Zm-9-30v1l-1-1,1-1Zm-19,1h-1v-1Zm64-30v1l-1-1Z" transform="translate(-502.31 -336.42)"/><circle class="cls-181" cx="148.9" cy="59.8" r="0.5"/><path class="cls-180" d="M557.31,473.42h-1v-1Z" transform="translate(-502.31 -336.42)"/><circle class="cls-181" cx="40.5" cy="101" r="0.5"/><path class="cls-180" d="M571.31,437.42h-1l1-1Z" transform="translate(-502.31 -336.42)"/><circle class="cls-181" cx="114.9" cy="80.1" r="0.5"/><circle class="cls-181" cx="163.8" cy="130.1" r="0.5"/><circle class="cls-181" cx="77.6" cy="94.2" r="0.5"/><circle class="cls-181" cx="27.9" cy="84.4" r="0.5"/><circle class="cls-181" cx="154.5" cy="106.2" r="0.5"/><circle class="cls-181" cx="76.4" cy="67.4" r="0.5"/><path class="cls-180" d="M693.31,463.42l-1,1v-1Z" transform="translate(-502.31 -336.42)"/><circle class="cls-181" cx="311.1" cy="86.2" r="1.6"/><circle class="cls-181" cx="246.4" cy="90.5" r="1.6"/><path class="cls-180" d="M792.31,443.42h3v2h-3Zm10-41a1.41,1.41,0,0,1,2,2,1.4,1.4,0,0,1-2,0A1.42,1.42,0,0,1,802.31,402.42Zm20,44a1.12,1.12,0,1,1,2,1,1.12,1.12,0,0,1-2-1Zm-50-28a1.12,1.12,0,1,1,2,1,1.12,1.12,0,0,1-2-1Z" transform="translate(-502.31 -336.42)"/><circle class="cls-181" cx="317.5" cy="125.1" r="0.8"/><path class="cls-180" d="M806.31,424.42h1v1h-1Zm18,24h1v1h-1Z" transform="translate(-502.31 -336.42)"/><circle class="cls-181" cx="330.9" cy="103.8" r="0.5"/><path class="cls-180" d="M826.31,437.42v0Zm-47,8h0Z" transform="translate(-502.31 -336.42)"/><circle class="cls-181" cx="316.6" cy="105.6" r="0.3"/><path class="cls-180" d="M839.31,467.42" transform="translate(-502.31 -336.42)"/><circle class="cls-181" cx="249.7" cy="62.2" r="0.3"/><path class="cls-180" d="M824.31,441.42h1v1h-1Z" transform="translate(-502.31 -336.42)"/><circle class="cls-181" cx="315.2" cy="110.1" r="0.5"/><circle class="cls-181" cx="331.6" cy="127.3" r="0.5"/><circle class="cls-181" cx="228.6" cy="62.7" r="0.5"/><path class="cls-180" d="M821.31,485.42v0Zm-21-16h0Z" transform="translate(-502.31 -336.42)"/><circle class="cls-181" cx="372.9" cy="114.6" r="1.6"/><circle class="cls-181" cx="448.8" cy="83.2" r="1.6"/><circle class="cls-181" cx="404.4" cy="92.1" r="1.6"/><circle class="cls-181" cx="353.2" cy="136.5" r="1.6"/><circle class="cls-181" cx="358" cy="152.7" r="1.6"/><path class="cls-180" d="M864.31,431.42a1.12,1.12,0,1,1,2,1,1.12,1.12,0,0,1-2-1Zm61-29a1.41,1.41,0,0,1,2,2,1.4,1.4,0,0,1-2,0A1.42,1.42,0,0,1,925.31,402.42Zm-9,9a1.12,1.12,0,1,1,2,1,1.12,1.12,0,0,1-2-1Zm-32,63a1.12,1.12,0,0,1,1,2,1.11,1.11,0,0,1-1.5-.5A1.12,1.12,0,0,1,884.31,474.42Zm-50-28a1.12,1.12,0,0,1,1,2,1.11,1.11,0,0,1-1.5-.5A1.12,1.12,0,0,1,834.31,446.42Z" transform="translate(-502.31 -336.42)"/><circle class="cls-181" cx="379.3" cy="153.5" r="0.8"/><circle class="cls-181" cx="385.7" cy="169.3" r="0.8"/><path class="cls-180" d="M856.31,484.42h1v1h-1Zm-47,30h1v1h-1Zm59-61h0Z" transform="translate(-502.31 -336.42)"/><circle class="cls-181" cx="384.4" cy="141.1" r="0.5"/><path class="cls-180" d="M860.31,483.42h1v1h-1Z" transform="translate(-502.31 -336.42)"/><circle class="cls-181" cx="416.3" cy="136.5" r="0.5"/><path class="cls-180" d="M934.31,468.42v0Z" transform="translate(-502.31 -336.42)"/><circle class="cls-181" cx="392.6" cy="132.2" r="0.5"/><path class="cls-180" d="M784.31,430.42v1h0Zm179-26Z" transform="translate(-502.31 -336.42)"/><circle class="cls-181" cx="385.7" cy="129.6" r="0.5"/><path class="cls-180" d="M841.31,473.42h1v1h-1Z" transform="translate(-502.31 -336.42)"/><circle class="cls-181" cx="221.7" cy="90.5" r="0.5"/><path class="cls-180" d="M880.31,470.42h0Z" transform="translate(-502.31 -336.42)"/><circle class="cls-181" cx="337.4" cy="142.4" r="0.3"/><circle class="cls-181" cx="344.5" cy="137.6" r="0.3"/><circle class="cls-181" cx="297.6" cy="91.8" r="0.3"/><circle class="cls-181" cx="398.6" cy="159.4" r="0.3"/><circle class="cls-181" cx="398.8" cy="177.6" r="0.3"/><path class="cls-180" d="M741.31,490.42Zm149,20h1v1h-1Z" transform="translate(-502.31 -336.42)"/><circle class="cls-181" cx="356.4" cy="150.9" r="0.3"/><circle class="cls-181" cx="384.1" cy="133.7" r="0.3"/><path class="cls-180" d="M857.31,483.42Zm22-9v0Z" transform="translate(-502.31 -336.42)"/><circle class="cls-181" cx="345.2" cy="146.8" r="0.5"/><path class="cls-180" d="M854.31,483.42v0Zm-119-43h1v1h-1Zm9-17a1.12,1.12,0,1,1,2,1,1.12,1.12,0,0,1-2-1Z" transform="translate(-502.31 -336.42)"/><circle class="cls-181" cx="252.7" cy="80.9" r="0.5"/><circle class="cls-181" cx="245.8" cy="78.4" r="0.5"/><path class="cls-180" d="M740.31,419.42h0Z" transform="translate(-502.31 -336.42)"/><circle class="cls-181" cx="244.2" cy="82.4" r="0.3"/><circle class="cls-181" cx="237" cy="87.2" r="0.5"/><path class="cls-180" d="M895.31,491.42h1v1h-1Zm62-47v0Z" transform="translate(-502.31 -336.42)"/><circle class="cls-181" cx="442" cy="156.2" r="0.5"/><path class="cls-180" d="M873.31,510.42h1v1h-1Zm91-71v1h0Zm-192,45a1.12,1.12,0,0,1,1,2,1.11,1.11,0,0,1-1.5-.5A1.12,1.12,0,0,1,772.31,484.42Z" transform="translate(-502.31 -336.42)"/><circle class="cls-181" cx="271.8" cy="115.4" r="1.1"/><path class="cls-180" d="M584.31,486.42a1.41,1.41,0,0,1,2,2,1.4,1.4,0,0,1-2,0A1.42,1.42,0,0,1,584.31,486.42Z" transform="translate(-502.31 -336.42)"/><circle class="cls-181" cx="266.9" cy="163.7" r="0.8"/><circle class="cls-181" cx="272" cy="151.3" r="0.5"/><circle class="cls-181" cx="280.3" cy="142.4" r="0.5"/><circle class="cls-181" cx="289.9" cy="111.5" r="0.5"/><circle class="cls-181" cx="273.3" cy="139.9" r="0.5"/><circle class="cls-181" cx="265.9" cy="144.2" r="0.3"/><circle class="cls-181" cx="256" cy="165.5" r="0.3"/><path class="cls-180" d="M788.31,505.42v0Z" transform="translate(-502.31 -336.42)"/><circle class="cls-181" cx="271.7" cy="143.9" r="0.3"/><circle class="cls-181" cx="264.5" cy="148.7" r="0.5"/><circle class="cls-181" cx="229.1" cy="148.4" r="0.5"/><circle class="cls-1" cx="281" cy="165.9" r="0.5"/><circle class="cls-181" cx="380.8" cy="177.8" r="0.5"/><circle class="cls-181" cx="388.1" cy="201.3" r="0.5"/><circle class="cls-181" cx="360.1" cy="161.3" r="0.5"/><path class="cls-180" d="M977.31,458.42a2.06,2.06,0,1,1-.18-.17Zm-2-30a2.06,2.06,0,1,1-.18-.17Zm22,36-1,1-1-1,1-1Z" transform="translate(-502.31 -336.42)"/><circle class="cls-181" cx="449.2" cy="111.6" r="1.1"/><circle class="cls-181" cx="503.6" cy="49.1" r="1.1"/><path class="cls-180" d="M1008.31,432.42l-2,1-1-1,1-1Zm-64,3h-2l1-1Zm35,17h-1v-1Z" transform="translate(-502.31 -336.42)"/><circle class="cls-181" cx="446.3" cy="111.1" r="0.5"/><circle class="cls-181" cx="446.8" cy="123.3" r="0.5"/><circle class="cls-181" cx="453.5" cy="120.1" r="0.5"/><path class="cls-180" d="M942.31,458.42v1l-1-1Z" transform="translate(-502.31 -336.42)"/><circle class="cls-181" cx="480.7" cy="82.1" r="0.5"/><circle class="cls-181" cx="455.7" cy="111.8" r="0.3"/><path class="cls-180" d="M954.31,452.42" transform="translate(-502.31 -336.42)"/><circle class="cls-181" cx="453.5" cy="107.7" r="0.5"/><circle class="cls-181" cx="439.6" cy="45.1" r="0.5"/><path class="cls-180" d="M952.31,416.42h-1v-1Z" transform="translate(-502.31 -336.42)"/><circle class="cls-181" cx="570.2" cy="38.8" r="1.6"/><circle class="cls-181" cx="505.5" cy="43.1" r="1.6"/><circle class="cls-181" cx="550.5" cy="60.7" r="1.6"/><path class="cls-180" d="M1061.31,355.42a1.12,1.12,0,1,1,2,1,1.12,1.12,0,0,1-2-1Zm20,43a1.41,1.41,0,0,1,2,2,1.4,1.4,0,0,1-2,0A1.42,1.42,0,0,1,1081.31,398.42Zm-50-28a1.41,1.41,0,0,1,2,2,1.4,1.4,0,0,1-2,0A1.42,1.42,0,0,1,1031.31,370.42Zm47,43h1v1h-1Zm-13-36h0Z" transform="translate(-502.31 -336.42)"/><circle class="cls-181" cx="581.7" cy="65.3" r="0.5"/><circle class="cls-181" cx="590" cy="56.3" r="0.5"/><circle class="cls-181" cx="583" cy="53.8" r="0.5"/><circle class="cls-181" cx="536.9" cy="61.5" r="0.5"/><circle class="cls-181" cx="575.6" cy="58.1" r="0.3"/><circle class="cls-181" cx="595.9" cy="83.6" r="0.3"/><path class="cls-180" d="M1011.31,351.42Z" transform="translate(-502.31 -336.42)"/><circle class="cls-181" cx="581.4" cy="57.9" r="0.3"/><circle class="cls-181" cx="574.2" cy="62.6" r="0.5"/><path class="cls-180" d="M1092.31,415.42h1v1h-1Z" transform="translate(-502.31 -336.42)"/><circle class="cls-181" cx="487.7" cy="15.2" r="0.5"/><circle class="cls-181" cx="578.2" cy="102" r="0.5"/><circle class="cls-181" cx="557.4" cy="85.5" r="0.5"/><circle class="cls-181" cx="631.9" cy="67.2" r="1.6"/><circle class="cls-181" cx="707.9" cy="35.8" r="1.6"/><circle class="cls-181" cx="663.5" cy="44.6" r="1.6"/><path class="cls-180" d="M1113.31,424.42h2v2h-2Z" transform="translate(-502.31 -336.42)"/><circle class="cls-181" cx="617" cy="105.3" r="1.6"/><path class="cls-180" d="M1123.31,383.42a1.41,1.41,0,0,1,2,2,1.4,1.4,0,0,1-2,0A1.42,1.42,0,0,1,1123.31,383.42Zm61-28a1.12,1.12,0,1,1,2,1,1.12,1.12,0,0,1-2-1Zm-8,8a1.12,1.12,0,1,1,1,2,1.11,1.11,0,0,1-1.5-.5A1.12,1.12,0,0,1,1176.31,363.42Zm-33,63a1,1,0,0,1,0,2Zm-50-27a1,1,0,1,1,1,1A1,1,0,0,1,1093.31,399.42Z" transform="translate(-502.31 -336.42)"/><circle class="cls-181" cx="638.3" cy="106.1" r="0.8"/><path class="cls-180" d="M1146.31,457.42h1v1h-1Zm-31-20h1v1h-1Zm-47,29h1v1h-1Zm59-61h1v1h-1Zm18,24h1v1h-1Zm-26,7h1v1h-1Z" transform="translate(-502.31 -336.42)"/><circle class="cls-181" cx="675.4" cy="89.1" r="0.5"/><circle class="cls-181" cx="691.2" cy="85.2" r="0.5"/><circle class="cls-181" cx="651.7" cy="84.7" r="0.5"/><circle class="cls-181" cx="541.1" cy="46.7" r="0.5"/><circle class="cls-181" cx="720" cy="20.5" r="0.5"/><path class="cls-180" d="M1146.31,418.42h1v1h-1Z" transform="translate(-502.31 -336.42)"/><circle class="cls-181" cx="598.6" cy="89.8" r="0.5"/><circle class="cls-181" cx="480.7" cy="43.1" r="0.5"/><circle class="cls-181" cx="637.4" cy="86.5" r="0.3"/><path class="cls-180" d="M1098.31,431.42h0Zm7-5h0Zm-47-46h1v1h-1Zm101,68h0Z" transform="translate(-502.31 -336.42)"/><circle class="cls-181" cx="497.8" cy="106.8" r="0.3"/><path class="cls-180" d="M1150.31,466.42v0Zm0-3Zm-33-24h1v1h-1Zm28-17Z" transform="translate(-502.31 -336.42)"/><circle class="cls-181" cx="613.8" cy="99.6" r="0.3"/><path class="cls-180" d="M1138.31,427.42Z" transform="translate(-502.31 -336.42)"/><circle class="cls-181" cx="604.3" cy="99.3" r="0.5"/><circle class="cls-181" cx="611.2" cy="99.9" r="0.5"/><circle class="cls-181" cx="492.8" cy="56.9" r="0.5"/><path class="cls-180" d="M1003.31,375.42a1.41,1.41,0,0,1,2,2,1.4,1.4,0,0,1-2,0A1.42,1.42,0,0,1,1003.31,375.42Z" transform="translate(-502.31 -336.42)"/><circle class="cls-181" cx="511.8" cy="33.4" r="0.5"/><path class="cls-180" d="M1007.31,367.42Z" transform="translate(-502.31 -336.42)"/><circle class="cls-181" cx="497.5" cy="35.2" r="0.3"/><path class="cls-180" d="M1005.31,371.42Zm-7,4v0Zm156,69h1v1h-1Z" transform="translate(-502.31 -336.42)"/><circle class="cls-181" cx="714" cy="61" r="0.5"/><path class="cls-180" d="M1203.31,444.42v0Z" transform="translate(-502.31 -336.42)"/><circle class="cls-181" cx="630.4" cy="126.7" r="0.5"/><circle class="cls-181" cx="721.2" cy="56.3" r="0.5"/><path class="cls-180" d="M1031.31,437.42a1,1,0,1,1,1,1A1,1,0,0,1,1031.31,437.42Zm1-34a1.41,1.41,0,0,1,2,2,1.4,1.4,0,0,1-2,0A1.42,1.42,0,0,1,1032.31,403.42Zm-5,49h2v1h-2Z" transform="translate(-502.31 -336.42)"/><circle class="cls-181" cx="531.1" cy="103.9" r="0.5"/><path class="cls-180" d="M1041.31,431.42h0Zm10-31Z" transform="translate(-502.31 -336.42)"/><circle class="cls-181" cx="532.4" cy="92.4" r="0.5"/><path class="cls-180" d="M1027.31,433.42Z" transform="translate(-502.31 -336.42)"/><circle class="cls-181" cx="515.1" cy="118.1" r="0.3"/><circle class="cls-181" cx="545.3" cy="122.2" r="0.3"/><circle class="cls-181" cx="530.8" cy="96.5" r="0.3"/><circle class="cls-181" cx="523.6" cy="101.2" r="0.5"/><path class="cls-180" d="M990.31,437.42h0Z" transform="translate(-502.31 -336.42)"/><circle class="cls-181" cx="540.1" cy="118.4" r="0.5"/><path class="cls-180" d="M1142.31,466.42v0Zm7,23h1v1h-1Z" transform="translate(-502.31 -336.42)"/><circle class="cls-181" cx="619.1" cy="113.9" r="0.5"/><path class="cls-178" d="M912.31,598.42a1.5,1.5,0,1,1-1.5-1.5A1.5,1.5,0,0,1,912.31,598.42Zm-36-87a1.11,1.11,0,0,1-1.5-.5,1.12,1.12,0,0,1,.5-1.5Z" transform="translate(-502.31 -336.42)"/><circle class="cls-179" cx="360.9" cy="187.4" r="1.4"/><path class="cls-178" d="M810.31,572.42a1.5,1.5,0,1,1-1.5-1.5A1.5,1.5,0,0,1,810.31,572.42Zm-63-53a1.5,1.5,0,1,1-1.5-1.5A1.5,1.5,0,0,1,747.31,519.42Zm6,45a1.5,1.5,0,1,1-1.5-1.5A1.5,1.5,0,0,1,753.31,564.42Zm158,8a1.5,1.5,0,1,1-1.5-1.5A1.5,1.5,0,0,1,911.31,572.42Zm-103-25a1,1,0,1,1-1-1Z" transform="translate(-502.31 -336.42)"/><circle class="cls-179" cx="427.4" cy="268.2" r="1"/><circle class="cls-179" cx="290.7" cy="235.8" r="1"/><circle class="cls-179" cx="387" cy="253.3" r="1"/><circle class="cls-179" cx="436.1" cy="196.9" r="1"/><circle class="cls-179" cx="436.8" cy="239" r="1"/><path class="cls-178" d="M883.31,578.42h-2l1-1Zm-49-11-1,1-1-1,1-1Zm-65,21-1,1-1-1,1-1Zm0-17-1,1-1-1Zm13-42h-1v-1Z" transform="translate(-502.31 -336.42)"/><circle class="cls-179" cx="411.3" cy="256.9" r="0.5"/><path class="cls-178" d="M887.31,589.42h0Zm0,11h0Zm6-3h0Zm-12,2h0Zm-137,16v0Zm174-52h0Zm-23,27v0Z" transform="translate(-502.31 -336.42)"/><circle class="cls-179" cx="336.8" cy="253.8" r="0.2"/><path class="cls-178" d="M786.31,586.42v0Zm47,2v0Zm-80,2h-1l1-1Zm139,3-1,1v-1Zm-45,1v0Z" transform="translate(-502.31 -336.42)"/><circle class="cls-179" cx="283.6" cy="258.3" r="0.2"/><circle class="cls-179" cx="390.9" cy="249.8" r="0.5"/><path class="cls-178" d="M872.31,585.42h0Zm-89-20h0Zm98-36h0Zm-18-30v0Zm-82,66h0Zm-8-27h0Z" transform="translate(-502.31 -336.42)"/><circle class="cls-179" cx="252.6" cy="202.3" r="0.5"/><path class="cls-178" d="M813.31,512.42h0Zm39-12h0Zm-97,37h0Zm25,0h0Zm42-19h0Zm44,45h0Zm-78-32h0Zm-45-9h0Z" transform="translate(-502.31 -336.42)"/><circle class="cls-179" cx="354.9" cy="205.6" r="0.5"/><circle class="cls-179" cx="284.5" cy="170.6" r="0.5"/><path class="cls-178" d="M890.31,560.42h0Zm336,23h2v1h-2Z" transform="translate(-502.31 -336.42)"/><circle class="cls-179" cx="437.8" cy="191.5" r="1.4"/><circle class="cls-179" cx="478.4" cy="207.4" r="1.4"/><circle class="cls-179" cx="487" cy="170.3" r="1"/><path class="cls-178" d="M1232.31,596.42h1v1h-1Zm-271-76h1v1h-1Zm269,84h1v1h-1Zm-7-19h0Zm10,13Zm4-5h0Zm-3-2v0Z" transform="translate(-502.31 -336.42)"/><circle class="cls-179" cx="466.1" cy="208.1" r="0.5"/><path class="cls-178" d="M1240.31,607.42h1v1h-1Z" transform="translate(-502.31 -336.42)"/><circle class="cls-179" cx="440.8" cy="165.9" r="0.2"/><path class="cls-178" d="M1229.31,596.42v0Z" transform="translate(-502.31 -336.42)"/><circle class="cls-179" cx="735.8" cy="269.4" r="0.3"/><circle class="cls-179" cx="421.8" cy="166.4" r="0.5"/><path class="cls-178" d="M1231.31,617.42" transform="translate(-502.31 -336.42)"/><circle class="cls-179" cx="484.6" cy="229.8" r="0.5"/><circle class="cls-179" cx="757.6" cy="262.7" r="0.8"/><circle class="cls-179" cx="797.9" cy="246.1" r="0.8"/><circle class="cls-179" cx="774.3" cy="250.8" r="0.8"/><circle class="cls-179" cx="747.2" cy="274.3" r="0.8"/><circle class="cls-179" cx="749.8" cy="282.9" r="0.8"/><path class="cls-178" d="M1254.31,588.42h1v1h-1Zm32-15h1v1h-1Z" transform="translate(-502.31 -336.42)"/><circle class="cls-179" cx="780.1" cy="242" r="0.6"/><path class="cls-178" d="M1264.31,611.42h1v1h-1Zm-26-15h1v1h-1Z" transform="translate(-502.31 -336.42)"/><circle class="cls-179" cx="761" cy="283.3" r="0.4"/><circle class="cls-179" cx="764.4" cy="291.7" r="0.4"/><circle class="cls-179" cx="748" cy="280.8" r="0.4"/><circle class="cls-179" cx="723.1" cy="296.5" r="0.4"/><path class="cls-178" d="M1256.31,600.42Zm10,13Zm-14,3v0Zm30-6h1v1h-1Zm9-2Z" transform="translate(-502.31 -336.42)"/><circle class="cls-179" cx="469.9" cy="194.8" r="0.5"/><path class="cls-178" d="M1306.31,574.42Z" transform="translate(-502.31 -336.42)"/><circle class="cls-179" cx="764.4" cy="270.7" r="0.3"/><path class="cls-178" d="M1242.31,611.42Z" transform="translate(-502.31 -336.42)"/><circle class="cls-179" cx="415.5" cy="191.5" r="0.5"/><path class="cls-178" d="M1262.31,609.42h0Zm-21,4v0Z" transform="translate(-502.31 -336.42)"/><circle class="cls-179" cx="742.6" cy="274.9" r="0.1"/><circle class="cls-179" cx="483.9" cy="192.6" r="0.2"/><path class="cls-178" d="M1273.31,622.42v0Zm0,10Z" transform="translate(-502.31 -336.42)"/><circle class="cls-179" cx="430.8" cy="249" r="0.2"/><path class="cls-178" d="M1268.31,630.42v0Z" transform="translate(-502.31 -336.42)"/><circle class="cls-179" cx="748.9" cy="281.9" r="0.1"/><path class="cls-178" d="M1265.31,609.42h0Zm-3,2v0Zm-17,5Zm3,0h0Z" transform="translate(-502.31 -336.42)"/><circle class="cls-179" cx="426.4" cy="203.9" r="0.5"/><circle class="cls-179" cx="434.6" cy="188.7" r="1"/><circle class="cls-179" cx="443.5" cy="182.8" r="0.5"/><circle class="cls-179" cx="437.3" cy="180.5" r="0.5"/><path class="cls-178" d="M932.31,520.42h1v1h-1Z" transform="translate(-502.31 -336.42)"/><circle class="cls-179" cx="435.8" cy="184.2" r="0.2"/><path class="cls-178" d="M931.31,524.42h1v1h-1Zm339,96h1v1h-1Zm33-25v0Z" transform="translate(-502.31 -336.42)"/><circle class="cls-179" cx="794.2" cy="284.7" r="0.3"/><path class="cls-178" d="M1259.31,630.42Zm-298-51h1v2h-1Z" transform="translate(-502.31 -336.42)"/><circle class="cls-179" cx="460.7" cy="213.9" r="1"/><circle class="cls-179" cx="290.7" cy="246.2" r="1"/><path class="cls-178" d="M958.31,593.42h1v1h-1Zm5-11v0Z" transform="translate(-502.31 -336.42)"/><circle class="cls-179" cx="468.3" cy="238.3" r="0.5"/><path class="cls-178" d="M979.31,546.42v0Z" transform="translate(-502.31 -336.42)"/><circle class="cls-179" cx="462.1" cy="236" r="0.5"/><circle class="cls-179" cx="455.4" cy="239.9" r="0.2"/><path class="cls-178" d="M948.31,595.42h0Zm28,4Z" transform="translate(-502.31 -336.42)"/><circle class="cls-179" cx="460.6" cy="239.7" r="0.2"/><path class="cls-178" d="M956.31,580.42Zm-32-1h1v1h-1Zm47,16v0Zm293,37Zm4,12v0Zm-15-21v0Z" transform="translate(-502.31 -336.42)"/><path class="cls-180" d="M887.31,655.42a2.06,2.06,0,1,1-.18-.17Zm-40-97a2.06,2.06,0,1,1-.18-.17Zm-13,14a2,2,0,1,1-1.73-2.24,2.32,2.32,0,0,1,.73.24Zm-61,54a2.06,2.06,0,1,1-.18-.17Zm-69-58a2.06,2.06,0,1,1-.18-.17Zm6,48a2.06,2.06,0,1,1-.18-.17Zm175,10a2.06,2.06,0,1,1-.18-.17Zm-113-28a2.06,2.06,0,1,1-.18-.17Z" transform="translate(-502.31 -336.42)"/><circle class="cls-181" cx="404.2" cy="325.5" r="1.1"/><path class="cls-180" d="M756.31,626.42l-1,1-2-1,2-1Z" transform="translate(-502.31 -336.42)"/><circle class="cls-181" cx="359.5" cy="309" r="1.1"/><path class="cls-180" d="M917.31,582.42l-1,2-1-2,1-1Z" transform="translate(-502.31 -336.42)"/><circle class="cls-181" cx="414.7" cy="293.1" r="1.1"/><path class="cls-180" d="M854.31,632.42l-1,1v-2Zm-54-12-1,1-1-1,1-1Zm-72,24h-2l1-1Zm0-19-1,1-1-1,1-1Zm15-47-1,1-1-1,1-1Zm146,71h-1v-1Zm-30-5v1l-1-1Zm1,13h-1v-1Zm6-3h-1l1-1Z" transform="translate(-502.31 -336.42)"/><circle class="cls-181" cx="349.9" cy="319.8" r="0.5"/><path class="cls-180" d="M701.31,673.42l-1,1v-1h1Zm193-58-1,1-1-1Z" transform="translate(-502.31 -336.42)"/><circle class="cls-181" cx="365.9" cy="309.2" r="0.3"/><path class="cls-180" d="M754.31,681.42l-1,1v-1Zm52-36v0Z" transform="translate(-502.31 -336.42)"/><circle class="cls-181" cx="244.9" cy="305.8" r="0.3"/><circle class="cls-181" cx="333.6" cy="305.6" r="0.3"/><path class="cls-180" d="M800.31,644.42h0Zm-90,1v0Z" transform="translate(-502.31 -336.42)"/><circle class="cls-181" cx="198.8" cy="308.4" r="0.3"/><path class="cls-180" d="M864.31,649.42v0Zm-49,1v0Z" transform="translate(-502.31 -336.42)"/><circle class="cls-181" cx="244.7" cy="314.5" r="0.3"/><path class="cls-180" d="M866.31,641.42v1l-1-1Zm-24,0h-1l1-1Zm-98-22h-1v-1Z" transform="translate(-502.31 -336.42)"/><circle class="cls-181" cx="349.9" cy="242.5" r="0.5"/><path class="cls-180" d="M833.31,545.42h-1v-1Z" transform="translate(-502.31 -336.42)"/><circle class="cls-181" cx="322.8" cy="322" r="0.5"/><circle class="cls-181" cx="238.8" cy="282" r="0.5"/><path class="cls-180" d="M733.31,588.42h-1v-1Z" transform="translate(-502.31 -336.42)"/><circle class="cls-181" cx="210.4" cy="252.4" r="0.5"/><path class="cls-180" d="M777.31,559.42v1l-1-1Z" transform="translate(-502.31 -336.42)"/><circle class="cls-181" cx="318.3" cy="209.7" r="0.5"/><path class="cls-180" d="M726.31,622.42v1l-1-1Z" transform="translate(-502.31 -336.42)"/><circle class="cls-181" cx="209.9" cy="250.9" r="0.5"/><path class="cls-180" d="M741.31,587.42h-1v-1Z" transform="translate(-502.31 -336.42)"/><circle class="cls-181" cx="284.2" cy="230" r="0.5"/><circle class="cls-181" cx="333.1" cy="280" r="0.5"/><circle class="cls-181" cx="246.9" cy="244.1" r="0.5"/><circle class="cls-181" cx="197.2" cy="234.4" r="0.5"/><circle class="cls-181" cx="323.9" cy="256.1" r="0.5"/><path class="cls-180" d="M748.31,553.42v1l-1-1Zm114,60-1,1v-2Z" transform="translate(-502.31 -336.42)"/><circle class="cls-181" cx="480.5" cy="236.2" r="1.6"/><circle class="cls-181" cx="415.8" cy="240.4" r="1.6"/><circle class="cls-181" cx="460.8" cy="258.1" r="1.6"/><path class="cls-180" d="M972.31,552.42a1.12,1.12,0,0,1,1,2,1.11,1.11,0,0,1-1.5-.5A1.12,1.12,0,0,1,972.31,552.42Zm20,43a1.12,1.12,0,1,1,1,2,1.11,1.11,0,0,1-1.5-.5A1.12,1.12,0,0,1,992.31,595.42Zm-51-27a1.12,1.12,0,1,1,2,1,1.12,1.12,0,0,1-2-1Zm47,42h1v2h-1Z" transform="translate(-502.31 -336.42)"/><circle class="cls-181" cx="474.1" cy="238.4" r="0.5"/><path class="cls-180" d="M994.31,598.42v0Z" transform="translate(-502.31 -336.42)"/><circle class="cls-181" cx="500.2" cy="253.7" r="0.5"/><circle class="cls-181" cx="493.3" cy="251.2" r="0.5"/><path class="cls-180" d="M949.31,594.42h1v1h-1Z" transform="translate(-502.31 -336.42)"/><circle class="cls-181" cx="485.9" cy="255.5" r="0.3"/><path class="cls-180" d="M1008.31,617.42" transform="translate(-502.31 -336.42)"/><circle class="cls-181" cx="419" cy="212.1" r="0.3"/><circle class="cls-181" cx="491.7" cy="255.3" r="0.3"/><path class="cls-180" d="M986.31,596.42h0Z" transform="translate(-502.31 -336.42)"/><circle class="cls-181" cx="501" cy="277.2" r="0.5"/><path class="cls-180" d="M900.31,548.42v0Z" transform="translate(-502.31 -336.42)"/><circle class="cls-181" cx="488.4" cy="299.4" r="0.5"/><circle class="cls-181" cx="467.7" cy="282.9" r="0.5"/><circle class="cls-181" cx="542.2" cy="264.5" r="1.6"/><circle class="cls-181" cx="618.1" cy="233.1" r="1.6"/><circle class="cls-181" cx="573.7" cy="242" r="1.6"/><path class="cls-180" d="M1023.31,621.42h3v3h-3Z" transform="translate(-502.31 -336.42)"/><circle class="cls-181" cx="527.3" cy="302.6" r="1.6"/><path class="cls-180" d="M1033.31,581.42a1.12,1.12,0,1,1,2,1,1.12,1.12,0,0,1-2-1Zm62-29a1.12,1.12,0,0,1,1,2,1.11,1.11,0,0,1-1.5-.5A1.12,1.12,0,0,1,1095.31,552.42Zm-9,9a1,1,0,1,1,1,1A1,1,0,0,1,1086.31,561.42Z" transform="translate(-502.31 -336.42)"/><circle class="cls-181" cx="552" cy="288.6" r="1.1"/><path class="cls-180" d="M1003.31,596.42a1.41,1.41,0,0,1,2,2,1.4,1.4,0,0,1-2,0A1.42,1.42,0,0,1,1003.31,596.42Z" transform="translate(-502.31 -336.42)"/><circle class="cls-181" cx="548.6" cy="303.4" r="0.8"/><circle class="cls-181" cx="555" cy="319.3" r="0.8"/><path class="cls-180" d="M1025.31,634.42h2v1h-2Z" transform="translate(-502.31 -336.42)"/><circle class="cls-181" cx="477.1" cy="328.3" r="0.8"/><circle class="cls-181" cx="535.8" cy="266.8" r="0.5"/><path class="cls-180" d="M1055.31,627.42h0Z" transform="translate(-502.31 -336.42)"/><circle class="cls-181" cx="527.8" cy="297.8" r="0.5"/><path class="cls-180" d="M1087.31,622.42h1v1h-1Zm16-4h1v1h-1Z" transform="translate(-502.31 -336.42)"/><circle class="cls-181" cx="562" cy="282.1" r="0.5"/><circle class="cls-181" cx="451.4" cy="244.1" r="0.5"/><path class="cls-180" d="M1132.31,553.42h1v1h-1Zm-75,62v0Z" transform="translate(-502.31 -336.42)"/><circle class="cls-181" cx="508.9" cy="287.2" r="0.5"/><path class="cls-180" d="M893.31,576.42v1h0Z" transform="translate(-502.31 -336.42)"/><circle class="cls-181" cx="547.6" cy="283.9" r="0.3"/><circle class="cls-181" cx="506.7" cy="292.3" r="0.3"/><circle class="cls-181" cx="513.8" cy="287.5" r="0.3"/><path class="cls-180" d="M969.31,578.42Zm101,67Zm0,18v0Z" transform="translate(-502.31 -336.42)"/><circle class="cls-181" cx="558.3" cy="327.8" r="0.3"/><path class="cls-180" d="M1060.31,660.42v0Zm-32-23Zm27-18h1v1h-1Z" transform="translate(-502.31 -336.42)"/><circle class="cls-181" cx="524" cy="297" r="0.3"/><path class="cls-180" d="M1048.31,624.42h1v1h-1Z" transform="translate(-502.31 -336.42)"/><circle class="cls-181" cx="514.6" cy="296.7" r="0.5"/><circle class="cls-181" cx="521.5" cy="297.2" r="0.5"/><path class="cls-180" d="M905.31,590.42v0Zm8-17a1.12,1.12,0,1,1,2,1,1.12,1.12,0,0,1-2-1Zm11-7v0Z" transform="translate(-502.31 -336.42)"/><circle class="cls-181" cx="415.2" cy="228.3" r="0.5"/><circle class="cls-181" cx="407.8" cy="232.6" r="0.3"/><path class="cls-180" d="M915.31,568.42h1v1h-1Zm-7,5h0Zm156,68h1v1h-1Zm62-47h1v1h-1Zm-13,48h0Zm-71,18h0Zm91-71h1v1h-1Zm-192,45a1.12,1.12,0,1,1,1,2,1.11,1.11,0,0,1-1.5-.5A1.12,1.12,0,0,1,941.31,634.42Zm1-33a1.12,1.12,0,1,1,2,1,1.12,1.12,0,0,1-2-1Zm-188,35a1.12,1.12,0,1,1,1,2,1.11,1.11,0,0,1-1.5-.5A1.12,1.12,0,0,1,754.31,636.42Zm184,13h1v1h-1Zm5-12h1v1h-1Z" transform="translate(-502.31 -336.42)"/><circle class="cls-181" cx="449.6" cy="292.3" r="0.5"/><path class="cls-180" d="M961.31,597.42h1v1h-1Zm-17,28h1v1h-1Z" transform="translate(-502.31 -336.42)"/><circle class="cls-181" cx="435.3" cy="294.1" r="0.3"/><path class="cls-180" d="M927.31,651.42h1v1h-1Z" transform="translate(-502.31 -336.42)"/><circle class="cls-181" cx="455.5" cy="319.5" r="0.3"/><path class="cls-180" d="M936.31,634.42v0Z" transform="translate(-502.31 -336.42)"/><circle class="cls-181" cx="398.5" cy="298.3" r="0.5"/><circle class="cls-181" cx="450.3" cy="315.8" r="0.5"/><path class="cls-180" d="M1052.31,663.42h1v1h-1Z" transform="translate(-502.31 -336.42)"/><circle class="cls-181" cx="557.5" cy="351.2" r="0.5"/><path class="cls-180" d="M1031.31,647.42h1v1h-1Zm115-39a2.06,2.06,0,1,1-.18-.17Zm-1-30a2,2,0,1,1-2-2A2,2,0,0,1,1145.31,578.42Zm21,36-1,1-1-1,1-1Zm-44-16-1,1-2-1,2-2Zm54-63-1,1-1-1,1-1Zm1,47-1,1-1-1,1-1Zm-64,3h-1l1-1Zm35,16-1,1v-1h1Z" transform="translate(-502.31 -336.42)"/><circle class="cls-181" cx="615.6" cy="261" r="0.5"/><path class="cls-180" d="M1119.31,609.42l-1,1v-1Zm6-3v1l-1-1Zm-14,2v1l-1-1Zm42-40-1,1v-2Z" transform="translate(-502.31 -336.42)"/><circle class="cls-181" cx="621.1" cy="266" r="0.3"/><path class="cls-180" d="M1125.31,594.42h-1l1-1Zm-14-63v1l-1-1Z" transform="translate(-502.31 -336.42)"/><circle class="cls-181" cx="618.5" cy="229.5" r="0.5"/><circle class="cls-181" cx="739.5" cy="188.7" r="1.6"/><circle class="cls-181" cx="674.8" cy="193" r="1.6"/><path class="cls-180" d="M1221.31,546.42h2v2h-2Zm10-41a1,1,0,1,1,1,1A1,1,0,0,1,1231.31,505.42Zm20,43a1.12,1.12,0,0,1,1,2,1.11,1.11,0,0,1-1.5-.5A1.12,1.12,0,0,1,1251.31,548.42Zm-51-28a1.41,1.41,0,0,1,2,2,1.4,1.4,0,0,1-2,0A1.42,1.42,0,0,1,1200.31,520.42Zm47,43h1v1h-1Zm-12-36h0Z" transform="translate(-502.31 -336.42)"/><circle class="cls-181" cx="751" cy="215.2" r="0.5"/><path class="cls-180" d="M1261.31,542.42h1v1h-1Z" transform="translate(-502.31 -336.42)"/><circle class="cls-181" cx="752.4" cy="203.8" r="0.5"/><path class="cls-180" d="M1208.31,547.42h1v1h-1Z" transform="translate(-502.31 -336.42)"/><circle class="cls-181" cx="765.2" cy="233.5" r="0.3"/><circle class="cls-181" cx="678.1" cy="164.6" r="0.3"/><path class="cls-180" d="M1253.31,544.42Z" transform="translate(-502.31 -336.42)"/><circle class="cls-181" cx="743.6" cy="212.6" r="0.5"/><circle class="cls-181" cx="760" cy="229.8" r="0.5"/><circle class="cls-181" cx="657" cy="165.2" r="0.5"/><circle class="cls-181" cx="747.5" cy="251.9" r="0.5"/><circle class="cls-181" cx="726.8" cy="235.4" r="0.5"/><path class="cls-180" d="M1302.31,552.42h2v2h-2Z" transform="translate(-502.31 -336.42)"/><circle class="cls-181" cx="877.2" cy="185.7" r="1.6"/><path class="cls-180" d="M1334.31,529.42h2v3h-2Zm-52,45h3v2h-3Z" transform="translate(-502.31 -336.42)"/><circle class="cls-181" cx="786.4" cy="255.2" r="1.6"/><path class="cls-180" d="M1292.31,533.42a1.41,1.41,0,0,1,2,2,1.4,1.4,0,0,1-2,0A1.42,1.42,0,0,1,1292.31,533.42Zm62-28a1,1,0,1,1,1,1A1,1,0,0,1,1354.31,505.42Zm-9,8a1.12,1.12,0,1,1,1,2,1.11,1.11,0,0,1-1.5-.5A1.12,1.12,0,0,1,1345.31,513.42Zm-33,63a1.41,1.41,0,0,1,2,2,1.4,1.4,0,0,1-2,0A1.42,1.42,0,0,1,1312.31,576.42Zm-50-27a1.12,1.12,0,1,1,2,1,1.12,1.12,0,0,1-2-1Z" transform="translate(-502.31 -336.42)"/><path class="cls-180" d="M1309.91,591.62a.8.8,0,1,1-.8.8A.8.8,0,0,1,1309.91,591.62Z" transform="translate(-502.31 -336.42)"/><circle class="cls-181" cx="814.1" cy="271.8" r="0.8"/><circle class="cls-181" cx="783.1" cy="251.2" r="0.8"/><circle class="cls-181" cx="736.2" cy="280.8" r="0.8"/><path class="cls-180" d="M1297.31,555.42v0Z" transform="translate(-502.31 -336.42)"/><circle class="cls-181" cx="812.8" cy="243.6" r="0.5"/><circle class="cls-181" cx="786.8" cy="250.3" r="0.5"/><path class="cls-180" d="M1346.31,575.42h0Zm16-4h1v1h-1Z" transform="translate(-502.31 -336.42)"/><circle class="cls-181" cx="821" cy="234.6" r="0.5"/><circle class="cls-181" cx="710.4" cy="196.6" r="0.5"/><path class="cls-180" d="M1391.31,506.42h1v1h-1Z" transform="translate(-502.31 -336.42)"/><circle class="cls-181" cx="814.1" cy="232.1" r="0.5"/><circle class="cls-181" cx="768" cy="239.8" r="0.5"/><path class="cls-180" d="M1152.31,529.42Z" transform="translate(-502.31 -336.42)"/><circle class="cls-181" cx="806.7" cy="236.4" r="0.3"/><circle class="cls-181" cx="765.8" cy="244.8" r="0.3"/><path class="cls-180" d="M1275.31,576.42" transform="translate(-502.31 -336.42)"/><circle class="cls-181" cx="726" cy="194.3" r="0.3"/><circle class="cls-181" cx="827" cy="261.9" r="0.3"/><circle class="cls-181" cx="827.2" cy="280.1" r="0.3"/><circle class="cls-181" cx="667.1" cy="256.7" r="0.3"/><circle class="cls-181" cx="817.3" cy="280.3" r="0.3"/><circle class="cls-181" cx="817.1" cy="276.9" r="0.3"/><circle class="cls-181" cx="784.8" cy="253.4" r="0.3"/><circle class="cls-181" cx="812.5" cy="236.2" r="0.3"/><path class="cls-180" d="M1285.31,585.42v0Z" transform="translate(-502.31 -336.42)"/><circle class="cls-181" cx="805.3" cy="240.9" r="0.5"/><circle class="cls-181" cx="773.6" cy="249.3" r="0.5"/><circle class="cls-181" cx="780.5" cy="249.8" r="0.5"/><circle class="cls-181" cx="662.2" cy="206.8" r="0.5"/><path class="cls-180" d="M1172.31,525.42a1.41,1.41,0,0,1,2,2,1.4,1.4,0,0,1-2,0A1.42,1.42,0,0,1,1172.31,525.42Z" transform="translate(-502.31 -336.42)"/><circle class="cls-181" cx="681.1" cy="183.3" r="0.5"/><circle class="cls-181" cx="674.2" cy="180.8" r="0.5"/><path class="cls-180" d="M1169.31,521.42" transform="translate(-502.31 -336.42)"/><circle class="cls-181" cx="672.6" cy="184.9" r="0.3"/><path class="cls-180" d="M1167.31,525.42h1v1h-1Z" transform="translate(-502.31 -336.42)"/><circle class="cls-181" cx="821.8" cy="258.1" r="0.5"/><circle class="cls-181" cx="883.3" cy="210.9" r="0.5"/><path class="cls-180" d="M1372.31,594.42h1v1h-1Zm-71,18h1v1h-1Zm91-70h1v1h-1Zm-192,45a1.12,1.12,0,1,1,2,1,1.12,1.12,0,0,1-2-1Zm1-34a1.41,1.41,0,0,1,2,2,1.4,1.4,0,0,1-2,0A1.42,1.42,0,0,1,1201.31,553.42Z" transform="translate(-502.31 -336.42)"/><circle class="cls-181" cx="695.3" cy="266.2" r="0.8"/><path class="cls-180" d="M1202.31,589.42h1v1h-1Z" transform="translate(-502.31 -336.42)"/><circle class="cls-181" cx="708.6" cy="244.8" r="0.5"/><circle class="cls-181" cx="718.3" cy="213.9" r="0.5"/><path class="cls-180" d="M1203.31,578.42h1v1h-1Zm-7,4h1v1h-1Z" transform="translate(-502.31 -336.42)"/><circle class="cls-181" cx="684.4" cy="268" r="0.3"/><path class="cls-180" d="M1216.31,608.42h0Z" transform="translate(-502.31 -336.42)"/><circle class="cls-181" cx="700.1" cy="246.4" r="0.3"/><path class="cls-180" d="M1195.31,587.42v0Z" transform="translate(-502.31 -336.42)"/><circle class="cls-181" cx="657.5" cy="250.8" r="0.5"/><path class="cls-180" d="M1211.31,604.42h1v1h-1Z" transform="translate(-502.31 -336.42)"/><circle class="cls-181" cx="809.2" cy="280.3" r="0.5"/><circle class="cls-181" cx="816.5" cy="303.7" r="0.5"/><circle class="cls-181" cx="788.5" cy="263.8" r="0.5"/></g></svg>